<svg width="32" height="32" viewBox="0 0 32 32" fill="none" xmlns="http://www.w3.org/2000/svg">
<circle cx="16" cy="16" r="16" fill="#ECF5E4"/>
<path fill-rule="evenodd" clip-rule="evenodd" d="M16.6667 21.3333C17.0333 21.3333 17.3333 21.0333 17.3333 20.6667C17.3333 20.3 17.0333 20 16.6667 20C16.3 20 16 20.3 16 20.6667C16 21.0333 16.3 21.3333 16.6667 21.3333ZM21.3333 9.33333V8.66667C21.3333 8.3 21.0333 8 20.6667 8C20.3 8 20 8.3 20 8.66667V9.33333H12V8.66667C12 8.3 11.7 8 11.3333 8C10.9667 8 10.6667 8.3 10.6667 8.66667V9.33333H8V24H24V9.33333H21.3333ZM22.6667 22.6667H9.33333V13.3333H22.6667V22.6667ZM16.6667 16C17.0333 16 17.3333 15.7 17.3333 15.3333C17.3333 14.9667 17.0333 14.6667 16.6667 14.6667C16.3 14.6667 16 14.9667 16 15.3333C16 15.7 16.3 16 16.6667 16ZM19.3333 18.6667C19.7 18.6667 20 18.3667 20 18C20 17.6333 19.7 17.3333 19.3333 17.3333C18.9667 17.3333 18.6667 17.6333 18.6667 18C18.6667 18.3667 18.9667 18.6667 19.3333 18.6667ZM19.3333 16C19.7 16 20 15.7 20 15.3333C20 14.9667 19.7 14.6667 19.3333 14.6667C18.9667 14.6667 18.6667 14.9667 18.6667 15.3333C18.6667 15.7 18.9667 16 19.3333 16ZM16.6667 18.6667C17.0333 18.6667 17.3333 18.3667 17.3333 18C17.3333 17.6333 17.0333 17.3333 16.6667 17.3333C16.3 17.3333 16 17.6333 16 18C16 18.3667 16.3 18.6667 16.6667 18.6667ZM11.3333 18.6667C11.7 18.6667 12 18.3667 12 18C12 17.6333 11.7 17.3333 11.3333 17.3333C10.9667 17.3333 10.6667 17.6333 10.6667 18C10.6667 18.3667 10.9667 18.6667 11.3333 18.6667ZM14 16C14.3667 16 14.6667 15.7 14.6667 15.3333C14.6667 14.9667 14.3667 14.6667 14 14.6667C13.6333 14.6667 13.3333 14.9667 13.3333 15.3333C13.3333 15.7 13.6333 16 14 16ZM11.3333 21.3333C11.7 21.3333 12 21.0333 12 20.6667C12 20.3 11.7 20 11.3333 20C10.9667 20 10.6667 20.3 10.6667 20.6667C10.6667 21.0333 10.9667 21.3333 11.3333 21.3333ZM14 18.6667C14.3667 18.6667 14.6667 18.3667 14.6667 18C14.6667 17.6333 14.3667 17.3333 14 17.3333C13.6333 17.3333 13.3333 17.6333 13.3333 18C13.3333 18.3667 13.6333 18.6667 14 18.6667ZM14 21.3333C14.3667 21.3333 14.6667 21.0333 14.6667 20.6667C14.6667 20.3 14.3667 20 14 20C13.6333 20 13.3333 20.3 13.3333 20.6667C13.3333 21.0333 13.6333 21.3333 14 21.3333Z" fill="#6D9147"/>
</svg>
