<svg width="46" height="32" viewBox="0 0 46 32" fill="none" xmlns="http://www.w3.org/2000/svg">
<path d="M44.5329 27.1732H43.6214C43.2858 27.1732 43.0134 26.9014 43.0134 26.5652C43.0134 26.2289 43.2858 25.9571 43.6214 25.9571H43.9249V17.026L38.7418 9.53959H31.7637V25.9571H34.1953C34.5316 25.9571 34.8034 26.2289 34.8034 26.5652C34.8034 26.9014 34.5316 27.1732 34.1953 27.1732H31.1557C30.82 27.1732 30.5476 26.9014 30.5476 26.5652V8.93153C30.5476 8.59528 30.82 8.32348 31.1557 8.32348H39.0604C39.2599 8.32348 39.4465 8.42137 39.5602 8.58494L45.0327 16.4897C45.1033 16.5912 45.141 16.7122 45.141 16.8357V26.5652C45.141 26.9014 44.8686 27.1732 44.5329 27.1732Z" fill="#183F4F"/>
<path d="M44.5328 17.4443H34.1958C33.8602 17.4443 33.5878 17.1719 33.5878 16.8363V11.3638C33.5878 11.0275 33.8602 10.7557 34.1958 10.7557C34.5315 10.7557 34.8039 11.0275 34.8039 11.3638V16.2282H44.5328C44.8684 16.2282 45.1409 16.5 45.1409 16.8363C45.1409 17.1719 44.8684 17.4443 44.5328 17.4443Z" fill="#183F4F"/>
<path d="M37.2362 21.0927H36.02C35.6844 21.0927 35.412 20.8209 35.412 20.4846C35.412 20.1484 35.6844 19.8766 36.02 19.8766H37.2362C37.5718 19.8766 37.8442 20.1484 37.8442 20.4846C37.8442 20.8209 37.5718 21.0927 37.2362 21.0927Z" fill="#183F4F"/>
<path d="M9.64615 27.1732H5.31314C4.97749 27.1732 4.70508 26.9014 4.70508 26.5652V17.7794C4.70508 17.4437 4.97749 17.1713 5.31314 17.1713C5.64878 17.1713 5.92119 17.4437 5.92119 17.7794V25.9571H9.64615C9.9818 25.9571 10.2542 26.2289 10.2542 26.5652C10.2542 26.9014 9.9818 27.1732 9.64615 27.1732Z" fill="#183F4F"/>
<path d="M31.1556 27.1732H19.4511C19.1154 27.1732 18.843 26.9014 18.843 26.5652C18.843 26.2289 19.1154 25.9571 19.4511 25.9571H30.5475V7.10736H17.8045C17.4688 7.10736 17.1964 6.83495 17.1964 6.4993C17.1964 6.16305 17.4688 5.89125 17.8045 5.89125H31.1556C31.4912 5.89125 31.7636 6.16305 31.7636 6.4993V26.5652C31.7636 26.9014 31.4912 27.1732 31.1556 27.1732Z" fill="#183F4F"/>
<path d="M38.0144 24.133C36.1805 24.133 34.6889 25.6245 34.6889 27.4584C34.6889 29.2917 36.1805 30.7839 38.0144 30.7839C39.8483 30.7839 41.3398 29.2917 41.3398 27.4584C41.3398 25.6245 39.8483 24.133 38.0144 24.133ZM38.0144 32C35.5104 32 33.4728 29.9624 33.4728 27.4584C33.4728 24.9545 35.5104 22.9168 38.0144 22.9168C40.5183 22.9168 42.5559 24.9545 42.5559 27.4584C42.5559 29.9624 40.5183 32 38.0144 32Z" fill="#183F4F"/>
<path d="M13.6295 24.133C11.7962 24.133 10.304 25.6245 10.304 27.4584C10.304 29.2917 11.7962 30.7839 13.6295 30.7839C15.4634 30.7839 16.9549 29.2917 16.9549 27.4584C16.9549 25.6245 15.4634 24.133 13.6295 24.133ZM13.6295 32C11.1255 32 9.08789 29.9624 9.08789 27.4584C9.08789 24.9545 11.1255 22.9168 13.6295 22.9168C16.1341 22.9168 18.1711 24.9545 18.1711 27.4584C18.1711 29.9624 16.1341 32 13.6295 32Z" fill="#183F4F"/>
<path d="M8.63137 13.3606C8.7615 13.3606 8.89163 13.4026 9.00108 13.4859L10.779 14.8486L11.4169 12.7015C11.4947 12.4376 11.741 12.2406 12.0152 12.2667L14.2541 12.3239L13.508 10.2121C13.4168 9.95248 13.5104 9.66426 13.7366 9.5086L15.5815 8.23837L13.7366 6.96874C13.5104 6.81247 13.4168 6.52425 13.508 6.26522L14.2541 4.15283L12.0152 4.20999C11.7416 4.22215 11.4947 4.03851 11.4169 3.77522L10.779 1.62818L9.00108 2.99083C8.78278 3.15744 8.47996 3.15744 8.26106 2.99083L6.48371 1.62818L5.84586 3.77522C5.76743 4.03851 5.509 4.22154 5.24753 4.20999L3.00806 4.15283L3.75415 6.26522C3.84596 6.52425 3.75232 6.81247 3.52551 6.96874L1.68067 8.23837L3.52551 9.5086C3.75232 9.66426 3.84596 9.95248 3.75415 10.2121L3.00806 12.3239L5.24753 12.2667C5.50961 12.2412 5.76743 12.4376 5.84586 12.7015L6.48371 14.8486L8.26106 13.4859C8.37051 13.4026 8.50064 13.3606 8.63137 13.3606ZM11.1104 16.4763C10.9785 16.4763 10.8484 16.4338 10.7407 16.3511L8.63137 14.7349L6.52202 16.3511C6.3621 16.4727 6.15415 16.5079 5.96444 16.4465C5.77411 16.3851 5.62636 16.2331 5.5692 16.0416L4.81277 13.4944L2.15617 13.5619C1.95733 13.5783 1.7664 13.4731 1.64844 13.3114C1.53109 13.1496 1.50068 12.9399 1.56757 12.7514L2.45229 10.2462L0.263899 8.73941C0.0991157 8.6257 0 8.43842 0 8.23837C0 8.03831 0.0991157 7.85103 0.263899 7.73732L2.45229 6.23117L1.56757 3.72536C1.50068 3.53686 1.53109 3.32708 1.64844 3.16534C1.7664 3.0036 1.96281 2.90753 2.15617 2.91482L4.81277 2.98232L5.5692 0.435162C5.62636 0.243624 5.77411 0.0916138 5.96444 0.0295925C6.15537 -0.0312138 6.36332 0.00404549 6.52202 0.125658L8.63137 1.74188L10.7407 0.125658C10.8994 0.00343895 11.108 -0.0318222 11.2983 0.0295925C11.4886 0.0916138 11.6364 0.243624 11.6929 0.435162L12.45 2.98232L15.1066 2.91482C15.3133 2.90996 15.4963 3.0036 15.6137 3.16534C15.7317 3.32708 15.7621 3.53686 15.6952 3.72536L14.8098 6.23117L16.9988 7.73732C17.1636 7.85103 17.2621 8.03831 17.2621 8.23837C17.2621 8.43842 17.1636 8.6257 16.9988 8.73941L14.8098 10.2462L15.6952 12.7514C15.7621 12.9399 15.7317 13.1496 15.6137 13.3114C15.4963 13.4731 15.3036 13.5692 15.1066 13.5619L12.45 13.4944L11.6929 16.0416C11.6364 16.2331 11.4886 16.3851 11.2983 16.4465C11.2369 16.4666 11.173 16.4763 11.1104 16.4763Z" fill="#6D9147"/>
<path d="M8.2994 10.6061C8.14191 10.6061 7.98929 10.5447 7.87497 10.4334L6.05445 8.65792C5.81366 8.42382 5.80941 8.03831 6.04351 7.79813C6.27822 7.55794 6.66311 7.55247 6.9033 7.78718L8.20576 9.05741L10.5881 5.56899C10.7772 5.29172 11.1561 5.22058 11.4333 5.41029C11.7106 5.5994 11.7817 5.9776 11.592 6.25487L8.80165 10.341C8.70072 10.4894 8.53837 10.5855 8.3596 10.6031C8.33953 10.6055 8.31947 10.6061 8.2994 10.6061Z" fill="#6D9147"/>
</svg>
