<svg width="50" height="32" viewBox="0 0 50 32" fill="none" xmlns="http://www.w3.org/2000/svg">
<path d="M10.5456 30.72H18.5303V23.2966H10.5456V30.72ZM19.1703 32H9.90562C9.55215 32 9.26562 31.7139 9.26562 31.36V22.6566C9.26562 22.3034 9.55215 22.0166 9.90562 22.0166H19.1703C19.5237 22.0166 19.8103 22.3034 19.8103 22.6566V31.36C19.8103 31.7139 19.5237 32 19.1703 32Z" fill="#6D9147"/>
<path d="M19.1703 23.2967H9.90564C9.70155 23.2967 9.50968 23.1994 9.3891 23.0349C9.26878 22.8698 9.23377 22.6579 9.29566 22.4634L9.86033 20.6829C9.96753 20.3463 10.3281 20.16 10.6638 20.2669C11.0006 20.3738 11.1872 20.7335 11.0803 21.0707L10.78 22.0167H18.2825L17.8669 20.7699H16.6982C16.3447 20.7699 16.0582 20.4839 16.0582 20.1299C16.0582 19.776 16.3447 19.4899 16.6982 19.4899H18.3281C18.6038 19.4899 18.8481 19.6666 18.9353 19.9277L19.7775 22.4544C19.8425 22.6496 19.8097 22.8647 19.6894 23.0311C19.5691 23.1981 19.376 23.2967 19.1703 23.2967Z" fill="#6D9147"/>
<path d="M1.28012 30.72H9.26476V23.2966H1.28012V30.72ZM9.90476 32H0.640122C0.28665 32 0.00012207 31.7139 0.00012207 31.36V22.6566C0.00012207 22.3034 0.28665 22.0166 0.640122 22.0166H9.90476C10.2582 22.0166 10.5448 22.3034 10.5448 22.6566V31.36C10.5448 31.7139 10.2582 32 9.90476 32Z" fill="#6D9147"/>
<path d="M9.90469 23.2967H0.640047C0.436271 23.2967 0.244719 23.2 0.124079 23.0355C0.00343939 22.8711 -0.0315681 22.6592 0.0293599 22.4653L0.821551 19.9463C0.905327 19.68 1.15218 19.4983 1.4316 19.4983L7.77656 19.4912C7.77656 19.4912 7.77688 19.4912 7.7772 19.4912C8.13035 19.4912 8.41688 19.7773 8.4172 20.1306C8.41752 20.4839 8.13125 20.7706 7.77784 20.7712L1.90187 20.7776L1.51218 22.0167H9.45125L9.86065 20.8525C9.97784 20.5197 10.3438 20.3418 10.6766 20.4615C11.01 20.5786 11.1853 20.944 11.0681 21.2775L10.5085 22.8691C10.4185 23.1258 10.1762 23.2967 9.90469 23.2967Z" fill="#6D9147"/>
<path d="M8.40878 20.2451H16.051V13.1437H8.40878V20.2451ZM16.691 21.5251H7.76878C7.41538 21.5251 7.12878 21.239 7.12878 20.8851V12.5037C7.12878 12.1498 7.41538 11.8637 7.76878 11.8637H16.691C17.0444 11.8637 17.331 12.1498 17.331 12.5037V20.8851C17.331 21.239 17.0444 21.5251 16.691 21.5251Z" fill="#6D9147"/>
<path d="M8.65688 11.8637H15.8028L15.4185 10.7104H9.04126L8.65688 11.8637ZM16.6909 13.1437H7.76875C7.56312 13.1437 7.36971 13.0451 7.24971 12.8781C7.12939 12.711 7.09656 12.496 7.16158 12.3014L7.97284 9.86816C8.06001 9.60704 8.30469 9.4304 8.58001 9.4304H15.8797C16.155 9.4304 16.3997 9.60704 16.4869 9.86816L17.2982 12.3014C17.3631 12.496 17.3303 12.711 17.21 12.8781C17.09 13.0451 16.8966 13.1437 16.6909 13.1437Z" fill="#6D9147"/>
<path d="M24.6947 27.52V30.72H27.8947V27.52H24.6947ZM27.8947 32H24.6947C23.9888 32 23.4147 31.4259 23.4147 30.72V26.88C23.4147 26.5261 23.7013 26.24 24.0547 26.24H28.5347C28.8881 26.24 29.1747 26.5261 29.1747 26.88V30.72C29.1747 31.4259 28.6006 32 27.8947 32Z" fill="#183F4F"/>
<path d="M44.5346 27.52V30.72H47.7346V27.52H44.5346ZM47.7346 32H44.5346C43.8287 32 43.2546 31.4259 43.2546 30.72V26.88C43.2546 26.5261 43.5412 26.24 43.8946 26.24H48.3746C48.728 26.24 49.0146 26.5261 49.0146 26.88V30.72C49.0146 31.4259 48.4406 32 47.7346 32Z" fill="#183F4F"/>
<path d="M24.0548 21.76V26.24H48.3757L48.3748 21.76H24.0548ZM48.3748 27.52H24.0548C23.3489 27.52 22.7748 26.9459 22.7748 26.24V21.12C22.7748 20.7661 23.0614 20.48 23.4148 20.48H49.0148C49.3682 20.48 49.6548 20.7661 49.6548 21.12V26.24C49.6548 26.9459 49.0807 27.52 48.3748 27.52Z" fill="#183F4F"/>
<path d="M25.9747 24.96C25.6213 24.96 25.3347 24.6739 25.3347 24.32V23.68C25.3347 23.3261 25.6213 23.04 25.9747 23.04C26.3281 23.04 26.6147 23.3261 26.6147 23.68V24.32C26.6147 24.6739 26.3281 24.96 25.9747 24.96Z" fill="#183F4F"/>
<path d="M46.4548 24.96C46.1014 24.96 45.8148 24.6739 45.8148 24.32V23.68C45.8148 23.3261 46.1014 23.04 46.4548 23.04C46.8082 23.04 47.0948 23.3261 47.0948 23.68V24.32C47.0948 24.6739 46.8082 24.96 46.4548 24.96Z" fill="#183F4F"/>
<path d="M46.0947 21.76C45.7413 21.76 45.4547 21.4739 45.4547 21.12V18.0525L42.6147 11.5008L30.2272 11.5194L27.2547 18.0589V21.12C27.2547 21.4739 26.9681 21.76 26.6147 21.76C26.2613 21.76 25.9747 21.4739 25.9747 21.12V17.92C25.9747 17.8285 25.9944 17.7382 26.0322 17.655L29.2322 10.615C29.3357 10.3865 29.5631 10.2406 29.8138 10.24L43.0338 10.2201C43.0341 10.2201 43.0344 10.2201 43.0348 10.2201C43.2897 10.2201 43.5203 10.3712 43.6219 10.6054L46.6819 17.6659C46.7169 17.7459 46.7347 17.8323 46.7347 17.92V21.12C46.7347 21.4739 46.4481 21.76 46.0947 21.76Z" fill="#183F4F"/>
<path d="M28.2623 7.68H44.1673L47.9004 1.28H24.5291L28.2623 7.68ZM44.5348 8.96H27.8948C27.6673 8.96 27.4566 8.83968 27.3419 8.64256L23.4235 1.92512C23.1898 1.52448 23.1879 1.04512 23.4191 0.642562C23.6501 0.240002 24.0651 -9.53674e-07 24.5291 -9.53674e-07H47.9004C48.3645 -9.53674e-07 48.7795 0.240002 49.0104 0.642562C49.2417 1.04512 49.2398 1.52448 49.006 1.92512L45.0876 8.64256C44.9729 8.83968 44.7623 8.96 44.5348 8.96Z" fill="#183F4F"/>
<path d="M30.8503 7.68H41.5791L43.4991 3.84H28.9303L30.8503 7.68ZM41.9747 8.96H30.4547C30.2122 8.96 29.9906 8.82304 29.8822 8.60608L27.3222 3.48608C27.2231 3.28832 27.2338 3.0528 27.3503 2.864C27.4669 2.6752 27.6728 2.56 27.8947 2.56H44.5347C44.7566 2.56 44.9625 2.6752 45.0791 2.864C45.1956 3.0528 45.2063 3.28832 45.1072 3.48608L42.5472 8.60608C42.4388 8.82304 42.2172 8.96 41.9747 8.96Z" fill="#183F4F"/>
<path d="M30.4547 20.48H39.4147V17.92H30.4547V20.48ZM40.0547 21.76H29.8147C29.4613 21.76 29.1747 21.4739 29.1747 21.12V17.28C29.1747 16.9261 29.4613 16.64 29.8147 16.64H40.0547C40.4081 16.64 40.6947 16.9261 40.6947 17.28V21.12C40.6947 21.4739 40.4081 21.76 40.0547 21.76Z" fill="#6D9147"/>
<path d="M34.2948 16.64H37.4948V14.72H34.2948V16.64ZM38.1348 17.92H33.6548C33.3014 17.92 33.0148 17.6339 33.0148 17.28V14.08C33.0148 13.7261 33.3014 13.44 33.6548 13.44H38.1348C38.4882 13.44 38.7748 13.7261 38.7748 14.08V17.28C38.7748 17.6339 38.4882 17.92 38.1348 17.92Z" fill="#6D9147"/>
<path d="M24.0548 20.48H48.3748V17.431L44.4929 9.66719C44.2748 9.23135 43.836 8.95999 43.3482 8.95999H29.0813C28.5935 8.95999 28.1548 9.23135 27.9366 9.66719L24.0548 17.431V20.48ZM49.0148 21.76H23.4148C23.0614 21.76 22.7748 21.4739 22.7748 21.12V17.28C22.7748 17.1808 22.7979 17.0822 22.8423 16.9939L26.7917 9.09503C27.2282 8.22271 28.1054 7.67999 29.0813 7.67999H43.3482C44.3242 7.67999 45.2013 8.22271 45.6379 9.09503L49.5873 16.9939C49.6317 17.0822 49.6548 17.1808 49.6548 17.28V21.12C49.6548 21.4739 49.3682 21.76 49.0148 21.76Z" fill="#183F4F"/>
</svg>
