<svg width="111" height="24" viewBox="0 0 111 24" fill="none" xmlns="http://www.w3.org/2000/svg">
<path d="M0.923584 10.9714C0.923584 7.13107 0.923584 5.21089 1.67201 3.74407C2.33034 2.45381 3.38081 1.4048 4.67287 0.747384C6.14173 0 8.06459 0 11.9103 0H13.9703C17.816 0 19.7389 0 21.2077 0.747384C22.4998 1.4048 23.5503 2.45381 24.2086 3.74407C24.957 5.21089 24.957 7.13107 24.957 10.9714V13.0286C24.957 16.8689 24.957 18.7891 24.2086 20.2559C23.5503 21.5462 22.4998 22.5952 21.2077 23.2526C19.7389 24 17.816 24 13.9703 24H11.9103C8.06459 24 6.14173 24 4.67287 23.2526C3.38081 22.5952 2.33034 21.5462 1.67201 20.2559C0.923584 18.7891 0.923584 16.8689 0.923584 13.0286V10.9714Z" fill="url(#paint0_linear)"/>
<path fill-rule="evenodd" clip-rule="evenodd" d="M20.7512 4.31662C20.3383 5.37624 19.9271 6.43586 19.5177 7.49548C19.1082 8.5551 18.6979 9.60985 18.2868 10.6597C17.8427 11.7617 16.9897 12.6709 15.889 13.2155C14.8057 13.7794 13.5415 13.9424 12.3395 13.6731C12.749 12.6167 13.1593 11.562 13.5704 10.5088L14.8065 7.3324C15.2564 6.23797 16.1027 5.33255 17.1928 4.77954C18.2829 4.22652 19.545 4.06234 20.7512 4.31662Z" fill="white"/>
<path fill-rule="evenodd" clip-rule="evenodd" d="M13.5411 9.7202L12.3068 12.8792L11.0752 16.0382C10.6345 17.1465 9.78082 18.0629 8.67587 18.614C7.59342 19.1754 6.33157 19.3405 5.12939 19.0781L6.3713 15.8997L7.60553 12.7407C8.04864 11.6413 8.90022 10.7338 9.99972 10.1892C11.0796 9.62601 12.34 9.4591 13.5411 9.7202Z" fill="white"/>
<path d="M45.9415 10.0303C45.9415 10.9955 45.7222 11.8815 45.2835 12.6884C44.8448 13.4795 44.1711 14.1203 43.2624 14.6108C42.3538 15.1013 41.2257 15.3465 39.8784 15.3465H37.3873V21.3272H33.3687V4.66666H39.8784C41.1944 4.66666 42.3068 4.89608 43.2154 5.35491C44.1241 5.81375 44.8056 6.44663 45.26 7.25355C45.7143 8.06048 45.9415 8.98606 45.9415 10.0303ZM39.5729 12.1188C40.3405 12.1188 40.9124 11.9369 41.2884 11.573C41.6644 11.2091 41.8524 10.6948 41.8524 10.0303C41.8524 9.36579 41.6644 8.85158 41.2884 8.48767C40.9124 8.12376 40.3405 7.94181 39.5729 7.94181H37.3873V12.1188H39.5729Z" fill="#183F4F"/>
<path d="M52.0522 10.2914C52.5222 9.56357 53.1097 8.99397 53.8147 8.5826C54.5198 8.15541 55.3031 7.94181 56.1648 7.94181V12.2375H55.0603C54.0576 12.2375 53.3056 12.459 52.8042 12.902C52.3029 13.3292 52.0522 14.0887 52.0522 15.1804V21.3272H48.0336V8.08421H52.0522V10.2914Z" fill="#183F4F"/>
<path d="M57.2866 14.682C57.2866 13.3213 57.5373 12.1267 58.0386 11.0983C58.5556 10.0699 59.2528 9.27877 60.1301 8.725C61.0075 8.17123 61.9867 7.89434 63.0677 7.89434C63.9921 7.89434 64.7989 8.08421 65.4883 8.46394C66.1933 8.84367 66.7338 9.34206 67.1098 9.95912V8.08421H71.1284V21.3272H67.1098V19.4523C66.7181 20.0694 66.1698 20.5678 65.4648 20.9475C64.7754 21.3272 63.9686 21.5171 63.0442 21.5171C61.9789 21.5171 61.0075 21.2402 60.1301 20.6864C59.2528 20.1168 58.5556 19.3178 58.0386 18.2894C57.5373 17.2451 57.2866 16.0427 57.2866 14.682ZM67.1098 14.7057C67.1098 13.6931 66.8278 12.8941 66.2638 12.3087C65.7154 11.7233 65.0418 11.4306 64.2427 11.4306C63.4437 11.4306 62.7622 11.7233 62.1982 12.3087C61.6498 12.8783 61.3757 13.6694 61.3757 14.682C61.3757 15.6946 61.6498 16.5015 62.1982 17.1027C62.7622 17.6882 63.4437 17.9809 64.2427 17.9809C65.0418 17.9809 65.7154 17.6882 66.2638 17.1027C66.8278 16.5173 67.1098 15.7183 67.1098 14.7057Z" fill="#183F4F"/>
<path d="M78.0543 8.08421V21.3272H74.0357V8.08421H78.0543Z" fill="#183F4F"/>
<path d="M84.9851 10.2914C85.4551 9.56357 86.0426 8.99397 86.7476 8.5826C87.4527 8.15541 88.236 7.94181 89.0977 7.94181V12.2375H87.9932C86.9905 12.2375 86.2385 12.459 85.7371 12.902C85.2358 13.3292 84.9851 14.0887 84.9851 15.1804V21.3272H80.9665V8.08421H84.9851V10.2914Z" fill="#183F4F"/>
<path d="M95.0371 8.08421V21.3272H91.0185V8.08421H95.0371Z" fill="#183F4F"/>
<path d="M110.311 14.4921C110.311 14.8718 110.287 15.2674 110.24 15.6788H101.145C101.208 16.5015 101.467 17.1344 101.921 17.5774C102.391 18.0046 102.963 18.2182 103.636 18.2182C104.639 18.2182 105.336 17.791 105.728 16.9366H110.005C109.786 17.8068 109.386 18.59 108.807 19.2862C108.243 19.9824 107.53 20.5282 106.668 20.9238C105.806 21.3193 104.843 21.5171 103.777 21.5171C102.493 21.5171 101.349 21.2402 100.346 20.6864C99.3437 20.1327 98.5603 19.3416 97.9963 18.3131C97.4323 17.2847 97.1503 16.0822 97.1503 14.7057C97.1503 13.3292 97.4245 12.1267 97.9728 11.0983C98.5368 10.0699 99.3202 9.27877 100.323 8.725C101.326 8.17123 102.477 7.89434 103.777 7.89434C105.046 7.89434 106.175 8.16332 107.162 8.70127C108.149 9.23922 108.916 10.0066 109.465 11.0034C110.029 12.0002 110.311 13.1631 110.311 14.4921ZM106.198 13.4241C106.198 12.728 105.963 12.1742 105.493 11.7628C105.023 11.3514 104.435 11.1458 103.73 11.1458C103.057 11.1458 102.485 11.3435 102.015 11.7391C101.561 12.1346 101.279 12.6963 101.169 13.4241H106.198Z" fill="#183F4F"/>
<path d="M74.3176 6.17357C74.772 6.58494 75.3517 6.79063 76.0567 6.79063C76.746 6.79063 77.31 6.58494 77.7487 6.17357C78.2031 5.74638 78.4302 5.22425 78.4302 4.60719C78.4302 3.97431 78.2031 3.45219 77.7487 3.04082C77.31 2.61362 76.746 2.40002 76.0567 2.40002C75.3517 2.40002 74.772 2.61362 74.3176 3.04082C73.8789 3.45219 73.6596 3.97431 73.6596 4.60719C73.6596 5.22425 73.8789 5.74638 74.3176 6.17357Z" fill="#36BCA8"/>
<path d="M91.3005 6.17357C91.7548 6.58494 92.3345 6.79063 93.0395 6.79063C93.7289 6.79063 94.2929 6.58494 94.7316 6.17357C95.1859 5.74638 95.4131 5.22425 95.4131 4.60719C95.4131 3.97431 95.1859 3.45219 94.7316 3.04082C94.2929 2.61362 93.7289 2.40002 93.0395 2.40002C92.3345 2.40002 91.7548 2.61362 91.3005 3.04082C90.8618 3.45219 90.6425 3.97431 90.6425 4.60719C90.6425 5.22425 90.8618 5.74638 91.3005 6.17357Z" fill="#36BCA8"/>
<defs>
<linearGradient id="paint0_linear" x1="12.9403" y1="0" x2="12.9403" y2="24" gradientUnits="userSpaceOnUse">
<stop stop-color="#35BCA8"/>
<stop offset="1" stop-color="#91BE72"/>
</linearGradient>
</defs>
</svg>
