<svg width="392" height="383" viewBox="0 0 392 383" fill="none" xmlns="http://www.w3.org/2000/svg">
<path d="M88.1194 211.019H91.1938C91.6411 211.019 92.0157 210.693 92.0781 210.254C92.6139 206.513 98.2633 162.387 99.1528 156.51C99.2673 155.756 98.3985 155.338 97.9355 155.641C97.9355 155.641 90.7517 157.529 91.6984 157.53C91.6932 157.554 91.6828 157.576 91.6828 157.601C91.6828 157.601 87.4172 205.57 87.2247 210.091C87.2039 210.598 87.6096 211.019 88.1194 211.019Z" fill="#183F4F"/>
<path d="M282.19 302.436H285.27C285.712 302.436 286.092 302.11 286.154 301.671C286.69 297.93 292.339 253.804 293.224 247.926C293.338 247.173 292.474 246.755 292.006 247.058C292.006 247.058 284.827 248.945 285.769 248.946C285.764 248.97 285.759 248.992 285.759 249.018C285.759 249.018 281.488 296.987 281.3 301.508C281.28 302.014 281.685 302.436 282.19 302.436Z" fill="#183F4F"/>
<path d="M363.773 269.604H366.847C367.295 269.604 367.669 269.277 367.732 268.838C368.268 265.098 373.917 220.972 374.806 215.094C374.921 214.341 374.052 213.922 373.589 214.226C373.589 214.226 366.405 216.113 367.352 216.114C367.347 216.138 367.336 216.16 367.336 216.185C367.336 216.185 363.071 264.155 362.878 268.675C362.857 269.182 363.263 269.604 363.773 269.604Z" fill="#183F4F"/>
<path d="M388.607 218.477L162.061 120.532C162.061 120.532 162.456 74.6196 161.374 74.8391C114.197 84.4571 75.4682 121.292 70.5211 130.143C66.6873 137.001 66.0214 145.687 65.5949 153.372C65.1943 160.6 65.3192 167.865 65.7821 175.087C65.8966 176.859 65.7458 180.804 67.0723 181.947C67.3116 182.153 87.9843 191.821 98.0293 196.524C111.18 202.682 124.331 208.839 137.486 214.997C152.635 222.088 167.783 229.18 182.931 236.272C197.497 243.092 212.062 249.913 226.628 256.735C238.031 262.079 249.439 267.422 260.841 272.77C264.041 274.269 267.235 275.769 270.434 277.27C272.322 278.16 274.471 279.618 276.505 280.126C286.222 284.712 299.118 294.46 306.811 294.427C312.409 294.402 367.456 249.307 384.305 234.392C389.944 229.398 390.688 229.249 391.807 225.105C392.53 222.408 391.172 219.585 388.607 218.477Z" fill="#F5EBE1"/>
<path d="M80.5557 181.699C78.0536 180.833 76.7114 183.849 75.9832 186.19C79.6974 187.938 84.1192 190.011 88.3172 191.976C87.6357 190.616 86.9178 189.274 86.1375 187.962C84.863 185.815 83.0943 182.578 80.5557 181.699Z" fill="#183F4F"/>
<path d="M141.627 118.205C139.318 111.277 139.104 103.291 138.527 96.052C137.773 86.5886 136.899 75.5989 140.035 66.4907C143.812 55.5254 165.187 58.1384 173.162 59.4196C198.99 63.5693 222.461 75.4548 245.121 87.9614C267.573 100.358 288.948 114.655 309.069 130.563C321.517 140.403 333.482 150.85 344.916 161.854C362.852 179.119 380.628 198.476 391.422 221.165C394.668 227.98 372.195 230.786 369.105 230.013C366.01 229.24 173.052 148.347 173.052 148.347C173.052 148.347 141.627 118.206 141.627 118.205Z" fill="#F5EBE1"/>
<path d="M305.443 287.342C303.815 287.342 302.265 287.059 300.985 286.465C280.286 276.855 235.627 255.254 192.435 234.366C135.234 206.699 76.0924 178.097 73.2053 177.612C73.1793 177.623 73.1532 177.631 73.122 177.634C72.9919 177.647 72.8568 177.545 72.8412 177.403C72.8308 177.311 72.8827 177.2 72.9608 177.146C73.2469 176.944 73.6527 176.673 110.977 194.518C133.304 205.194 163.481 219.788 192.659 233.901C235.851 254.79 280.51 276.389 301.198 285.998C304.585 287.57 310.25 286.791 313.558 284.293C327.219 273.997 365.484 244.166 384.524 228.268C384.633 228.178 384.794 228.192 384.888 228.302C384.976 228.411 384.966 228.573 384.857 228.664C365.807 244.566 327.531 274.405 313.87 284.705C311.607 286.409 308.403 287.342 305.443 287.342Z" fill="#183F4F"/>
<path d="M348.261 199.671C346.326 196.708 344.005 193.941 342.721 190.606C341.306 186.923 341.087 182.917 340.676 179.033C340.016 172.821 338.58 166.99 333.664 162.769C329.055 158.815 323.14 156.868 317.85 154.046C311.457 150.634 306.915 145.561 304.247 138.811C301.724 132.433 300.777 125.549 300.163 118.759C298.727 102.963 294.581 67.7244 272.624 69.3328C265.507 69.8541 258.875 72.7047 253.361 77.1826C247.966 81.57 243.534 86.849 237.281 90.1398C230.586 93.6667 223.08 93.7915 216.421 90.0586C210.054 86.4848 206.621 80.7397 204.202 74.0656C202.979 70.7009 201.268 60.2491 196.154 61.0055C194.802 61.2057 193.642 62.0708 192.633 63.0025C190.26 65.2024 187.212 68.7414 183.581 67.3394C181.355 66.4764 181.037 58.8061 180.652 56.8866C177.75 42.5041 170.134 28.8192 158.534 19.5035C147.152 10.3662 128.404 2.56366 114.301 9.74033C112.538 10.6392 110.888 11.7577 109.38 13.0415C98.1956 22.5653 98.102 40.1834 97.8471 53.6035C97.6858 61.8659 97.7067 70.1964 96.1981 78.3515C95.1889 83.8069 91.1365 98.5196 82.6936 93.5351C80.1291 92.0203 78.4385 89.3355 75.2341 89.089C72.6799 88.8918 70.1725 90.2318 68.5339 92.1274C64.1954 97.1385 64.8196 105.936 65.1265 112.092C65.86 126.928 70.7603 141.616 79.2603 153.813C83.0162 159.198 87.7813 164.171 94.4294 165.624C101.041 167.069 108.027 165.181 113.739 161.78C119.009 158.643 123.378 154.286 127.509 149.787C128.019 149.93 128.695 149.505 128.518 148.827C128.508 148.788 128.502 148.749 128.492 148.71C129.033 148.114 129.574 147.518 130.11 146.923C130.474 146.517 130.297 146.015 129.954 145.768C130.183 145.575 130.412 145.403 130.63 145.26C131.608 144.611 132.747 144.21 133.835 143.778C135.65 143.054 137.502 142.422 139.38 141.879C143.51 140.688 147.76 139.949 152.047 139.66C160.12 139.115 168.246 140.183 175.893 142.832C183.857 145.591 191.181 149.905 198.261 154.424C205.674 159.159 213.004 164.036 220.37 168.85C235.32 178.625 249.927 185.529 264.878 195.304C278.325 204.095 273.758 192.95 289.509 197.072C296.558 198.917 322.563 223.217 329.804 222.218C336.15 221.343 343.496 219.214 348.219 214.64C352.854 210.153 351.429 204.526 348.261 199.671Z" fill="#6A91CC"/>
<path d="M336.957 191.878C336.494 190.022 336.15 188.092 335.963 186.051C334.283 167.876 341.846 147.984 331.989 131.181C328.191 124.704 319.696 117.511 312.257 119.739C304.912 121.938 303.731 133.781 303.388 140.688C302.894 150.598 304.309 161.21 300.745 170.555C299.518 173.773 297.536 177.295 294.383 178.535C291.756 179.566 288.802 178.763 286.133 177.721C281.805 176.029 277.581 173.696 273.024 173.225C272.171 173.136 270.969 173.504 271.131 174.426C271.25 175.123 272.062 175.334 272.712 175.414C282.445 176.624 289.79 183.705 297.13 190.245C305.089 197.335 313.532 203.727 321.912 210.196C327.499 214.511 335.458 222.177 342.174 216.048C344.645 213.796 345.295 210.556 343.625 207.469C340.822 202.284 338.34 197.41 336.957 191.878Z" fill="#8BB2D9"/>
<path d="M347.647 204.575C345.899 205.781 344.24 207.292 343.725 207.761C341.919 209.398 331.203 213.558 327.853 214.878C324.815 216.074 316.934 217.682 318.771 221.637C318.89 221.891 318.932 224.141 319.145 224.129C321.491 226.372 328.68 232.359 331.885 233.193C334.267 233.813 339.636 226.063 340.817 223.862C342.46 220.784 345.046 218.044 347.392 215.483C350.066 212.568 352.953 208.826 352.688 204.639C352.516 201.895 349.998 202.959 347.647 204.575Z" fill="white"/>
<path d="M152.224 131.764C151.189 130.877 149.748 130.371 148.671 129.612C146.725 128.236 145.336 126.176 143.583 124.583C140.004 121.334 136.066 118.489 131.868 116.094C129.772 114.896 127.608 113.811 125.392 112.845C124.315 112.374 120.544 111.65 120.185 110.386C120.164 110.325 120.143 110.264 120.096 110.205C119.467 109.401 118.281 108.201 117.131 108.29C116.049 108.373 115.466 109.54 114.972 110.335C114.155 111.653 112.434 112.244 111.154 113.013C107.58 115.165 93.5244 123.555 85.3624 134.323C84.6914 135.208 84.0932 136.102 83.3025 136.876C82.7563 137.415 81.5338 138.279 81.4089 139.055C81.1956 140.352 82.6418 141.396 83.396 142.211C89.9662 149.271 98.3414 162.367 107.658 166.202C114.145 168.874 121.875 170.706 128.809 171.849C130.505 172.129 133.346 168.773 134.563 167.962C140.155 164.228 141.908 160.504 144.941 154.568C146.47 151.578 147.729 148.454 148.78 145.266C149.727 142.38 150.06 138.699 151.995 136.277C152.713 135.378 153.753 134.002 153.118 132.838C152.89 132.418 152.583 132.068 152.224 131.764Z" fill="#F5EBE1"/>
<path d="M147.245 140.771C145.404 138.781 143.198 137.198 140.878 135.811C137.252 133.647 131.567 130.3 127.54 133.206C123.81 135.898 121.542 140.883 120.075 145.118C118 151.115 118.026 157.343 119.009 163.545C119.243 165.008 119.529 166.489 119.893 167.955C123.649 168.947 127.478 169.732 131.093 170.327C132.789 170.607 135.629 167.252 136.847 166.441C142.444 162.707 144.192 158.982 147.23 153.046C148.562 150.432 149.685 147.713 150.647 144.941C149.555 143.518 148.468 142.089 147.245 140.771Z" fill="#183F4F"/>
<path d="M167.705 115.899C167.575 115.649 167.408 115.389 167.2 115.118C166.269 113.893 164.958 112.943 164.178 111.601C162.425 108.585 161.364 105.286 159.475 102.308C157.483 99.1614 155.21 96.1957 152.707 93.4397C151.365 91.965 149.935 90.5719 148.437 89.2584C146.97 87.9719 145.279 86.931 143.859 85.6144C142.553 84.4007 142.616 82.205 141.18 81.112C138.548 79.114 133.413 82.5254 130.849 83.4462C126.812 84.8939 122.671 86.0383 118.712 87.692C113.765 89.7567 109.193 92.5793 104.672 95.4274C100.771 97.8827 97.66 101.546 93.3631 103.367C92.432 103.76 90.6685 104.139 90.1743 105.1C89.5344 106.335 90.7465 108.018 91.1835 109.154C91.8181 110.817 92.4527 112.484 93.0717 114.154C95.1369 119.7 96.6664 125.121 100.204 129.983C102.82 133.586 106.087 136.722 109.812 139.164C113.89 141.838 118.088 144.397 122.442 146.631C124.497 147.687 125.621 148.253 127.884 147.594C129.501 147.121 131.026 146.285 132.669 145.897C140.342 144.083 143.869 140.974 149.758 136.104C152.728 133.651 155.459 130.973 157.998 128.16C160.297 125.615 162.284 122.069 165.437 120.318C167.429 119.211 168.719 117.868 167.705 115.899Z" fill="#4D3144"/>
<path d="M128.061 142.925C127.592 141.117 127.01 139.354 126.63 137.53C123.441 139.066 121.001 141.285 120.003 145.338C120.705 145.718 121.735 146.267 122.442 146.631C124.497 147.687 125.621 148.253 127.884 147.594C128.196 147.503 128.503 147.396 128.804 147.284C128.607 145.821 128.435 144.354 128.061 142.925Z" fill="#183F4F"/>
<path d="M153.597 107.175C151.511 106.908 149.68 105.849 147.911 106.761C149.425 107.899 150.132 109.948 151.199 111.535C153.987 115.696 158.867 113.487 162.68 112.238C163.132 112.089 163.689 111.903 164.225 111.672C164.209 111.648 164.193 111.626 164.178 111.601C163.309 110.108 162.612 108.547 161.899 106.99C161.046 106.83 160.167 106.781 159.335 106.824C157.426 106.923 155.517 107.42 153.597 107.175Z" fill="#183F4F"/>
<path d="M160.911 118.657C159.652 115.028 156.245 112.609 153.347 110.359C149.597 107.45 138.418 110.822 135.557 107.127C130.448 100.526 129.907 90.8813 129.652 81.3153C129.522 76.3183 130.646 71.2922 130.911 66.3014C131.166 61.4646 131 56.5564 129.871 51.8268C129.012 48.201 127.369 44.4416 123.842 42.7088C120.954 41.2892 117.729 42.0039 115.44 44.1799C112.558 46.9198 111.955 50.9804 111.913 54.7784C111.851 60.0819 112.486 65.3811 113.084 70.6419C113.661 75.6676 114.031 80.2635 110.478 84.3284C107.793 87.3965 104.953 90.1031 103.06 93.7793C99.3298 101.031 99.6524 110.866 106.732 116.006C110.681 118.873 115.544 120.087 119.503 123.028C122.76 125.447 125.491 128.432 127.691 131.802C127.28 131.991 127.015 132.408 127.265 132.95C130.958 141.057 141.653 137.078 147.526 134.198C153.03 131.501 163.663 126.582 160.911 118.657Z" fill="#8BB2D9"/>
<path d="M258.167 163.524C255.036 159.338 251.316 155.544 248.773 150.943C245.36 144.762 245.901 137.318 243.987 130.668C241.505 122.06 234.264 117.412 225.364 118.313C220.687 118.787 216.265 120.718 212.754 123.838C210.512 125.828 208.624 128.103 205.326 127.8C202.178 127.51 199.739 125.409 198.027 122.882C194.745 118.038 192.945 111.785 191.571 106.157C190.411 101.397 190.349 96.0451 188.268 91.5485C186.77 88.3103 182.385 84.3427 178.821 87.35C174.826 90.7167 175.591 97.252 174.54 101.813C173.937 104.412 172.865 106.882 170.399 108.202C167.268 109.876 163.897 108.717 160.604 109.38C156.276 110.252 152.843 113.347 151.168 117.333C149.924 117.319 149.919 119.139 151.027 119.368C151.355 119.629 151.865 119.692 152.26 119.486C155.1 119.929 157.623 121.904 160.001 123.384C162.565 124.974 165.109 126.585 167.606 128.275C172.595 131.653 177.198 135.473 181.729 139.433C190.235 146.868 198.662 153.801 209.227 158.109C220.125 162.55 231.752 165.213 243.066 168.342C246.156 169.196 249.241 170.05 252.331 170.903C254.318 171.453 256.732 172.514 258.854 172.059C263.801 170.999 259.796 165.706 258.167 163.524Z" fill="#8BB2D9"/>
<path d="M158.492 114.972C157.577 110.366 153.202 109.932 150.512 106.822C149.586 105.752 148.858 104.677 147.563 104.066C145.586 103.135 143.386 103.862 141.414 103.158C138.855 102.245 138.948 98.3195 137.83 96.2397C136.972 94.6365 135.718 93.3994 134.126 92.5686C129.756 90.2891 124.544 90.9586 120.258 93.0764C118.062 94.1584 116.049 95.6196 114.353 97.3774C112.736 99.0498 110.452 101.696 110.816 104.189C111.061 105.829 112.429 107.008 112.787 108.601C113.204 110.449 112.47 112.377 111.888 114.1C111.029 116.625 110.603 119.561 112.002 122.004C113.308 124.278 115.321 124.172 117.636 124.295C118.702 124.352 120.403 124.191 121.329 124.826C122.614 125.703 123.244 127.752 122.874 129.35C122.458 131.154 121.444 132.711 121.246 134.598C120.663 140.043 125.148 141.328 129.491 140.399C130.75 142.45 133.247 142.399 135.39 141.402C140.134 139.193 144.639 135.851 149.025 132.975C152.011 131.015 155.912 129.021 157.712 125.698C158.513 124.221 158.445 123.085 158.315 121.51C158.133 119.29 158.934 117.189 158.492 114.972Z" fill="#B65A59"/>
<path d="M212.479 129.286C209.602 126.167 205.997 123.783 202.283 121.662C192.721 116.202 183.842 110.18 172.855 108.319C172.309 108.228 171.112 109.452 171.357 109.777C170.55 114.125 172.012 118.112 173.292 122.241C174.452 125.981 175.04 129.88 177.558 133.014C180.044 136.11 183.592 138.14 187.072 139.925C191.15 142.015 195.385 143.908 199.812 145.133C203.817 146.241 208.452 147.058 212.593 146.291C218.3 145.233 217.753 137.276 215.579 133.484C214.695 131.943 213.644 130.554 212.479 129.286Z" fill="white"/>
<path d="M310.151 236.252C309.964 236.171 311.15 236.584 307.295 232.866C305.043 232.082 288.079 245.127 288.115 246.244C288.115 246.244 291.351 248.635 293.983 249.573C295.206 250.009 297.937 249.011 298.972 248.597C300.428 248.016 301.911 247.213 302.889 245.95C304.756 243.54 312.991 237.513 310.151 236.252Z" fill="#6D9147"/>
<path d="M334.158 212.156C336.947 210.136 284.479 174.789 277.092 170.052C269.695 165.305 222.914 146.308 212.785 144.256C212.749 144.225 212.723 144.178 212.671 144.166C208.478 143.087 204.738 142.057 201.284 140.524C200.353 140.11 193.606 148.36 191.556 153.715C191.26 154.482 196.311 163.649 199.265 165.723C212.213 174.81 226.165 181.424 240.642 187.625C250.755 191.961 260.81 196.356 270.47 201.636C280.916 207.348 291.003 213.695 301.464 219.383C307.087 222.441 312.872 225.58 318.89 227.806C322.99 229.324 321.902 221.049 334.158 212.156Z" fill="#FFE68F"/>
<path d="M317.98 226.922C316.607 228.367 315.379 230.075 314.994 230.605C313.652 232.457 306.161 236.61 303.342 238.469C300.782 240.154 295.908 245.043 296.246 245.212C298.967 246.57 301.469 248.325 304.018 249.972C305.5 250.929 306.973 252.115 308.726 252.52C310.437 252.915 312.398 252.047 313.839 251.153C316.123 249.735 315.847 247.939 316.503 245.685C317.418 242.541 321.034 238.651 322.693 235.847C324.581 232.654 325.601 227.334 323.577 224.998C321.887 223.049 319.821 224.984 317.98 226.922Z" fill="white"/>
<path d="M293.473 249.37C293.947 249.648 294.55 249.461 294.8 248.97C296.366 245.864 295.559 244.257 303.773 238.241C304.231 237.907 308.044 235.512 309.116 234.868C309.308 234.751 309.142 234.603 308.975 234.45C306.203 231.913 303.445 228.922 300.657 226.467C295.408 221.846 290.144 217.24 284.874 212.648C274.819 203.889 265.143 195.22 253.61 188.432C245.1 183.426 236.584 178.424 228.074 173.42C221.192 169.376 214.315 165.331 207.432 161.287C207.172 161.088 206.902 160.899 206.642 160.699C202.215 157.328 198.011 152.832 192.612 151.046C182.286 147.628 172.595 156.021 172.714 166.115C172.719 166.582 172.189 166.852 171.814 166.549C170.826 165.74 167.965 169.065 168.958 169.881C171.008 171.558 173.151 173.096 175.383 174.508C175.934 174.856 176.756 175.524 177.198 176.005C187.165 186.851 190.151 193.662 206.584 201.656C215.573 206.031 227.694 211.226 236.73 215.524C246.104 219.984 260.17 230.422 269.253 235.445C276.686 239.554 290.024 247.35 293.473 249.37Z" fill="#FFE68F"/>
<path d="M187.16 182.149C186.64 178.365 186.687 174.361 187.139 170.575C187.566 167.044 188.372 163.382 190.385 160.395C192.206 157.694 194.713 155.248 194.771 151.927C194.068 151.591 193.356 151.291 192.612 151.046C182.286 147.628 172.595 156.021 172.714 166.115C172.719 166.582 172.189 166.852 171.814 166.548C170.826 165.74 167.965 169.065 168.958 169.881C171.008 171.557 173.151 173.096 175.383 174.507C175.934 174.856 176.756 175.524 177.198 176.005C181.584 180.779 184.622 184.771 188.045 188.427C188.398 186.51 187.405 183.935 187.16 182.149Z" fill="#183F4F"/>
<path d="M149.253 114.731C147.037 114.241 145.102 112.465 143.385 111.063C141.705 109.696 140.124 108.227 138.594 106.695C138.017 106.115 137.231 106.444 136.94 107.001C133.018 107.258 129.277 108.304 125.771 110.148C124.97 110.568 125.189 111.534 125.782 111.908C125.86 112.031 125.969 112.143 126.125 112.234C131.493 115.391 135.218 118.291 139.042 123.181C139.036 124.376 139.468 125.87 140.352 126.127C142.964 126.886 145.013 125.466 146.907 123.808C148.759 122.187 150.47 120.335 150.876 117.821C151.017 116.938 150.21 114.944 149.253 114.731Z" fill="#FCAC86"/>
<path d="M141.403 103.475C140.134 99.889 136.446 95.7497 132.914 94.0435C129.527 92.4101 124.632 91.8431 121.625 94.5439C118.608 97.2583 117.583 102.249 118.712 106.065C119.529 108.821 121.126 110.302 123.815 111.179C126.52 112.06 129.033 113.88 131.899 114.408C135.021 114.982 136.893 113.521 138.875 111.178C141.029 108.626 142.413 106.312 141.403 103.475Z" fill="#FCAC86"/>
<path d="M134.111 94.0191C133.372 94.1413 132.295 94.5429 131.973 95.4637C131.686 96.2794 132.342 96.7439 132.945 96.7673C133.757 96.7985 135.447 95.7841 135.718 94.7796C135.957 93.876 134.506 93.9535 134.111 94.0191Z" fill="#B65A59"/>
<path d="M124.154 101.331C125.189 101.604 127.431 100.04 127.904 99.094C128.253 98.3959 127.935 97.6005 127.056 97.4569C126.058 97.2941 125.048 98.2867 124.487 99.0602C124.185 99.4748 123.222 101.085 124.154 101.331Z" fill="#B65A59"/>
<path d="M136.181 97.3787C135.801 98.0789 135.296 98.5502 134.537 98.4123C134.168 98.3452 134.136 98.9175 134.506 98.9846C135.619 99.1859 136.576 98.4607 136.769 97.412C136.836 97.0505 136.358 97.0588 136.181 97.3787Z" fill="#183F4F"/>
<path d="M128.991 101.24C128.471 102.127 127.707 102.436 126.526 102.729C126.193 102.812 126.146 103.282 126.494 103.27C127.717 103.229 129.049 102.723 129.439 101.539C129.553 101.208 129.168 100.938 128.991 101.24Z" fill="#183F4F"/>
<path d="M124.669 92.1831C120.731 93.2183 117.802 95.2565 116.45 99.1736C115.175 102.862 114.577 106.888 116.418 110.508C117.095 111.827 118.161 113.271 119.618 113.793C120.122 113.974 120.71 114.062 121.241 113.986C121.792 113.907 122.999 112.915 123.451 113.002C123.722 113.321 124.414 113.056 124.346 112.509C123.998 109.769 126.443 107.824 126.198 105.2C125.98 102.839 123.181 102.005 123.982 99.3764C124.403 97.9917 125.345 97.1463 124.69 95.5961C124.669 95.5504 124.648 95.5056 124.627 95.4614C124.393 94.9724 124.71 94.3976 125.251 94.3367C126.838 94.1578 128.237 95.3501 129.98 95.3766C130.568 95.386 131.192 95.1025 131.754 95.0099C133.627 94.7045 135.177 95.0884 136.732 96.146C137.278 96.5184 129.507 90.9097 124.669 92.1831Z" fill="#B65A59"/>
<path d="M129.34 131.748C128.716 130.296 128.503 128.76 128.539 127.186C128.575 125.825 128.882 124.473 128.846 123.112C128.794 121.111 127.639 119.527 125.886 118.623C124.84 118.085 123.68 117.827 122.526 117.657C120.996 117.43 119.253 117.412 118.504 115.802C117.937 114.579 118.125 112.993 118.119 111.675C118.114 110.152 118.104 108.63 118.099 107.107C118.099 106.758 117.558 106.75 117.558 107.1C117.563 108.622 117.568 110.144 117.573 111.667C117.578 112.844 117.485 114.086 117.75 115.244C118.239 117.423 119.987 117.858 121.959 118.124C123.587 118.342 125.246 118.677 126.567 119.711C128.071 120.887 128.409 122.505 128.243 124.335C128.003 126.998 127.785 129.495 128.867 132.015C129.007 132.335 129.481 132.066 129.34 131.748Z" fill="#73302F"/>
<path d="M178.707 177.091C184.044 167.552 196.311 149.986 204.878 143.243C205.804 142.513 205.919 141.15 205.123 140.282C203.12 138.1 196.201 136.591 195.093 135.096C192.175 131.154 189.111 126.823 183.883 123.981C183.009 123.503 182.598 122.46 182.936 121.521C183.691 119.45 184.356 117.348 184.934 115.213C185.064 114.742 184.793 114.395 184.44 114.257C184.429 114.25 184.429 114.243 184.419 114.236C179.321 110.064 174.405 107.698 167.679 107.951C164.147 108.083 160.635 108.593 157.197 109.41C155.449 109.824 153.722 110.32 152.021 110.888C151.105 111.194 147.979 111.792 147.75 112.858C147.672 113.238 147.792 113.629 147.911 114C148.431 115.606 147.292 117.127 146.632 118.756C146.184 119.869 146.533 121.416 145.399 121.962C144.109 122.585 143.073 123.426 141.601 123.568C140.478 123.676 139.323 123.519 138.267 123.114C137.554 122.841 136.399 121.618 135.687 122.461C124.237 135.963 119.966 142.684 124.601 157.44C124.731 157.847 125.147 157.909 125.459 157.822C125.688 157.99 125.99 158.06 126.313 157.92C128.081 157.154 131.228 157.556 133.08 157.266C133.569 157.19 134.074 157.312 134.485 157.586C137.757 159.758 140.306 161.776 143.734 164.191C155.043 172.156 168.147 183.23 175.243 181.6C176.876 181.225 178.348 177.725 178.707 177.091Z" fill="white"/>
<path d="M164.053 170.9C161.624 171.396 159.069 172.265 157.093 173.829C162.373 177.503 167.403 180.557 171.435 181.476C171.601 180.662 171.762 179.845 171.887 179.021C172.205 176.894 172.605 174.229 171.674 172.201C170.446 169.533 166.331 170.434 164.053 170.9Z" fill="#183F4F"/>
<path d="M147.547 125.247C147.573 125.098 147.557 124.939 147.526 124.791C147.38 124.15 146.725 118.512 145.908 118.734C142.948 119.538 138.88 119.699 135.816 119.728C135.26 119.733 134.214 124.886 136.69 125.681C139.733 126.655 144.108 127.402 147.063 125.819C147.188 125.754 147.313 125.686 147.401 125.58C147.484 125.484 147.531 125.369 147.547 125.247Z" fill="#FFE68F"/>
<path d="M163.429 167.49C163.21 165.034 162.555 160.66 158.939 162.093C155.73 163.364 156.255 167.965 155.855 170.716C155.688 171.863 155.293 173.238 154.169 173.513C153.535 173.667 152.739 173.443 152.312 173.932C151.896 174.402 152.182 175.135 152.52 175.662C153.816 177.677 155.548 179.132 158.034 179.011C160.557 178.888 163.746 177.742 164.126 174.946C164.454 172.549 163.642 169.879 163.429 167.49Z" fill="#6D9147"/>
<path d="M198.225 138.606C196.664 136.54 195.098 134.475 193.538 132.409C192.144 130.572 190.822 128.623 189.179 127C186.13 123.987 181.932 122.924 177.88 121.976C177.542 121.897 177.386 122.417 177.729 122.497C182.031 123.505 186.344 124.652 189.423 128.04C192.497 131.419 195.083 135.344 197.835 138.984C198.048 139.262 198.433 138.881 198.225 138.606Z" fill="#183F4F"/>
<path d="M123.784 110.75C122.707 109.91 122.125 108.829 121.974 107.486C121.906 106.897 121.927 106.283 121.709 105.72C121.433 105.025 120.923 104.691 120.434 104.16C119.503 103.149 119.264 102.032 119.794 100.747C119.93 100.424 119.404 100.275 119.274 100.595C118.915 101.468 118.848 102.38 119.196 103.276C119.581 104.281 120.559 104.718 121.069 105.617C121.651 106.647 121.355 108.041 121.833 109.15C122.203 110.004 122.78 110.65 123.503 111.214C123.779 111.429 124.055 110.962 123.784 110.75Z" fill="#73302F"/>
<path d="M151.995 113.844C151.74 113.312 150.908 111.794 150.471 111.574C149.259 110.963 145.737 111.61 145.279 112.126C144.931 112.326 145.04 112.75 145.263 113.226C145.96 114.713 146.538 117.193 146.018 118.917C145.664 120.091 147.375 119.487 147.989 119.448C149.363 119.361 150.902 119.8 152.25 119.83C155.314 119.899 152.005 113.864 151.995 113.844Z" fill="#FFE68F"/>
<path d="M210.424 141.024C209.81 137.978 206.033 136.386 203.209 135.906C203.188 135.899 203.167 135.899 203.151 135.895C203.12 135.89 203.089 135.887 203.058 135.882C203 135.844 202.928 135.817 202.844 135.806C200.233 135.453 196.997 135.968 194.526 136.716C191.567 137.611 188.924 139.379 186.515 141.346C185.756 141.965 184.133 143.006 185.038 144.111C185.371 144.522 185.87 144.658 186.411 144.641C185.579 145.82 184.887 147.07 184.169 148.323C184.081 148.478 184.05 148.658 184.076 148.834C184.18 149.479 184.284 150.204 184.97 150.471C185.319 150.607 187.29 150.412 187.27 149.882C187.301 150.624 187.962 151.842 188.846 151.813C189.756 151.783 190.916 150.283 191.327 149.593C191.728 151.06 192.919 151.409 194.131 150.523C194.402 150.322 194.651 150.087 194.88 149.836C195.151 150.978 196.004 151.63 197.336 150.71C198.47 149.923 199.369 148.87 200.285 147.848C201.253 146.767 202.267 146.036 203.359 145.161C204.982 143.856 206.897 143.242 208.884 142.728C209.878 142.472 210.668 142.222 210.424 141.024Z" fill="#FCAC86"/>
<path d="M127.124 110.66C125.98 109.976 124.003 109.651 122.645 109.929C120.835 110.3 120.996 112.323 122.432 112.935C123.446 113.369 124.591 113.562 125.725 113.489C127.332 113.386 128.955 111.75 127.124 110.66Z" fill="#FCAC86"/>
<path d="M192.393 142.77C189.792 144.032 188.268 146.425 187.264 149.053C187.139 149.38 187.66 149.529 187.784 149.204C188.736 146.705 190.188 144.441 192.664 143.243C192.976 143.091 192.711 142.618 192.393 142.77Z" fill="#CF6B59"/>
<path d="M206.199 146.44C201.643 149.546 197.549 153.246 194.011 157.481C193.793 157.746 194.167 158.138 194.391 157.87C197.897 153.672 201.949 149.992 206.47 146.912C206.756 146.717 206.491 146.242 206.199 146.44Z" fill="#183F4F"/>
<path d="M194.344 144.612C192.997 145.777 191.988 147.208 191.322 148.858C191.192 149.182 191.712 149.33 191.842 149.01C192.472 147.449 193.45 146.101 194.724 145.002C194.984 144.773 194.61 144.384 194.344 144.612Z" fill="#CF6B59"/>
<path d="M196.956 145.892C195.962 146.811 195.218 147.914 194.719 149.169C194.589 149.494 195.109 149.642 195.239 149.321C195.702 148.155 196.415 147.134 197.335 146.281C197.59 146.043 197.21 145.654 196.956 145.892Z" fill="#CF6B59"/>
<path d="M157.415 188.508C157.483 181.792 152.791 175.618 150.72 169.359C149.774 164.299 148.697 159.259 148.452 154.095C148.307 150.961 124.684 140.686 124.674 140.706C124.393 140.471 123.311 142.143 123.217 142.594C121.932 148.621 123.134 153.025 124.377 159.007C125.699 165.355 127.379 171.673 129.611 177.762C131.499 182.903 133.21 188.507 137.414 192.286C141.638 196.086 146.985 196.511 152.4 196.018C153.789 195.892 155.236 195.506 156.214 194.51C157.779 192.921 157.394 190.532 157.415 188.508Z" fill="white"/>
<path d="M199.338 152.062C199.338 151.615 199.125 151.312 198.808 151.128C199.442 150.557 199.89 149.757 199.905 148.898C199.926 147.495 198.532 147.44 197.471 147.643C197.471 147.63 197.476 147.619 197.476 147.605C197.413 144.404 191.951 146.904 188.44 148.83C188.331 148.22 187.868 147.528 187.051 147.62C185.912 147.749 182.525 150.289 181.329 151.595C178.613 154.549 177.198 158.501 176.241 162.493C175.919 163.842 175.435 165.148 174.774 166.368C174.03 167.754 173.271 169.133 172.475 170.49C172.428 170.567 172.381 170.646 172.335 170.724C172.184 170.981 172.022 171.26 172.043 171.559C172.074 172.106 172.589 172.143 172.974 171.945C175.237 170.79 177.916 171.484 179.175 173.692C179.929 175.015 180.528 174.607 180.564 174.125C180.772 174.207 181.027 174.175 181.188 173.941C182.088 172.618 182.978 171.285 183.862 169.946C184.034 169.686 184.304 169.503 184.616 169.476C187.176 169.256 188.851 167.468 189.803 165.215C190.365 163.895 190.848 162.551 191.821 161.469C192.851 160.32 194.079 159.284 195.385 158.465C196.446 157.801 198.625 157.119 198.906 155.669C199.146 154.46 198.605 154.023 197.736 154.002C198.422 153.523 199.333 152.922 199.338 152.062Z" fill="#FCAC86"/>
<path d="M181.656 167.825C180.106 165.71 178.312 163.773 175.591 163.517C175.237 163.484 175.06 163.748 175.065 164.024C171.492 167.997 160.001 178.363 156.879 178.709C154.97 178.921 153.748 176.547 151.995 172.613C151.995 172.613 146.663 174.252 146.226 174.722C146.153 174.803 146.08 174.887 146.002 174.969C145.815 175.032 145.674 175.202 145.622 175.39C143.37 177.919 141.435 180.693 139.947 183.751C139.198 185.298 135.359 183.281 133.574 187.356C141.835 202.691 153.633 199.565 160.177 197.894C169.889 195.412 184.986 178.357 185.079 175.809C185.178 173.148 183.144 169.857 181.656 167.825Z" fill="white"/>
<path d="M205.206 123.417C201.716 121.482 195.208 133.47 199.64 135.612C199.604 135.422 201.638 135.697 201.757 135.738C202.792 136.095 203.718 136.767 204.54 137.475C205.747 138.51 206.403 139.559 206.959 141.039C207.365 142.123 207.859 143.191 208.967 143.679C209.789 144.043 210.673 144.3 211.537 144.546C212.744 144.887 213.946 145.257 215.184 145.456C215.927 145.576 217.982 146.316 218.622 144.825C221.338 139.857 221.733 132.569 205.206 123.417Z" fill="white"/>
<path d="M208.644 131.666C205.419 132.402 202.407 133.718 199.676 135.578C199.853 135.638 200.025 135.699 200.196 135.763C200.269 135.79 200.347 135.781 200.415 135.739C202.979 134.07 205.778 132.875 208.78 132.191C209.118 132.114 208.983 131.588 208.644 131.666Z" fill="#183F4F"/>
<path d="M125.179 110.837C124.138 110.746 123.035 110.729 122.25 111.529C122.005 111.778 122.385 112.168 122.63 111.918C123.306 111.228 124.284 111.303 125.173 111.379C125.522 111.409 125.527 110.867 125.179 110.837Z" fill="#CF6B59"/>
<path d="M134.74 99.3147C134.324 98.7945 133.382 98.4845 132.742 98.6317C132.404 98.7102 132.513 99.2409 132.857 99.1623C133.289 99.0629 134.136 99.3178 134.365 99.7288C134.599 100.151 134.319 100.855 134.23 101.293C134.163 101.631 134.678 101.808 134.745 101.467C134.88 100.799 135.218 99.9176 134.74 99.3147Z" fill="#CF6B59"/>
<path d="M133.054 100.695C132.617 101.031 132.295 101.459 132.071 101.956C131.925 102.274 132.44 102.444 132.586 102.129C132.773 101.717 133.059 101.376 133.413 101.1C133.689 100.885 133.325 100.482 133.054 100.695Z" fill="#CF6B59"/>
<path d="M135.926 112.465C133.569 113.59 131.072 113.188 128.674 112.414C128.341 112.307 128.19 112.828 128.523 112.935C131.072 113.758 133.699 114.128 136.191 112.937C136.508 112.787 136.238 112.315 135.926 112.465Z" fill="#CF6B59"/>
<path d="M130.927 118.135C130.209 116.984 128.659 116.46 127.509 115.865C127.202 115.704 126.921 116.169 127.228 116.329C128.534 117.007 130.308 117.595 130.75 119.143C131.114 120.426 131.14 121.895 131.317 123.217C131.364 123.562 131.884 123.423 131.842 123.08C131.645 121.59 131.743 119.441 130.927 118.135Z" fill="#73302F"/>
<path d="M122.916 93.8189C120.648 94.2772 119.93 96.5884 119.477 98.5673C119.404 98.907 119.925 99.0599 120.003 98.7192C120.408 96.9312 120.981 94.763 123.051 94.3443C123.394 94.2751 123.254 93.7497 122.916 93.8189Z" fill="#73302F"/>
<path d="M148.317 109.852C147.5 109.621 146.548 109.624 145.919 108.978C145.482 108.525 145.242 107.904 144.873 107.398C144.27 106.561 143.469 106.154 142.428 106.22C142.085 106.242 142.074 106.784 142.423 106.762C144.223 106.649 144.493 108.161 145.435 109.243C146.163 110.076 147.162 110.091 148.161 110.374C148.499 110.468 148.65 109.947 148.317 109.852Z" fill="#73302F"/>
<path d="M199.952 147.633C199.385 147.124 198.62 147.075 197.845 147.226C198.5 144.908 194.016 146.062 193.127 146.353C191.519 146.878 190.021 147.642 188.617 148.553C187.8 146.555 185.678 147.699 184.439 148.651C184.159 148.864 184.538 149.251 184.814 149.041C185.688 148.373 187.509 147.157 188.117 148.746C188.133 148.785 188.154 148.816 188.175 148.842C187.134 149.549 186.14 150.332 185.199 151.165C184.934 151.397 185.313 151.785 185.574 151.554C187.134 150.179 188.804 148.933 190.656 147.978C191.561 147.512 192.503 147.112 193.475 146.808C194.011 146.641 197.939 145.557 197.236 147.322C197.231 147.344 197.231 147.363 197.226 147.383C196.597 147.579 195.998 147.862 195.525 148.095C193.324 149.191 191.244 150.563 189.267 152.023C188.991 152.228 189.251 152.703 189.532 152.496C190.947 151.45 192.409 150.474 193.933 149.588C195.15 148.879 198.214 146.795 199.562 148.011C199.817 148.244 200.212 147.868 199.952 147.633Z" fill="#CF6B59"/>
<path d="M198.313 150.96C195.983 151.659 193.834 152.726 191.873 154.168C191.598 154.372 191.863 154.848 192.144 154.64C194.063 153.226 196.16 152.172 198.449 151.485C198.782 151.385 198.646 150.859 198.313 150.96Z" fill="#CF6B59"/>
<path d="M197.393 153.975C196.056 154.58 194.812 155.333 193.642 156.225C193.366 156.438 193.746 156.825 194.022 156.614C195.151 155.751 196.368 155.032 197.663 154.447C197.98 154.303 197.71 153.831 197.393 153.975Z" fill="#CF6B59"/>
<path d="M190.953 140.419C189.309 141.141 187.93 142.26 186.869 143.705C186.666 143.987 187.129 144.265 187.337 143.986C188.341 142.616 189.662 141.574 191.218 140.892C191.535 140.751 191.27 140.279 190.953 140.419Z" fill="#CF6B59"/>
<path d="M213.847 167.289C213.826 165.578 213.68 163.87 213.404 162.167C213.352 161.822 212.827 161.96 212.879 162.303C213.134 163.865 213.269 165.431 213.305 167C213.508 167.049 213.696 167.142 213.847 167.289Z" fill="#183F4F"/>
<path d="M273.862 203.597C259.369 191.809 242.951 182.799 226.612 173.876C222.201 171.465 217.784 169.054 213.368 166.643C213.383 166.853 213.394 167.063 213.399 167.272C229.307 175.917 245.49 184.285 260.518 194.41C264.971 197.411 269.305 200.586 273.471 203.975C273.742 204.193 274.132 203.817 273.862 203.597Z" fill="#183F4F"/>
<path d="M178.27 135.936C178.265 135.587 177.719 135.578 177.724 135.928C177.802 140.928 177.047 145.862 175.482 150.611C175.372 150.944 175.893 151.094 176.002 150.763C177.583 145.967 178.343 140.984 178.27 135.936Z" fill="#183F4F"/>
<path d="M146.605 150.628C146.434 150.323 145.96 150.589 146.132 150.895C148.764 155.595 150.205 160.805 150.356 166.19C150.361 166.538 150.907 166.548 150.897 166.198C150.746 160.721 149.284 155.408 146.605 150.628Z" fill="#183F4F"/>
<path d="M155.256 179.752C153.446 180.924 151.885 182.37 150.574 184.077C150.361 184.353 150.829 184.632 151.037 184.357C152.291 182.728 153.794 181.343 155.521 180.224C155.813 180.035 155.548 179.561 155.256 179.752Z" fill="#183F4F"/>
<path d="M174.624 163.579C172.87 165.358 171.164 167.174 169.494 169.029C169.26 169.287 169.64 169.678 169.874 169.418C171.544 167.563 173.25 165.747 174.998 163.969C175.248 163.719 174.868 163.33 174.624 163.579Z" fill="#183F4F"/>
<path d="M299.247 191.445C294.935 186.626 290.352 182.068 285.504 177.787C285.244 177.557 284.853 177.934 285.119 178.165C289.962 182.446 294.55 187.004 298.857 191.823C299.091 192.083 299.481 191.705 299.247 191.445Z" fill="#183F4F"/>
<path d="M319.749 230.171C317.049 235.693 310.926 239.583 310.588 246.166C310.572 246.515 311.113 246.522 311.134 246.174C311.457 239.734 317.564 235.87 320.217 230.452C320.368 230.14 319.905 229.857 319.749 230.171Z" fill="#183F4F"/>
<path d="M340.359 216.895C337.492 220.934 331.13 223.687 331.926 229.516C331.973 229.861 332.499 229.722 332.452 229.38C331.697 223.86 338.091 221.023 340.827 217.175C341.025 216.89 340.562 216.612 340.359 216.895Z" fill="#183F4F"/>
<path d="M136.17 103.083C135.749 102.943 135.343 103.238 135.041 103.498C134.677 103.814 134.433 104.205 134.365 104.686C134.256 105.458 135.629 104.276 135.728 104.219C135.884 104.133 136.061 104.095 136.227 104.021C136.69 103.808 136.664 103.249 136.17 103.083Z" fill="white"/>
<path d="M268.857 131.806C263.484 132.194 264.124 143.817 266.085 146.801C270.22 153.104 275.927 143.249 275.303 139.08C274.861 136.16 272.369 131.552 268.857 131.806Z" fill="#8BB2D9"/>
<path d="M115.841 171.914C121.183 172.42 122.546 179.027 125.215 183.206C127.603 186.951 131.306 190.221 135.556 191.785C136.925 192.287 138.324 191.141 138.085 189.704C138.074 189.645 138.064 189.587 138.053 189.529C137.492 186.544 135.863 183.828 135.031 180.913C133.179 174.405 133.366 167.554 132.799 160.868C132.508 157.427 132.144 150.065 126.859 150.845C124.143 151.245 123.046 154.344 120.351 154.886C117.698 155.419 114.135 154.427 112.345 152.292C110.498 150.078 110.712 146.724 109.422 144.219C107.617 140.715 104.058 137.974 99.9852 139.291C96.1305 140.537 94.9184 144.027 95.3814 147.753C95.7508 150.76 93.0509 153.081 91.1366 154.969C90.1274 155.965 89.0662 156.962 88.2547 158.136C87.8281 158.755 87.3912 159.415 87.1883 160.152C87.079 160.574 87.2716 162.039 87.1207 162.26C87.1103 162.28 93.8625 169.833 115.841 171.914Z" fill="#6A91CC"/>
<path d="M233.931 211.055C231.866 208.396 229.442 205.066 226.321 203.776C223.84 202.749 221.337 202.865 218.695 202.777C214.975 202.653 211.667 201.247 208.754 198.968C199.936 192.061 195.182 176.55 182.661 175.113C172.954 173.998 166.659 186.79 167.294 194.349C167.492 196.704 183.456 202.901 188.591 202.849C192.321 202.812 195.801 203.102 199.218 204.72C202.147 206.104 204.894 207.85 207.797 209.295C214.476 212.622 221.525 215.231 228.761 217.047C230.498 217.483 236.428 218.868 237.339 216.476C237.958 214.866 235.045 212.474 234.223 211.43C234.129 211.307 234.03 211.182 233.931 211.055Z" fill="#6A91CC"/>
<path d="M192.747 36.1759C192.066 33.2732 188.669 30.7205 186.323 33.655C185.693 34.4415 185.345 35.4148 185.095 36.3907C184.278 39.5962 184.32 43.3374 185.667 46.4004C186.723 48.799 189.334 51.5836 191.478 48.5134C193.829 45.1503 193.642 39.9874 192.747 36.1759Z" fill="#8BB2D9"/>
<path d="M168.303 10.783C163.751 -0.541767 147.209 -5.23552 141.991 8.14504C137.507 19.6357 143.318 33.202 149.888 42.6728C150.897 44.1304 152.026 45.5854 153.586 46.425C160.151 49.9545 164.729 41.2178 166.789 36.5734C168.563 32.5757 170.113 28.4406 170.529 24.0689C170.951 19.5894 169.978 14.9472 168.303 10.783Z" fill="#8BB2D9"/>
<path d="M122.744 169.759C111.627 168.835 101.14 163.264 94.1536 154.573C93.9455 154.318 93.5085 154.589 93.7166 154.848C100.833 163.697 111.445 169.333 122.759 170.274C123.092 170.301 123.071 169.786 122.744 169.759Z" fill="#183F4F"/>
<path d="M146.449 91.3037C143.796 92.9179 141.892 95.393 140.998 98.3664C140.899 98.6848 141.403 98.8034 141.497 98.4871C142.355 95.6395 144.187 93.2846 146.725 91.7396C147.011 91.5674 146.736 91.131 146.449 91.3037Z" fill="#183F4F"/>
<path d="M226.675 211.956C219.246 208.247 211.937 204.299 204.769 200.105C198.75 196.584 191.873 192.973 188.7 186.421C188.554 186.123 188.123 186.399 188.263 186.695C191.332 193.037 197.835 196.624 203.661 200.054C211.105 204.435 218.7 208.552 226.43 212.409C226.727 212.557 226.971 212.104 226.675 211.956Z" fill="#183F4F"/>
<path d="M110.582 121.252C107.965 121.073 105.458 121.639 103.164 122.906C102.873 123.066 103.148 123.502 103.44 123.342C105.661 122.116 108.069 121.594 110.603 121.767C110.93 121.789 110.91 121.274 110.582 121.252Z" fill="#183F4F"/>
<path d="M112.511 124.315C111.56 124.98 110.784 125.839 110.228 126.861C110.072 127.153 110.524 127.398 110.68 127.107C111.195 126.161 111.903 125.366 112.787 124.751C113.058 124.562 112.787 124.125 112.511 124.315Z" fill="#183F4F"/>
<path d="M87.5522 154.699C87.5626 154.368 87.0476 154.368 87.0372 154.699C86.6523 164.199 86.5275 173.707 86.6575 183.213C86.6627 183.544 87.1778 183.545 87.1726 183.213C87.0425 173.707 87.1673 164.199 87.5522 154.699Z" fill="#183F4F"/>
<path d="M231.237 84.8464C224.068 81.0755 216.708 77.6911 209.18 74.702C208.873 74.5798 208.738 75.0776 209.045 75.1988C216.531 78.1718 223.845 81.5411 230.977 85.2912C231.268 85.4457 231.528 85.0015 231.237 84.8464Z" fill="#183F4F"/>
<path d="M378.531 214.144C374.853 209.617 371.758 204.67 368.553 199.806C365.552 195.256 362.353 190.856 358.909 186.634C352.963 179.345 346.414 172.576 339.62 166.07L339.266 166.471C349.649 176.453 359.434 187.02 367.451 199.076C370.92 204.293 374.208 209.639 378.167 214.508C378.38 214.765 378.739 214.399 378.531 214.144Z" fill="#183F4F"/>
<path d="M14.7664 232.218L17.8356 232.392C18.283 232.418 18.6731 232.113 18.7615 231.678C19.5106 227.974 27.6517 184.24 28.8742 178.422C29.0303 177.676 28.1875 177.21 27.7089 177.485C27.7089 177.485 20.4314 178.963 21.373 179.017C21.3678 179.041 21.3573 179.062 21.3521 179.087C21.3521 179.087 14.3763 226.738 13.9289 231.241C13.8769 231.745 14.2618 232.189 14.7664 232.218Z" fill="#183F4F"/>
<path d="M32.6297 210.682L35.6988 210.856C36.141 210.882 36.5363 210.577 36.6247 210.142C37.3686 206.438 45.515 162.703 46.7322 156.885C46.8883 156.14 46.0508 155.673 45.567 155.949C45.567 155.949 38.2894 157.427 39.2309 157.481C39.2257 157.505 39.2206 157.526 39.2154 157.551C39.2154 157.551 32.2342 205.202 31.7921 209.705C31.74 210.209 32.1199 210.653 32.6297 210.682Z" fill="#183F4F"/>
<path d="M67.5301 228.822L64.4557 228.997C64.0136 229.022 63.6183 228.718 63.5298 228.282C62.786 224.579 54.6448 180.843 53.4223 175.025C53.2663 174.281 54.1038 173.814 54.5876 174.09C54.5876 174.09 61.8651 175.567 60.9236 175.622C60.9288 175.645 60.9392 175.666 60.9392 175.692C60.9392 175.692 67.9203 223.342 68.3677 227.845C68.4145 228.35 68.0347 228.793 67.5301 228.822Z" fill="#183F4F"/>
<path d="M81.9028 182.851C81.1121 181.407 78.7764 178.483 77.8921 176.98C76.8777 175.25 76.3835 173.265 75.2703 171.584C71.7485 166.254 64.3461 165.756 60.1637 161.089C57.9736 158.643 56.0698 156.481 53.0474 155.027C50.1239 153.623 46.8413 152.981 43.6265 152.746C32.9 151.962 21.8562 154.596 12.9452 160.707C9.82922 162.845 5.20983 167.955 2.85853 170.914C0.137883 174.33 0.528074 174.923 0.0911062 179.243C0.0234803 179.914 -0.0337823 180.589 0.0234396 181.261C0.299145 184.467 2.43196 188.186 4.39311 190.622C6.39588 193.114 8.89804 195.68 11.2597 197.836C16.5814 202.689 23.5729 206.066 30.9961 206.246C31.5892 206.26 32.1821 206.248 32.7752 206.207C36.8743 205.925 40.4377 203.733 44.2716 202.38C49.021 200.703 53.3751 201.615 58.2494 201.619C66.4217 201.624 78.6204 199.2 81.5283 190.514C82.4855 187.657 82.4698 183.881 81.9028 182.851Z" fill="#D1996B"/>
<path d="M46.93 160.58C44.3654 164.214 41.369 167.894 42.6331 172.558C44.3498 171.693 45.7492 169.43 47.0705 168.133C48.4334 166.796 49.8328 165.492 51.3569 164.341C53.6822 162.585 56.2832 161.142 58.6137 159.378C56.9907 157.644 55.3417 156.131 53.0476 155.027C52.0904 154.569 51.0968 154.199 50.0824 153.89C49.016 156.087 48.3657 158.539 46.93 160.58Z" fill="#B96B2B"/>
<path d="M79.9888 183.217C79.3177 186.395 78.5374 189.716 75.8688 191.838C73.2366 193.929 69.6888 194.775 66.4116 195.147C60.2992 195.84 54.0985 194.94 48.0173 196.033C41.7541 197.16 36.162 201.351 29.6595 201.229C23.6408 201.114 17.5857 197.689 13.0859 193.891C8.17526 189.744 4.41944 184.324 2.31263 178.247C2.20859 177.936 1.7092 178.07 1.81844 178.384C3.73798 183.93 6.99967 188.948 11.2757 192.968C15.5413 196.976 21.0554 200.353 26.866 201.444C33.6338 202.715 39.3196 198.946 45.5724 197.134C52.5066 195.125 59.7842 196.504 66.8485 195.609C70.0998 195.198 73.6007 194.314 76.2121 192.229C78.9588 190.036 79.7912 186.635 80.4882 183.354C80.5559 183.03 80.0564 182.892 79.9888 183.217Z" fill="#183F4F"/>
<path d="M18.4959 160.865C18.1005 160.548 17.5803 160.9 17.5907 161.27C17.5491 161.322 17.5128 161.386 17.492 161.464C17.055 163.056 16.7792 165.307 17.6167 166.821C17.7 166.974 17.882 167.084 18.0589 167.077C18.7612 167.048 19.0005 166.53 19.349 165.97C19.76 165.309 20.2126 164.606 20.4727 163.872C21.0501 162.241 19.5363 161.703 18.4959 160.865Z" fill="#D1996B"/>
<path d="M39.2415 160.102C38.7734 158.137 36.0059 161.173 35.4389 161.639C35.2672 161.78 35.2412 161.953 35.2932 162.107C35.2984 162.187 35.314 162.269 35.3661 162.354C36.1203 163.615 36.9319 164.83 37.811 166.007C38.0243 166.289 38.3468 166.342 38.6225 166.112C39.2779 165.561 39.4028 164.784 39.3976 163.962C39.3924 162.777 39.5224 161.254 39.2415 160.102Z" fill="#D1996B"/>
<path d="M40.4744 136.564C34.8615 134.501 27.1522 134.355 21.2895 134.856C17.5701 135.173 13.4917 136.339 12.056 139.482C10.8751 142.057 11.9311 144.797 12.3733 147.528C12.9195 150.95 13.9235 154.313 15.3332 157.558C16.3788 159.959 17.2892 162.953 20.4052 163.911C25.4199 165.45 32.8171 165.321 37.4001 162.941C39.7149 161.741 40.1987 159.17 40.8594 157.084C41.7957 154.128 46.67 138.846 40.4744 136.564Z" fill="#F5EBE1"/>
<path d="M34.8459 149.216C33.3946 149.777 30.5542 150.967 31.064 152.949C31.683 155.353 35.5638 155.242 37.348 154.845C38.9971 154.48 40.6253 153.825 42.0767 152.912C42.6749 150.612 43.2887 147.761 43.4916 145.072C41.3588 147.323 37.9567 148.015 34.8459 149.216Z" fill="#EDCAAD"/>
<path d="M22.0904 153.172C20.2281 153.75 23.3389 155.464 24.1192 155.486C27.126 155.571 23.8019 152.64 22.0904 153.172Z" fill="#EDCAAD"/>
<path d="M53.6876 99.0033C53.3443 97.1665 52.1115 95.5929 50.1607 95.416C47.8458 95.2064 45.9575 96.8086 44.8339 98.6787C43.2264 101.36 42.6282 104.561 41.7282 107.516C40.9843 109.951 39.97 112.258 38.6955 114.431C38.7059 114.27 38.7215 114.109 38.7319 113.948C38.9192 110.718 38.4146 107.519 38.3105 104.297C38.2065 101.117 38.7163 98.1242 40.0844 95.2438C41.3121 92.6595 42.9819 90.317 44.5581 87.9397C47.7313 83.1538 50.119 78.0023 51.3467 72.3717C51.945 69.625 52.2831 66.818 52.3299 64.0074C52.3767 61.5167 52.3247 58.7627 50.9722 56.5748C49.8538 54.7645 47.8718 53.4765 45.687 53.824C43.5854 54.159 41.9103 55.7654 40.6983 57.4165C34.5807 65.7506 36.9528 77.184 31.8392 85.9588C30.3307 88.5452 28.1511 90.6421 26.5177 93.1417C24.8686 95.6704 24.2183 98.4758 24.1975 101.474C24.1715 104.916 24.6293 108.381 24.9102 111.808C25.1651 114.887 25.4148 117.965 25.6697 121.044C25.1599 119.878 24.6605 118.701 24.2703 117.471C21.7058 109.319 23.5733 100.535 22.8294 92.1762C22.5797 89.3401 21.7526 85.9239 19.1776 84.277C16.2436 82.4001 14.4854 86.1278 13.6374 88.3475C12.2589 91.953 11.822 95.8935 12.3578 99.7134C12.9716 104.08 14.4958 108.244 15.0785 112.629C15.3802 114.889 15.6611 117.173 16.431 119.332C17.1332 121.308 18.236 123.103 19.4065 124.832C20.7642 126.83 22.2207 128.781 23.3132 130.944C23.849 132.007 24.3016 133.118 24.5773 134.279C24.9674 135.919 24.4212 138.858 24.4941 140.524C24.4993 140.606 24.9571 140.568 25.0091 140.61C25.0247 140.726 34.8513 140.62 35.205 139.328C35.2102 139.318 35.2725 138.85 35.2777 138.832C35.7303 137.166 36.365 135.559 37.4574 134.2C38.2689 133.187 39.2729 132.348 40.2041 131.451C41.9832 129.745 43.1067 127.926 43.5229 125.471C44.0015 122.643 43.9027 119.802 45.068 117.122C46.0251 114.921 47.4504 112.965 48.8498 111.03C51.2895 107.664 54.5095 103.449 53.6876 99.0033Z" fill="#BBDC9C"/>
<path d="M38.9189 138.295C35.1631 139.297 31.3396 140.122 27.4485 140.318C25.5082 140.416 23.547 140.362 21.6223 140.079C19.8692 139.822 17.1018 139.55 16.0926 137.9C15.9209 137.618 15.4736 137.876 15.6504 138.16C16.4932 139.544 18.1422 139.898 19.63 140.233C21.7264 140.704 23.88 140.895 26.0284 140.876C30.4449 140.836 34.799 139.927 39.0542 138.792C39.3716 138.706 39.2362 138.209 38.9189 138.295Z" fill="#183F4F"/>
<path d="M26.4446 122.081C26.2625 121.805 25.8152 122.062 26.0024 122.34C28.3381 125.882 28.9571 130.228 27.6983 134.28C27.5994 134.597 28.0988 134.733 28.1976 134.417C29.4877 130.244 28.8531 125.728 26.4446 122.081Z" fill="#183F4F"/>
<path d="M37.6288 115.103C36.7549 117.031 35.2359 118.558 34.1695 120.373C33.1707 122.072 32.4372 123.892 31.9326 125.793C31.8442 126.113 32.3436 126.25 32.4268 125.93C32.9626 123.932 33.748 122.028 34.8353 120.265C35.8652 118.592 37.2594 117.165 38.071 115.363C38.2062 115.063 37.764 114.801 37.6288 115.103Z" fill="#183F4F"/>
<path d="M77.7517 167.071C75.338 166.293 71.3741 164.921 68.9499 164.2C66.2449 163.394 58.083 161.113 56.7201 160.749C54.837 160.247 53.396 159.835 51.4764 160.451C49.5933 161.056 48.0171 162.19 46.3525 163.207C44.4589 164.36 36.3283 169.246 36.0161 169.98C35.3971 171.436 35.4907 172.112 35.73 175.038C35.8341 176.297 37.1866 176.56 38.2738 176.93C40.6147 177.731 57.4952 182.703 59.8101 183.183C61.043 183.439 65.3502 184.861 66.2866 184.642C67.0617 184.461 67.6754 183.805 68.258 183.307C69.1996 182.496 74.2612 177.46 75.7437 175.663C76.9298 174.227 77.9338 174.058 78.0691 172.112C78.0795 171.997 78.9481 167.458 77.7517 167.071Z" fill="#EDCAAD"/>
<path d="M76.0405 169.488C73.5903 172.025 71.1401 174.563 68.69 177.101C68.1594 177.647 67.6548 178.228 67.0877 178.734C66.0682 179.648 64.9966 179.669 63.7117 179.434C62.0159 179.123 60.3564 178.576 58.7022 178.095C51.9188 176.124 45.2915 174.089 38.8202 171.228C38.5185 171.095 38.2532 171.539 38.5601 171.673C45.5308 174.754 52.7042 176.891 60.013 179.012C61.6257 179.479 63.3684 180.113 65.0643 180.113C66.422 180.112 67.2854 179.29 68.175 178.371C70.9268 175.537 73.6631 172.692 76.4046 169.853C76.6387 169.614 76.2745 169.249 76.0405 169.488Z" fill="#183F4F"/>
<path d="M64.3517 169.197C64.3309 169.176 64.3102 169.15 64.2842 169.13C63.2177 168.135 61.4802 167.702 60.0809 167.316C58.4423 166.862 56.7152 166.414 55.0141 166.214C54.9725 166.208 54.9309 166.203 54.8841 166.203C54.0882 166.136 53.0322 166.286 52.7097 167.058C52.6785 167.136 52.6577 167.218 52.6421 167.301C52.564 167.702 52.6576 168.135 52.9125 168.47C53.4483 169.16 54.494 169.336 55.3991 169.542C55.6124 169.583 55.8204 169.629 56.0077 169.686C57.8232 170.227 59.6543 170.711 61.4958 171.129C62.2761 171.309 63.2802 171.572 64.0241 171.201C64.1957 171.118 64.357 171 64.4974 170.84C64.9916 170.274 64.8407 169.686 64.3517 169.197Z" fill="#183F4F"/>
<path d="M64.544 163.792C64.3151 163.493 63.9354 163.302 63.6857 163.029C63.1343 162.426 62.7129 161.623 62.2551 160.948C60.861 158.897 59.42 156.882 57.9375 154.904C57.0219 153.682 56.1896 151.565 54.5093 152.25C53.1464 152.807 51.9187 152.93 50.4882 152.462C49.9159 152.266 48.9432 151.406 48.2981 151.658C47.1953 152.096 48.0484 155.038 48.2825 155.754C49.0888 158.227 50.6078 160.458 52.0696 162.545C52.7771 163.56 53.4637 164.662 54.2804 165.585C54.4833 165.811 54.7018 165.997 54.8838 166.203C55.1023 166.435 55.2845 166.698 55.3625 167.074C55.529 167.795 55.3885 168.805 55.3989 169.542C55.6121 169.583 55.8202 169.629 56.0075 169.686C57.823 170.227 59.6541 170.711 61.4956 171.129C62.2759 171.309 63.2799 171.572 64.0238 171.201C64.1747 170.619 64.2058 169.887 64.2943 169.47C64.3151 169.377 64.3307 169.289 64.3515 169.197C64.5856 168.089 64.8769 166.976 64.9602 165.847C65.0122 165.121 64.9914 164.385 64.544 163.792Z" fill="#F5EBE1"/>
<path d="M59.9196 167.888C59.2017 164.564 57.9324 161.435 56.1325 158.55C55.9608 158.269 55.5134 158.528 55.6903 158.81C57.4642 161.658 58.7127 164.745 59.4254 168.025C59.493 168.348 59.9924 168.212 59.9196 167.888Z" fill="#183F4F"/>
<path d="M234.993 209.428C234.899 209.389 234.795 209.36 234.696 209.334C231.247 208.417 228.225 206.082 226.618 202.878C225.343 200.327 224.677 197.464 223.762 194.775C223.548 194.138 223.481 193.316 223.2 192.721C222.466 191.111 221.067 190.157 219.6 189.276C219.012 187.986 218.294 186.933 216.786 186.493C216.677 186.46 216.567 186.455 216.474 186.468C215.797 184.713 214.778 182.141 212.765 181.865C212.536 181.834 212.239 181.957 212.12 182.163C211.834 182.646 211.75 183.095 211.745 183.591C210.299 184.2 209.878 186.657 209.95 187.938C210.127 191.152 211.428 194.129 211.979 197.271C212.161 198.29 212.895 202.489 210.616 201.505C209.82 201.16 208.588 199.533 207.786 199.191C206.964 198.837 206.038 198.747 205.175 198.985C204.067 199.29 203.297 200.103 204.114 201.179C204.52 201.715 205.081 202.075 205.607 202.476C206.163 202.901 206.606 203.408 207.063 203.941C208.946 206.119 210.507 208.552 212.51 210.631C213.524 211.685 214.611 212.681 215.829 213.495C216.39 213.868 216.973 214.205 217.587 214.478C218.06 214.686 219.049 214.762 219.418 215.06C220.724 216.114 222.014 217.2 223.418 218.121C224.448 218.795 226.508 220.285 227.804 219.731C228.485 219.439 228.86 218.53 229.286 217.956C229.879 217.158 230.498 216.375 231.133 215.609C232.433 214.041 233.817 212.543 235.279 211.124C235.565 210.846 235.534 210.179 235.43 209.819C235.373 209.622 235.196 209.506 234.993 209.428Z" fill="#B5634C"/>
<path d="M266.049 223.88C264.982 217.758 256.862 216.701 252.045 215.188C248.018 213.922 244.06 212.457 240.148 210.871C238.15 210.06 236.168 209.218 234.192 208.355C233.396 208.008 229.635 205.744 229.114 206.123C226.18 208.265 223.205 210.565 221.374 213.764C220.089 216.01 218.731 219.811 220.437 222.199C221.343 223.472 222.908 224.4 224.167 225.328C226.004 226.685 227.928 227.933 229.916 229.064C233.354 231.025 236.99 232.601 240.746 233.861C245.235 237.806 251.566 236.811 256.789 234.675C261.206 232.869 267.032 229.547 266.049 223.88Z" fill="#D9744A"/>
<path d="M164.906 343.111C165.593 343.315 166.181 343.459 166.524 343.548C170.332 344.536 174.213 343.947 178.078 343.904C180.538 343.877 182.983 344.162 185.423 344.468C186.739 344.635 190.287 343.876 191.166 342.146C193.283 337.987 190.099 330.556 190.032 327.433C190.032 327.303 190.016 327.184 189.99 327.071C189.985 325.951 177.479 324.026 177.006 324.344C176.127 324.505 175.263 325.421 175.409 326.824C175.555 328.212 175.7 329.601 175.846 330.989C175.903 331.536 175.638 332.061 175.206 332.235C173.079 333.101 164.735 335.477 163.855 335.914C162.799 336.444 161.317 337.026 160.531 338.143C158.638 340.82 162.42 342.367 164.906 343.111Z" fill="#183F4F"/>
<path d="M259.239 215.389C257.985 210.298 257.798 205.315 257.668 200.106C257.637 198.848 257.59 197.586 257.642 196.328C257.699 194.934 258.271 193.372 258.167 192.003C258.1 191.154 257.938 190.848 257.2 190.478C254.864 189.307 250.245 192.208 248.466 193.434C245.516 195.467 243.186 198.162 241.49 201.307C241.334 201.592 241.469 201.861 241.682 201.994C241.687 202.008 241.682 202.02 241.682 202.035C242.962 207.978 243.066 213.983 241.994 219.965C241.911 220.444 242.426 220.718 242.754 220.568C242.827 220.803 243.045 220.982 243.347 220.88C248.497 219.163 253.673 217.544 258.88 216.022C259.15 215.943 259.307 215.663 259.239 215.389Z" fill="#D17258"/>
<path d="M258.417 179.883C254.297 176.542 248.664 175.939 243.664 177.357C241.193 178.059 238.738 179.237 236.756 180.89C235.086 182.286 234.015 184.238 233.25 186.247C233.032 186.825 232.834 187.411 232.652 188.002C232.548 188.338 232.184 188.619 231.934 188.853C231.601 189.164 230.805 189.839 230.457 190.13C229.645 190.805 229.39 191.233 229.598 192.356C229.744 193.122 230.254 193.694 230.92 194.069C231.497 194.394 231.247 194.9 231.154 195.555C231.065 196.155 230.972 196.813 230.951 197.143C230.8 199.624 230.592 202.676 232.381 204.662C233.697 206.115 235.731 206.195 237.537 206.362C238.738 206.473 239.945 206.525 241.152 206.49C242.364 206.455 244.32 206.798 245.49 206.233C246.073 205.95 246.557 205.494 247.009 205.021C247.748 204.242 248.419 203.394 249.007 202.494C249.735 201.373 250.391 200.092 251.467 199.256C252.716 198.285 254.375 197.779 255.785 197.092C259.083 195.485 261.237 192.965 261.632 189.234C261.991 185.891 261.117 182.071 258.417 179.883Z" fill="#B5634C"/>
<path d="M146.111 314.736C148.764 315.99 151.776 316.761 154.424 317.807C156.796 318.744 158.721 320.029 160.692 321.605C162.097 322.724 163.725 323.864 165.546 324.127C166.082 324.204 166.586 324.223 167.091 324.276C170.43 322.439 177.063 312.376 175.107 310.402C172.948 308.22 169.614 306.328 166.685 305.47C165.619 305.158 164.292 304.756 163.241 305.312C162.18 305.872 161.421 307.276 160.718 308.309C158.45 307.827 146.064 306.337 144.046 306.402C141.762 306.475 140.597 307.816 140.696 309.236C140.816 310.901 143.375 312.961 146.111 314.736Z" fill="#183F4F"/>
<path d="M161.561 312.873C157.374 313.069 153.295 312.057 149.69 309.915C149.404 309.746 149.144 310.192 149.43 310.361C153.108 312.545 157.285 313.589 161.561 313.388C161.894 313.373 161.894 312.857 161.561 312.873Z" fill="#183F4F"/>
<path d="M201.169 285.2C199.614 282.358 190.526 272.3 190.365 272.366C181.901 275.831 174.254 283.313 167.736 290.805C164.537 294.477 161.603 298.379 158.914 302.438C157.764 304.176 156.411 305.942 156.698 308.14C156.932 309.99 158.128 311.984 159.075 313.539C161.317 317.234 164.443 320.398 168.111 322.684C169.427 323.506 171.44 324.93 173.105 324.635C175.201 324.264 203.245 303.783 206.221 299.533C209.43 294.936 203.469 289.4 201.169 285.2Z" fill="#C9A17F"/>
<path d="M180.762 333.518C178.354 336.142 174.946 337.226 171.633 338.22C171.315 338.315 171.45 338.812 171.768 338.717C175.165 337.699 178.66 336.571 181.126 333.883C181.35 333.638 180.986 333.273 180.762 333.518Z" fill="#183F4F"/>
<path d="M182.093 312.928C181.797 310.55 181.121 308.343 180.314 306.098C178.957 302.31 177.448 298.559 176.777 294.571C176.163 290.916 175.815 287.106 174.441 283.645C172.095 285.94 169.853 288.37 167.736 290.804C166.435 292.297 165.192 293.837 163.975 295.4C164.1 297.561 163.944 299.76 164.599 301.855C165.489 304.691 164.433 306.172 164.911 309.064C165.946 315.247 170.202 316.238 171.611 319.712C172.215 321.201 173.39 320.497 174.103 321.859C175.529 319.916 173.25 323.291 173.651 323.221C174.379 323.091 177.718 321.931 182.598 318.455C182.385 316.617 182.322 314.764 182.093 312.928Z" fill="#BC783F"/>
<path d="M174.29 332.781C174.379 332.942 174.504 333.085 174.649 333.197C177.094 335.093 180.423 335.763 183.633 335.878C186.676 335.987 189.709 335.731 192.664 335.111C193.272 334.983 193.714 334.443 193.73 333.821C193.756 332.609 193.767 331.397 193.767 330.188C193.761 325.567 194.448 311.638 194.422 309.286C194.417 308.63 193.839 302.51 194.047 302.417C194.495 302.212 167.471 293.122 167.413 293.505C166.373 300.219 168.469 312.665 171.611 323.983C172.402 326.843 172.844 330.184 174.29 332.781Z" fill="#C9A17F"/>
<path d="M232.007 197.601C231.882 197.117 231.466 196.732 231.034 196.409C230.992 196.707 230.961 196.97 230.951 197.143C230.925 197.564 230.899 198.002 230.878 198.447C231.44 198.479 232.183 198.288 232.007 197.601Z" fill="#612A28"/>
<path d="M284.875 298.143C284.75 298.002 284.562 297.916 284.313 297.935C274.237 298.691 264.087 296.604 255.244 291.667C252.456 290.108 249.881 288.198 247.129 286.57C244.445 284.978 241.282 284.001 238.353 282.844C231.845 280.274 225.343 277.705 218.835 275.136C214.367 273.369 211.095 271.844 206.371 270.968C195.858 269.022 190.869 269.87 181.901 277.229C181.625 277.456 179.17 280.96 179.285 281.214C178.421 282.873 178.723 284.915 179.945 286.471C181.995 289.07 185.979 289.937 188.861 291.177C196.659 294.531 204.046 298.765 211.24 303.25C218.726 307.92 226.482 312.55 233.271 318.208C236.741 321.099 240.049 324.184 243.399 327.206C246.416 329.922 249.329 332.967 252.664 335.29C253.007 335.531 254.88 336.957 255.093 336.719C264.181 335.457 272.036 331.116 278.367 324.076C284.614 317.128 285.291 307.793 285.634 298.887C285.65 298.385 285.265 298.137 284.875 298.143Z" fill="#BC783F"/>
<path d="M266.158 320.45C266.184 320.251 266.126 320.038 265.934 319.854C259.483 313.624 245.891 306.221 238.004 302.08C229.161 297.437 220.333 292.746 211.396 288.279C204.66 284.909 197.918 281.541 190.666 279.404C185.412 277.858 179.092 276.952 174.228 280.108C167.996 284.154 166.893 292.816 167.325 299.611C167.673 305.165 168.844 311.026 170.28 316.375C170.405 316.84 170.815 316.982 171.18 316.898C174.03 318.123 179.732 320.66 182.723 321.486C185.62 322.284 189.08 323.389 192.112 323.332C193.959 323.297 193.829 321.84 193.637 320.358C193.351 318.135 192.924 314.688 193.897 312.284C193.85 312.406 201.97 317.818 202.704 318.356C205.794 320.61 208.868 322.887 212.041 325.023C219.262 329.889 227.174 334.156 235.523 336.749C243.368 339.188 256.497 339.335 266.631 333.157C272.213 329.75 267.552 326.94 266.158 321.173C266.09 320.883 266.272 320.655 266.158 320.45Z" fill="#C9A17F"/>
<path d="M198.287 293.987C198.807 294.889 199.598 295.611 200.144 296.495C201.471 298.625 201.304 301.209 201.544 303.609C201.83 306.458 202.777 309.103 204.181 311.556C204.259 311.539 204.342 311.54 204.426 311.584C208.993 313.881 210.694 318.278 211.641 323C211.776 323.666 211.906 324.35 212.052 325.033C213.763 326.184 215.516 327.301 217.301 328.371C217.987 326.118 218.159 323.663 218.549 321.378C219.511 315.66 219.813 310.127 219.657 304.331C219.548 300.353 219.641 296.267 219.241 292.267C216.635 290.924 214.023 289.59 211.401 288.279C207.796 286.477 204.186 284.682 200.503 283.069C199.853 285.219 198.865 287.251 198.214 289.415C197.741 290.989 197.439 292.508 198.287 293.987Z" fill="#BC783F"/>
<path d="M266.158 321.173C266.09 320.883 266.272 320.655 266.158 320.45C266.184 320.251 266.126 320.038 265.934 319.854C259.483 313.624 245.891 306.221 238.004 302.08C231.996 298.927 225.993 295.756 219.964 292.643C220.073 294.026 220.13 295.418 220.167 296.825C220.266 300.567 220.427 304.31 220.453 308.054C220.495 313.311 219.74 318.301 218.965 323.468C218.71 325.179 218.44 326.904 217.966 328.57C217.951 328.624 217.935 328.684 217.919 328.74C223.486 332.029 229.385 334.842 235.523 336.749C243.368 339.188 256.497 339.335 266.631 333.157C272.213 329.75 267.552 326.94 266.158 321.173Z" fill="#183F4F"/>
<path d="M284.968 226.717C283.787 223.506 282.814 220.658 279.298 217.689C279.079 217.503 276.92 218.727 276.837 220.093C276.717 222.098 277.363 224.366 277.643 226.345C278.002 228.867 278.366 231.387 278.746 233.905C280.156 243.186 282.034 252.355 284.047 261.52C284.094 261.716 284.188 261.852 284.312 261.943C284.354 262.571 285.327 262.968 285.764 262.282C287.772 259.134 288.786 253.826 289.343 250.069C289.972 245.829 290.3 241.224 284.968 226.717Z" fill="#D9744A"/>
<path d="M215.766 283.703C215.828 283.47 215.761 283.218 215.495 283.026C212.515 280.871 209.539 278.703 206.574 276.524C206.444 276.427 206.304 276.381 206.168 276.369C205.56 275.206 204.816 274.139 203.874 273.193C202.033 271.35 199.499 270.614 198.121 268.322C195.764 264.386 193.184 262.987 188.632 263.073C188.513 263.076 188.403 263.101 188.315 263.144C188.039 262.727 187.717 262.349 187.311 262.057C186.734 261.636 185.979 261.491 185.454 262.053C184.861 262.684 185.147 263.674 185.261 264.44C185.34 264.962 185.418 265.485 185.506 266.006C186.682 273.103 190.541 280.051 197.106 283.331C200.342 286.031 203.739 288.503 207.307 290.734C207.443 290.818 207.573 290.849 207.698 290.847C207.895 291.204 208.322 291.411 208.733 291.089C211.23 289.137 213.519 286.943 215.787 284.729C216.135 284.388 216.042 283.965 215.766 283.703Z" fill="#B5634C"/>
<path d="M178.494 259.07C177.682 259.746 177.677 260.979 178.483 261.661C184.986 267.154 191.566 272.634 198.532 277.55C200.217 278.741 201.778 280.203 203.734 280.968C205.872 281.806 207.001 280.638 208.541 279.281C212.333 275.929 215.865 272.27 219.392 268.643C219.813 268.209 220.229 267.775 220.651 267.339C221.384 266.578 221.254 265.353 220.375 264.764C211.818 259.01 203.443 253.005 194.693 247.533C193.065 246.514 192.133 247.763 190.901 248.767C189.48 249.921 188.071 251.089 186.666 252.257C183.935 254.522 181.22 256.799 178.494 259.07Z" fill="#183F4F"/>
<path d="M180.304 258.335C179.534 258.974 179.529 260.138 180.294 260.781C186.432 265.97 192.648 271.146 199.224 275.789C200.821 276.914 202.293 278.295 204.14 279.018C206.163 279.809 207.229 278.706 208.681 277.424C212.265 274.258 215.599 270.803 218.929 267.376C219.324 266.967 219.725 266.556 220.12 266.145C220.812 265.427 220.687 264.269 219.86 263.713C211.776 258.279 203.869 252.607 195.603 247.439C194.063 246.475 193.184 247.656 192.019 248.604C190.677 249.694 189.35 250.797 188.019 251.9C185.444 254.039 182.874 256.191 180.304 258.335Z" fill="#F5EBE1"/>
<path d="M186.255 263.766C185.683 264.116 185.308 264.727 185.267 265.397C185.246 265.724 185.751 265.827 185.771 265.497C185.808 264.947 186.078 264.479 186.546 264.19C186.833 264.016 186.536 263.592 186.255 263.766Z" fill="#183F4F"/>
<path d="M199.936 275.023C199.494 275.533 199.223 276.151 199.151 276.823C199.119 277.15 199.624 277.252 199.66 276.922C199.718 276.334 199.941 275.808 200.326 275.36C200.545 275.108 200.155 274.772 199.936 275.023Z" fill="#183F4F"/>
<path d="M196.222 250.871C194.214 252.313 192.237 253.799 190.297 255.337C188.674 256.627 186.708 257.904 185.392 259.514C185.178 259.77 185.568 260.107 185.782 259.85C187.165 258.161 189.267 256.803 190.979 255.454C192.794 254.024 194.641 252.641 196.513 251.295C196.784 251.102 196.493 250.676 196.222 250.871Z" fill="#EDCAAD"/>
<path d="M197.975 252.535C194.458 255.172 191.088 257.99 187.862 260.98C187.618 261.205 188.013 261.539 188.252 261.316C191.441 258.356 194.786 255.571 198.266 252.959C198.532 252.76 198.24 252.335 197.975 252.535Z" fill="#EDCAAD"/>
<path d="M199.978 254.525C196.461 257.162 193.09 259.98 189.87 262.97C189.626 263.195 190.016 263.53 190.261 263.306C193.449 260.346 196.789 257.56 200.274 254.949C200.54 254.751 200.248 254.325 199.978 254.525Z" fill="#EDCAAD"/>
<path d="M201.986 256.515C198.469 259.153 195.098 261.971 191.873 264.961C191.629 265.186 192.024 265.52 192.263 265.297C195.457 262.337 198.797 259.551 202.277 256.94C202.542 256.741 202.251 256.316 201.986 256.515Z" fill="#EDCAAD"/>
<path d="M264.628 195.98C264.795 195.515 264.951 195.046 265.044 194.559C265.351 193.01 265.419 191.415 265.242 189.846C264.259 181.103 255.233 176.005 247.488 174.645C245.287 174.258 243.009 174.371 240.902 175.119C232.022 178.265 232.537 191.6 237.89 195.174C238.348 195.48 238.244 196.217 238.067 196.739C237.547 198.292 236.824 199.907 235.695 201.155C234.311 202.686 232.672 202.961 230.8 203.562C229.166 204.086 227.798 205.624 229.067 207.329C231.034 209.965 234.966 210.955 238.025 211.593C240.226 212.051 242.535 212.155 244.705 211.575C246.562 211.08 248.211 210.059 250.042 209.515C251.623 209.045 253.293 208.906 254.932 209.102C256.492 209.29 258.547 209.352 260.009 208.675C262.251 207.632 264.347 204.855 264.171 202.33C264.082 201.108 263.567 199.927 263.765 198.689C263.921 197.75 264.301 196.875 264.628 195.98Z" fill="#693536"/>
<path d="M234.962 296.251C233.214 294.376 230.805 293.546 228.516 292.565C226.16 291.557 223.808 290.549 221.452 289.541C221.546 289.372 221.613 289.201 221.644 289.028C221.842 287.925 220.177 286.41 219.532 285.663C218.44 284.397 217.342 283.055 215.964 282.081C214.107 280.768 213.108 281.18 211.136 282.145C205.617 284.848 201.851 292.064 201.497 293.493C200.691 296.722 211.344 305.192 211.974 305.801C213.68 307.464 216.51 309.529 218.383 311.014C221.889 313.797 227.195 317.201 231.856 316.812C234.431 316.597 233.786 314.773 234.342 312.425C235.144 309.071 236.231 305.662 236.647 302.237C236.917 300.032 236.507 297.913 234.962 296.251Z" fill="#D9744A"/>
<path d="M289.921 273.033C289.728 270.389 289.484 267.747 289.244 265.113C288.246 254.046 287.637 227.976 281.519 220.096C277.134 214.455 270.845 212.496 264.093 212.914C262.74 211.727 261.304 210.642 259.796 210.176C256.758 209.239 252.898 210.99 250.105 212.046C247.472 213.041 244.471 214.06 242.655 216.326C241.167 218.18 240.054 220.501 239.029 222.83C236.252 224.816 233.609 226.997 231.117 229.318C226.259 233.835 220.308 239.333 218.378 245.875C217.202 249.857 217.228 254.13 217.275 258.244C217.446 273.89 219.527 290.009 221.925 305.452C223.288 314.234 224.058 326.558 235.024 327.437C235.981 327.514 236.938 327.59 237.895 327.637C247.067 328.09 255.91 325.671 264.015 321.489C268.665 319.089 273.066 316.224 277.327 313.192C282.679 309.382 287.138 306.341 288.62 299.484C290.514 290.709 290.581 281.959 289.921 273.033Z" fill="#D9744A"/>
<path d="M256.134 324.885C257.991 320.118 257.887 314.259 256.716 309.418C256.669 309.376 256.633 309.324 256.617 309.247C255.863 305.553 251.852 309.642 250.744 310.992C248.892 313.239 247.722 315.987 245.558 317.981C243.415 319.961 239.966 321.272 238.603 323.909C237.973 325.126 237.942 326.425 238.285 327.65C244.429 327.899 250.417 326.868 256.134 324.885Z" fill="#BC783F"/>
<path d="M244.814 268.572C242.462 256.689 234.316 244.863 223.964 238.594C223.767 238.477 223.579 238.459 223.413 238.501C223.262 238.518 222.815 237.897 222.674 238.031C218.611 241.945 217.555 248.023 217.056 253.482C216.426 260.387 216.281 267.391 216.203 274.321C216.12 281.283 216.291 288.254 216.931 295.189C217.425 300.561 217.696 306.72 221.061 311.202C223.725 314.752 228.375 317.323 232.901 316.733C238.249 316.037 239.393 310.995 240.683 306.555C242.473 300.367 243.768 294.04 244.58 287.65C245.381 281.388 246.047 274.819 244.814 268.572Z" fill="#D9744A"/>
<path d="M245.027 277.359C244.575 285.277 243.352 293.139 241.339 300.811C239.732 306.936 237.791 313.822 232.308 317.628C232.038 317.816 232.386 318.197 232.657 318.01C238.072 314.25 240.08 307.516 241.698 301.459C243.805 293.59 245.074 285.517 245.542 277.387C245.558 277.056 245.048 277.029 245.027 277.359Z" fill="#183F4F"/>
<path d="M203.375 331.677L196.155 362.677C195.78 364.287 198.251 365.03 198.626 363.414C201.034 353.08 204.348 342.723 206.756 332.389C207.131 330.779 203.755 330.061 203.375 331.677Z" fill="#183F4F"/>
<path d="M242.052 349.352L238.405 380.973C238.213 382.614 240.751 383.072 240.938 381.423C242.156 370.883 244.273 360.216 245.49 349.676C245.677 348.034 242.244 347.703 242.052 349.352Z" fill="#183F4F"/>
<path d="M292.953 331.561L296.6 363.182C296.792 364.824 294.254 365.281 294.066 363.633C292.849 353.092 290.732 342.426 289.52 331.885C289.327 330.244 292.761 329.913 292.953 331.561Z" fill="#183F4F"/>
<path d="M201.034 280.121C199.619 278.04 197.741 276.544 196.82 274.115C196.191 272.436 194.63 266.777 191.785 267.966C191.493 268.088 191.332 268.279 191.301 268.6C191.119 270.687 191.884 273.215 192.409 275.238C193.267 278.549 191.483 277.928 192.643 279.583C192.44 279.907 194.401 281.598 194.869 281.794C196.16 282.335 197.46 282.859 198.776 283.351C199.655 283.682 200.685 284.284 201.637 284.204C201.897 284.182 202.22 284.017 202.267 283.722C202.459 282.473 201.715 281.117 201.034 280.121Z" fill="#B5634C"/>
<path d="M319.712 268.208C313.132 260.859 301.339 267.798 294.072 270.682C286.014 273.88 278.138 277.55 270.507 281.667C263.323 285.542 260.914 291.184 257.788 298.462C255.244 304.414 252.986 310.491 251.036 316.664C249.912 320.205 246.728 328.722 241.734 323.831C241.719 323.814 241.703 323.798 241.687 323.781C235.461 317.694 228.594 311.789 220.791 307.646C214.221 304.155 202.782 299.338 195.463 304.479C192.815 306.338 191.587 307.589 191.109 310.674C190.359 315.486 195.026 339.486 196.446 340.803C200.987 345.007 207.822 347.468 213.368 350.06C219.376 352.87 225.431 355.574 231.512 358.227C234.347 359.465 237.188 360.722 240.059 361.886C242.452 362.856 244.814 363.987 247.342 364.566C250.396 365.266 255.832 362.025 258.511 360.933C264.275 358.586 269.893 355.976 275.584 353.461C287.647 348.129 298.566 344.484 302.218 337.874C307.529 328.266 312.918 306.336 315.483 295.671C316.929 289.667 318.318 283.628 319.317 277.532C319.634 275.602 321.278 269.955 319.712 268.208Z" fill="#6D9147"/>
<path d="M216.848 284.333C216.858 284.001 216.343 284.002 216.333 284.333C216.182 289.504 216.588 294.657 217.55 299.741C217.612 300.066 218.107 299.928 218.044 299.603C217.097 294.564 216.697 289.459 216.848 284.333Z" fill="#183F4F"/>
<path d="M262.537 213.904C254.984 212.278 247.898 216.036 242.577 221.145C242.337 221.375 242.702 221.739 242.941 221.509C248.122 216.536 255.03 212.815 262.402 214.4C262.724 214.47 262.865 213.974 262.537 213.904Z" fill="#183F4F"/>
<path d="M238.681 186.635C238.597 186.314 238.098 186.45 238.181 186.772C238.717 188.869 238.92 190.982 238.8 193.141C238.785 193.472 239.3 193.471 239.315 193.141C239.435 190.933 239.222 188.776 238.681 186.635Z" fill="#183F4F"/>
<path d="M263.312 198.993C262.974 197.611 261.752 196.381 262.017 194.892C262.215 193.77 262.724 192.823 262.745 191.652C262.792 189.485 261.892 187.427 260.326 185.947C260.082 185.719 259.718 186.083 259.962 186.311C261.876 188.119 262.714 190.878 261.949 193.428C261.689 194.303 261.309 195.083 261.528 196.014C261.783 197.118 262.542 198.024 262.813 199.13C262.891 199.452 263.39 199.315 263.312 198.993Z" fill="#183F4F"/>
<path d="M254.209 194.423C254.115 199.35 251.098 203.842 246.593 205.825C246.286 205.958 246.551 206.402 246.853 206.269C251.519 204.216 254.625 199.516 254.723 194.423C254.729 194.091 254.214 194.091 254.209 194.423Z" fill="#183F4F"/>
<path d="M253.293 202.084C252.955 203.224 252.461 204.279 251.805 205.267C251.618 205.543 252.065 205.801 252.247 205.527C252.929 204.505 253.444 203.4 253.787 202.221C253.881 201.903 253.387 201.766 253.293 202.084Z" fill="#183F4F"/>
<path d="M241.672 217.2C241.011 218.552 240.356 219.905 239.695 221.258C239.242 222.194 238.894 222.948 238.02 223.579C237.453 223.988 236.881 224.384 236.319 224.804C234.124 226.449 232.074 228.263 230.149 230.216C229.915 230.452 230.279 230.817 230.514 230.58C232.735 228.327 235.128 226.257 237.708 224.425C238.764 223.674 239.336 223.156 239.924 221.968C240.663 220.469 241.386 218.963 242.119 217.46C242.26 217.163 241.817 216.901 241.672 217.2Z" fill="#183F4F"/>
<path d="M229.811 324.797C225.681 320.616 220.911 317.101 215.672 314.432C213.144 313.143 210.512 312.048 207.812 311.169C205.013 310.258 201.996 309.281 199.052 309.978C198.729 310.054 198.865 310.551 199.187 310.475C202.21 309.759 205.424 310.897 208.275 311.865C210.991 312.785 213.628 313.926 216.161 315.267C221.072 317.865 225.546 321.211 229.447 325.161C229.681 325.398 230.045 325.033 229.811 324.797Z" fill="#183F4F"/>
<path d="M306.145 274.901C301.131 276.253 296.205 277.917 291.408 279.912C286.924 281.778 282.305 283.784 278.336 286.617C271.126 291.761 267.729 300.12 264.498 308.045C262.168 313.776 259.832 319.508 257.496 325.239C257.372 325.546 257.871 325.679 257.996 325.376C259.978 320.509 261.96 315.641 263.942 310.773C265.658 306.559 267.292 302.288 269.404 298.253C271.433 294.393 273.961 290.723 277.389 287.977C281.145 284.969 285.676 282.937 290.061 281.038C295.32 278.762 300.751 276.889 306.281 275.397C306.603 275.312 306.468 274.814 306.145 274.901Z" fill="#183F4F"/>
<path d="M189.891 303.732C188.497 303.153 187.212 302.375 186.047 301.41C185.797 301.2 185.428 301.563 185.683 301.774C186.921 302.8 188.273 303.614 189.756 304.229C190.063 304.357 190.193 303.858 189.891 303.732Z" fill="#183F4F"/>
<path d="M217.904 199.894C216.525 194.649 214.835 189.497 212.842 184.454C212.722 184.149 212.223 184.282 212.343 184.591C214.34 189.634 216.031 194.787 217.41 200.031C217.493 200.352 217.992 200.216 217.904 199.894Z" fill="#612A28"/>
<path d="M216.863 187.526C216.728 187.223 216.286 187.485 216.421 187.786C218.086 191.565 219.277 195.512 219.99 199.58C220.047 199.906 220.541 199.768 220.484 199.442C219.766 195.328 218.549 191.347 216.863 187.526Z" fill="#612A28"/>
<path d="M220.078 190.357C219.948 190.055 219.501 190.317 219.636 190.618C220.796 193.228 221.914 195.847 222.383 198.681C222.44 199.007 222.934 198.869 222.882 198.544C222.403 195.667 221.259 193.006 220.078 190.357Z" fill="#612A28"/>
<path d="M194.406 278.458C193.543 277.141 192.908 275.731 192.508 274.207C192.425 273.887 191.925 274.022 192.014 274.344C192.425 275.907 193.075 277.367 193.959 278.718C194.141 278.994 194.589 278.736 194.406 278.458Z" fill="#612A28"/>
<path d="M171.669 322.862C170.977 321.382 170.524 319.831 170.316 318.21C170.274 317.886 169.754 317.882 169.801 318.21C170.02 319.925 170.493 321.556 171.226 323.122C171.367 323.422 171.809 323.161 171.669 322.862Z" fill="#183F4F"/>
</svg>
