<svg width="392" height="277" viewBox="0 0 392 277" fill="none" xmlns="http://www.w3.org/2000/svg">
<path d="M195.572 264.444C193.05 266.93 190.189 268.865 187.051 270.204C186.758 270.328 186.882 270.86 187.18 270.734C190.403 269.362 193.338 267.382 195.92 264.834C196.158 264.599 195.811 264.211 195.572 264.444Z" fill="#36191E"/>
<path d="M240.32 267.149C238.366 268.569 235.622 268.738 233.363 268.968C231.04 269.203 228.701 269.286 226.392 269.649C224.233 269.988 222.165 270.696 220.061 271.29C217.617 271.98 215.199 272.255 212.685 271.91C212.395 271.869 212.29 272.373 212.585 272.413C214.799 272.718 216.993 272.596 219.166 272.059C221.74 271.424 224.219 270.476 226.847 270.101C229.306 269.751 231.789 269.684 234.253 269.39C236.337 269.14 238.775 268.889 240.569 267.586C240.814 267.406 240.564 266.97 240.32 267.149Z" fill="#36191E"/>
<path d="M353.395 269.944C349.316 270.761 345.14 271.214 340.938 271.251C336.88 271.287 332.339 271.205 328.574 269.862C328.281 269.755 328.02 270.109 328.317 270.216C332.036 271.541 336.444 271.672 340.45 271.665C344.863 271.657 349.249 271.197 353.533 270.34C353.847 270.276 353.713 269.88 353.395 269.944Z" fill="#36191E"/>
<path d="M28.1449 244.316H30.8935C31.2935 244.316 31.6283 243.996 31.6841 243.565C32.1632 239.893 33.8374 226.422 34.6326 220.653C34.7349 219.913 33.963 219.503 33.5444 219.8C33.5444 219.8 27.1263 221.653 27.9681 221.654C27.9635 221.677 27.9588 221.698 27.9541 221.723C27.9541 221.723 27.517 238.968 27.3495 243.405C27.3309 243.903 27.6938 244.316 28.1449 244.316Z" fill="#4E5A60"/>
<path d="M41.8233 238.847H44.5701C44.9651 238.847 45.3044 238.527 45.3602 238.095C45.8389 234.424 47.5123 220.952 48.3071 215.183C48.4093 214.443 47.633 214.033 47.2194 214.33C47.2194 214.33 40.8007 216.183 41.6466 216.184C41.642 216.207 41.6327 216.228 41.6327 216.253C41.6327 216.253 41.1959 233.498 41.0239 237.936C41.0053 238.433 41.3678 238.847 41.8233 238.847Z" fill="#4E5A60"/>
<path d="M263.444 244.316H266.54C266.984 244.316 267.366 243.996 267.429 243.565C267.967 239.893 269.85 226.422 270.744 220.653C270.854 219.913 269.986 219.503 269.52 219.8C269.52 219.8 262.299 221.653 263.245 221.654C263.245 221.677 263.235 221.698 263.235 221.723C263.235 221.723 262.738 238.968 262.55 243.405C262.529 243.903 262.937 244.316 263.444 244.316Z" fill="#36191E"/>
<path d="M247.951 238.847H251.041C251.486 238.847 251.868 238.527 251.93 238.095C252.469 234.424 254.351 220.952 255.245 215.183C255.36 214.443 254.492 214.033 254.022 214.33C254.022 214.33 246.806 216.183 247.753 216.184C247.747 216.207 247.737 216.228 247.737 216.253C247.737 216.253 247.245 233.498 247.052 237.936C247.031 238.433 247.439 238.847 247.951 238.847Z" fill="#36191E"/>
<path d="M290.41 226.995C291.82 226.995 292.871 225.706 292.586 224.331C289.965 211.651 286.379 198.626 280.701 186.741C275.295 175.418 268.312 163.24 254.927 160.648C245.694 158.861 236.35 160.572 227.087 161.065C217.839 161.557 208.645 160.229 199.632 158.242C180.97 154.13 163.199 146.689 146.123 138.271C134.614 132.597 123.49 126.155 111.795 120.846C100.281 115.618 88.2019 111.784 75.7123 109.7C60.817 107.215 45.6064 105.525 31.7064 112.817C27.0597 115.256 23.9135 118.697 21.2475 123.144C20.5173 124.364 19.0217 124.337 17.7963 124.336C16.1257 124.335 14.5401 124.413 12.9195 124.868C3.69619 127.451 7.75298e-06 137.627 7.75298e-06 146.32C-0.00999586 159.293 9.66342 213.324 13.2247 225.101C13.5648 226.229 14.6101 226.995 15.7956 226.995H290.41Z" fill="#EBCBB0"/>
<path d="M113.741 161.972C112.77 160.162 111.774 158.362 110.852 156.524C110.507 155.835 109.137 153.898 109.278 153.153C108.899 155.175 108.278 157.155 107.617 159.103C107.127 160.534 106.622 161.961 106.112 163.384C105.379 165.424 104.422 167.41 104.048 169.557C103.829 170.836 103.82 172.277 104.737 173.315C105.432 174.104 106.481 174.465 107.491 174.677C109.492 175.096 111.968 175.291 113.867 174.421C117.461 172.777 117.102 168.571 115.645 165.624C115.033 164.393 114.392 163.181 113.741 161.972Z" fill="#36191E"/>
<path d="M65.2155 136.267C64.4022 135.873 63.2282 135.395 62.969 136.6C62.7504 137.6 63.1163 138.775 63.3857 139.732C63.96 141.774 64.7835 143.78 65.739 145.678C65.8203 145.836 65.7238 145.979 65.5917 146.031C67.1114 146.819 68.936 146.823 70.6844 146.733C71.8687 146.671 75.2791 146.872 74.6844 144.925C74.0847 142.944 71.9906 141.127 70.4658 139.8C68.8801 138.418 67.1214 137.191 65.2155 136.267Z" fill="#36191E"/>
<path d="M16.1686 131.514C14.5184 131.438 12.8681 131.352 11.223 131.288C10.1045 131.245 9.06628 131.278 8.04306 131.758C5.76591 132.827 4.63239 135.144 3.66937 137.285C3.54397 137.568 3.97019 137.814 4.1006 137.529C5.04357 135.425 6.14209 133.086 8.44432 132.12C9.65312 131.613 10.9322 131.759 12.2112 131.817C13.5304 131.877 14.8494 131.938 16.1686 131.998C16.4896 132.012 16.4896 131.529 16.1686 131.514Z" fill="#36191E"/>
<path d="M78.1985 194.492C75.9283 194.897 73.7315 195.575 71.6711 196.432C70.806 196.793 69.9147 197.176 69.123 197.641C68.216 198.177 67.5555 198.982 66.5489 199.386C68.1741 199.716 69.9148 199.645 71.582 199.629C73.6529 199.609 75.729 199.595 77.7999 199.534C79.9862 199.47 82.1201 199.283 84.2802 199.043C85.9946 198.852 87.6985 198.71 89.3396 198.261C87.7457 194.308 82.8174 193.667 78.1985 194.492Z" fill="#36191E"/>
<path d="M48.675 190.53C47.2762 190.536 44.9288 190.815 44.6876 192.399C44.4571 193.927 46.5153 195.359 47.7801 196.066C49.0609 196.785 50.4917 197.235 51.9226 197.645C53.2839 198.035 55.0471 198.823 56.5209 198.727C55.717 197.493 55.776 195.698 55.3955 194.404C54.5862 191.66 51.5851 190.519 48.675 190.53Z" fill="#36191E"/>
<path d="M71.8591 154.891C71.5048 153.702 70.6465 152.6 70.1974 151.489C69.3841 149.473 69.3491 147.216 68.7952 145.133C68.0767 142.445 67.1437 139.814 66.0409 137.25C64.9332 134.676 63.6559 132.17 62.2637 129.727C61.4953 128.379 60.7168 127.021 59.7638 125.779C59.2348 125.091 57.5533 123.657 57.8526 122.709C57.8676 122.654 57.8777 122.595 57.8727 122.527C57.7929 121.603 57.4785 120.101 56.5454 119.597C55.6672 119.125 54.6293 119.725 53.8509 120.086C52.5536 120.685 50.927 120.281 49.5548 120.233C45.7077 120.1 41.8257 120.607 38.0883 121.474C31.5867 122.983 25.2596 125.694 19.5364 128.985C18.6482 129.494 17.6553 129.709 16.6573 129.908C15.9637 130.047 14.5865 130.1 14.0975 130.629C13.2792 131.512 13.868 133.023 14.0476 134.02C15.9587 144.857 18.6531 155.882 26.3074 164.462C27.3453 165.631 28.6028 166.661 29.5459 167.897C30.459 169.095 31.0277 170.546 32.1704 171.579C33.0935 172.409 34.1663 172.511 35.249 171.931C35.3488 171.877 35.4038 171.804 35.4438 171.728C35.5136 171.715 35.5885 171.684 35.6584 171.627C38.4127 169.433 41.9305 169.159 45.3135 168.451C48.6866 167.744 52.0497 166.944 55.318 165.864C60.4974 164.154 65.3474 161.717 69.4141 158.216C70.422 157.887 71.9139 157.353 72.0088 156.152C72.0437 155.719 71.9838 155.3 71.8591 154.891Z" fill="#FFE68F"/>
<path d="M36.6469 138.734C35.7509 139.247 35.4576 140.645 35.2349 141.506C34.6539 143.755 34.4367 146.297 34.8711 148.595C37.2606 147.851 40.2147 147.512 40.8881 144.97C41.3878 143.075 40.4483 140.762 38.9494 139.404C38.3738 138.882 37.4669 138.266 36.6469 138.734Z" fill="#36191E"/>
<path d="M73.4758 172.16C72.926 171.034 71.8965 170.082 71.2668 169.05C70.1273 167.177 69.7073 164.93 68.8077 162.946C66.9735 158.897 64.6945 155.059 62.0357 151.509C60.7063 149.733 59.2821 148.03 57.7728 146.408C57.0381 145.619 54.1342 143.637 54.2891 142.437C54.2941 142.38 54.2942 142.319 54.2792 142.251C54.0393 141.343 53.4795 139.898 52.48 139.555C51.5454 139.233 50.6359 140.01 49.9362 140.504C48.7767 141.323 47.1224 141.198 45.773 141.385C41.9996 141.91 38.3062 143.081 34.8128 144.585C28.7355 147.204 23.033 150.991 18.0202 155.255C17.2405 155.915 16.311 156.299 15.3714 156.669C14.7167 156.926 13.3872 157.215 12.9974 157.826C12.3577 158.847 13.1923 160.255 13.5321 161.22C16.5058 169.579 17.2856 178.515 23.7228 185.142C28.2008 189.759 34.0232 194.113 39.4258 197.596C40.7502 198.45 44.3386 196.64 45.648 196.394C51.6854 195.263 54.4942 192.746 59.1721 188.822C61.5261 186.846 63.7051 184.658 65.7292 182.339C67.5634 180.242 69.1676 177.246 71.6615 175.898C72.5861 175.396 73.9455 174.609 73.8356 173.394C73.7956 172.955 73.6607 172.547 73.4758 172.16Z" fill="#F5EBE1"/>
<path d="M250.67 196.639C250.365 196.055 249.878 195.916 249.267 195.814C247.94 195.59 246.59 195.456 245.253 195.276C242.662 194.93 240.071 194.583 237.479 194.236C237.422 194.186 237.341 194.169 237.255 194.206C237.188 194.197 237.121 194.188 237.054 194.179C236.873 194.155 236.801 194.323 236.84 194.469C235.58 195.277 234.449 196.23 233.442 197.362C233.303 197.518 233.399 197.773 233.609 197.778C236.658 197.844 239.713 197.84 242.762 197.754C244.208 197.713 245.659 197.655 247.105 197.58C248.313 197.517 249.467 197.472 250.584 196.971C250.703 196.918 250.723 196.743 250.67 196.639Z" fill="#36191E"/>
<path d="M42.312 143.95C42.9128 144.821 43.2517 145.9 43.4777 146.933C44.0014 149.288 43.8936 151.683 44.0682 154.065C46.8617 152.464 49.4859 150.58 52.0381 148.603C53.517 147.46 55.0471 146.32 56.5209 145.112C55.6017 144.26 54.739 143.311 54.8263 142.611C54.8314 142.551 54.8315 142.486 54.8161 142.415C54.5696 141.453 53.9945 139.923 52.9674 139.559C52.0072 139.219 51.0726 140.041 50.3537 140.564C49.1624 141.432 47.4626 141.299 46.0761 141.498C44.3713 141.742 42.687 142.125 41.0232 142.605C41.4957 143.012 41.9526 143.433 42.312 143.95Z" fill="#36191E"/>
<path d="M52.6298 188.377C51.7057 186.729 50.4522 184.291 47.9743 184.154C45.0747 183.993 45.5656 187.795 45.6927 189.355C45.866 191.536 46.3687 193.835 46.7153 196C50.6834 195.416 52.5606 194.094 54.6977 192.585C54.0681 191.164 53.4038 189.756 52.6298 188.377Z" fill="#36191E"/>
<path d="M47.5988 140.872C49.9463 141.041 52.2991 141.148 54.6466 141.302C54.5037 139.686 54.764 138.016 55.31 136.519C56.2695 133.89 58.1066 132.052 58.326 129.069C58.7343 123.505 52.1714 118.693 46.869 118.517C40.5561 118.309 36.545 123.999 34.8456 129.243C34.0495 131.7 33.6513 134.304 33.7432 136.867C38.2341 138.619 42.72 140.518 47.5988 140.872Z" fill="#36191E"/>
<path d="M110.98 158.365C110.925 157.998 99.7798 158.119 99.8245 158.381C99.2429 160.577 95.5096 159.58 86.4671 153.532C81.9534 150.513 81.4065 150.632 77.8521 147.694C77.698 147.568 76.7188 148.631 76.5647 148.679C73.9151 148.243 74.8992 158.952 75.0881 160.306C75.4013 162.56 76.8877 163.146 78.8215 164.172C81.7843 165.743 84.782 167.257 87.8989 168.516C93.3174 170.705 99.5262 173.377 105.427 171.845C111.159 170.356 111.671 163.155 110.98 158.365Z" fill="#FCAC86"/>
<path d="M92.9397 157.131C92.7985 156.917 87.2751 153.048 87.2751 153.048L80.583 147.86C80.5294 147.818 80.1396 147.793 80.086 147.78C79.8035 147.575 79.3068 147.696 79.3117 148.157C79.3555 151.222 80.3199 154.152 81.4888 156.948C82.5896 159.57 84.0216 163.042 86.2329 164.886C86.4667 165.083 86.7539 165.012 86.9293 164.841C87.0997 164.944 87.3239 164.964 87.5187 164.805C89.1455 163.469 93.4804 157.978 92.9397 157.131Z" fill="#8C3747"/>
<path d="M59.0337 136.015C59.6479 134.1 58.8739 132.259 58.0997 130.504C56.7424 127.439 54.5952 123.47 51.2509 122.029C44.2835 119.027 36.6969 125.163 36.4698 131.935C36.3253 136.191 39.4943 137.821 43.1328 138.242C45.7494 140.904 47.6485 144.181 50.6058 146.558C50.9361 146.824 51.3233 146.746 51.571 146.529C52.8561 146.804 54.1669 146.861 55.4829 146.621C56.4893 146.438 58.2441 146.126 58.7757 145.128C59.2557 144.221 58.4609 143.252 58.0326 142.497C57.3668 141.328 56.8043 140.118 56.3036 138.884C57.5423 138.27 58.5899 137.396 59.0337 136.015Z" fill="#FCAC86"/>
<path d="M57.4073 141.77C56.9004 140.739 56.4137 139.59 56.0234 138.567C54.7916 139.097 53.6105 139.449 52.4192 139.833C52.0695 139.947 51.6944 139.92 51.3345 139.984C51.1977 140.008 51.0203 140.248 51.0557 140.397C51.1368 140.717 51.8262 141.102 52.1151 141.277C52.3939 141.445 52.6828 141.6 52.9869 141.721C54.3404 142.258 55.8256 142.309 57.2449 142.1C57.3919 142.077 57.4783 141.909 57.4073 141.77Z" fill="#FEDEDE"/>
<path d="M107.421 171.598C101.71 169.624 94.9238 168.548 90.4906 165.356C90.2232 165.164 90.0201 164.897 89.8962 164.591C88.8808 162.102 87.8258 158.923 86.0872 156.97C85.7108 156.544 85.2997 156.153 84.8737 155.779C84.8687 154.872 85.1907 152.373 84.8737 152.032C82.085 149.023 77.9935 145.792 74.0854 144.455C69.8751 143.014 64.7634 143.172 60.2361 143.247C59.5921 142.181 58.8837 141.153 58.111 140.162C58.0615 139.981 57.9278 139.818 57.7544 139.709C57.4027 139.3 56.9074 139.49 56.6796 139.865C53.8809 142.034 51.1863 142.868 47.5357 142.296C47.0998 142.229 46.7879 142.503 46.664 142.828C46.565 142.979 46.5252 143.177 46.6044 143.411C47.0156 144.589 47.4713 145.749 47.9567 146.898C44.4003 151.475 41.4828 158.091 41.993 163.975C42.2556 166.975 43.276 169.879 44.9056 172.407C51.3499 182.404 61.3851 190.568 73.9466 195.53C78.9346 197.5 84.428 197.751 89.6834 198.797C91.9421 199.247 94.7554 200.156 96.9547 199.278C97.2767 199.15 97.2025 177.784 105.791 172.915C106.381 172.58 108.085 171.827 107.421 171.598Z" fill="#8C3747"/>
<path d="M78.5821 188.186C78.5429 188.23 78.4989 188.273 78.4598 188.317C78.2641 188.198 78.0147 188.157 77.7261 188.25C75.3489 189.018 70.7314 190.649 68.2124 190.227C64.9841 189.685 63.4677 187.005 62.4992 184.11C60.7579 178.889 62.2448 172.257 61.7019 166.813C61.3155 162.947 60.7237 158.852 58.0628 155.82C56.4437 153.968 54.1888 152.88 51.8263 152.309C50.1583 151.906 46.7343 149.479 45.6093 150.817C45.1397 151.378 42.7088 155.685 42.0974 157.681C40.5322 162.805 40.8745 165.838 41.8723 171.075C43.1637 177.883 46.5338 186.297 50.1877 192.202C53.098 196.901 55.622 202.172 61.6726 201.393C64.5634 201.02 69.6846 198.927 71.8662 197.143C74.7325 194.798 77.4179 192.254 79.9516 189.557C80.8076 188.649 79.4429 187.275 78.5821 188.186Z" fill="#FCAC86"/>
<path d="M58.8209 143.229C56.3541 146.63 51.9066 147.223 48.5606 146.933C48.2348 146.905 48.2348 147.59 48.5606 147.619C52.0514 147.921 56.6127 147.256 59.1829 143.714C59.4105 143.398 59.0536 142.912 58.8209 143.229Z" fill="#36191E"/>
<path d="M46.8561 188.106C47.0115 188.416 47.3121 188.63 47.6579 188.658C49.9079 188.837 52.5788 188.502 54.6333 188.045C58.2213 187.247 62.1248 185.298 64.7256 182.677C63.117 177.516 62.8967 172.028 62.3655 166.696C61.9746 162.745 61.749 157.22 59.028 154.122C57.3643 152.229 54.8788 151.298 52.4635 150.715C50.7497 150.303 46.851 147.612 45.6985 148.979C45.2174 149.553 41.8549 155.282 41.2335 157.323C39.625 162.559 39.9407 165.85 40.963 171.202C41.9702 176.478 44.2053 182.771 46.8561 188.106Z" fill="#8C3747"/>
<path d="M54.8817 147.167C52.1465 145.823 48.3399 145.09 46.6371 142.226C46.0696 141.276 44.4697 138.064 43.8924 137.125C43.7015 136.811 42.3901 135.18 42.6005 134.809C43.8873 132.57 45.0323 130.209 45.1203 127.57C45.1791 125.72 44.3032 123.747 46.6861 123.06C48.9662 122.401 51.2757 122.626 53.4579 123.514C54.231 123.829 54.7349 124.664 55.4982 125.022C56.7263 125.601 56.741 124.448 56.2322 123.783C55.6108 122.968 54.6958 121.692 53.9423 120.996C50.527 117.843 45.5217 117.978 41.5193 119.804C36.9542 121.884 33.9304 125.963 33.0741 130.962C32.5604 133.989 32.7217 137.286 34.4881 139.885C36.2935 142.55 39.3712 143.845 42.4145 144.376C43.3099 144.532 44.2104 145.298 44.6507 146.071C45.5119 147.596 44.132 149.269 45.3895 150.724C45.9668 151.386 46.7839 151.777 47.601 152.066C49.0346 152.568 50.6737 152.896 51.9067 153.839C54.5978 155.895 55.8259 159.431 56.4571 162.666C56.5501 163.151 56.697 163.696 57.1618 163.943C57.4407 164.09 57.7636 164.098 58.0767 164.092C60.1856 164.049 62.3875 163.776 62.8033 161.315C63.2143 158.874 62.2748 155.871 61.2913 153.696C59.9849 150.805 57.7441 148.603 54.9503 147.201C54.9307 147.19 54.9061 147.178 54.8817 147.167Z" fill="#36191E"/>
<path d="M55.5532 129.653C55.2887 128.665 54.329 128.123 53.4374 127.673C53.0142 127.46 52.6364 128.064 53.0595 128.277C53.6792 128.588 54.3894 128.915 54.6992 129.538C55.1073 130.34 54.5633 131.099 53.9135 131.605C53.5432 131.893 54.0722 132.386 54.4424 132.099C55.183 131.52 55.8026 130.591 55.5532 129.653Z" fill="#FEDEDE"/>
<path d="M52.5576 131.314C52.36 131.454 52.18 131.611 52.0219 131.795C51.8331 132.009 52.1404 132.33 52.3293 132.115C52.4654 131.96 52.6103 131.823 52.7771 131.705C53.0055 131.542 52.7903 131.149 52.5576 131.314Z" fill="#FEDEDE"/>
<path d="M241.092 183.255C239.816 183.097 238.66 184.029 238.01 184.798C235.623 187.613 233.286 190.409 229.752 191.86C226.189 193.324 222.418 192.858 218.666 193.537C217.956 193.667 217.758 194.323 217.946 194.822C217.936 194.893 217.936 194.967 217.941 195.046C218.17 197.638 219.812 203.789 220.606 203.308C224.948 203.489 228.789 204.455 230.169 204.899C232.621 205.689 234.621 204.21 235.152 202.329C235.678 200.478 235.603 198.637 237.127 196.532C238.725 194.319 245.34 183.783 241.092 183.255Z" fill="#8C3747"/>
<path d="M239.087 186.369C238.035 185.586 236.542 185.833 235.581 186.188C232.049 187.487 228.578 188.797 224.723 188.307C220.827 187.813 217.72 185.498 214.062 184.214C213.364 183.97 212.858 184.453 212.777 184.993C212.732 185.051 212.691 185.116 212.661 185.189C211.558 187.608 209.923 193.901 210.87 193.874C214.624 196.221 217.538 199.014 218.54 200.105C220.311 202.04 222.825 201.733 224.242 200.33C225.639 198.949 226.494 197.275 228.902 196.171C231.432 195.01 242.578 188.977 239.087 186.369Z" fill="#8C3747"/>
<path d="M55.5991 127.312C55.6623 126.85 55.4209 126.167 55.172 125.931C54.6817 125.462 54.6001 126.411 54.7969 126.97C54.8675 127.175 54.9566 127.372 55.0829 127.499C55.2612 127.681 55.5434 127.712 55.5991 127.312Z" fill="#2B100D"/>
<path d="M49.2134 130.972C49.3281 130.434 48.7354 128.978 48.4008 129.605C48.1969 129.988 48.4039 130.657 48.5792 130.969C48.7545 131.28 49.0954 131.454 49.2102 130.987C49.2133 130.982 49.2134 130.977 49.2134 130.972Z" fill="#2B100D"/>
<path d="M54.5773 124.357C53.7431 123.425 51.3883 124.387 52.0924 125.516C52.5657 126.278 53.8376 125.319 54.305 125.06C54.6304 124.878 54.8435 124.651 54.5773 124.357Z" fill="#36191E"/>
<path d="M217.241 183.324C217.161 183.264 217.081 183.225 216.997 183.196C205.309 174.011 184.191 158.991 169.397 159.55C142.371 160.571 122.979 165.351 110.483 171.289C110.209 171.419 110.059 171.622 110.01 171.847C109.077 171.285 107.905 172.611 108.808 173.4C113.47 177.477 118.262 181.631 123.966 183.927C130.444 186.531 137.405 185.62 144.121 184.876C152.603 183.935 161.03 182.543 169.382 180.725C169.686 180.658 170.01 180.699 170.294 180.839C179.828 185.496 210.848 195.459 211.871 195.078C215.69 193.659 217.241 190.358 221.29 188.071C222.427 187.427 219.185 184.758 217.241 183.324Z" fill="white"/>
<path d="M48.9096 126.834C48.5646 126.596 48.0051 126.768 47.6648 126.918C46.9328 127.242 46.3221 127.693 46.5365 128.355C46.6391 128.686 47.1613 128.487 47.3291 128.405C47.814 128.17 48.3689 128.026 48.8491 127.785C49.334 127.54 49.3525 127.143 48.9096 126.834Z" fill="#36191E"/>
<path d="M56.4005 133.149C55.5609 132.929 54.8708 133.463 54.7116 133.858C54.5861 134.17 55.3485 133.911 55.4933 133.861C55.6863 133.793 56.9023 133.281 56.4005 133.149Z" fill="#F4F3F8"/>
<path d="M111.216 159.806C111.107 155.227 109.565 151.077 108.676 146.586C107.798 142.162 106.648 137.358 107.212 136.408C108.932 133.508 102.021 127.592 98.4614 127.869C98.2471 127.886 98.111 128.005 98.0326 128.152C97.7974 128.121 99.1147 125.484 97.8497 127.435C95.513 131.045 97.1023 136.258 97.991 140.144C98.8744 143.998 99.2403 148.055 99.3448 152.039C99.3971 154.096 99.3867 156.156 99.3605 158.214C99.3344 160.105 99.1252 162.032 100.218 163.723C101.64 165.922 102.277 169.161 104.661 170.339C105.931 170.968 108.911 169.242 109.397 168.44C110.537 166.563 111.264 161.941 111.216 159.806Z" fill="#FCAC86"/>
<path d="M175.617 184.51C168.901 182.894 141.765 180.437 134.299 179.614C134.279 179.612 134.258 179.615 134.238 179.614C133.573 179.575 132.297 178.401 131.696 178.049C130.776 177.504 129.845 176.979 128.899 176.476C126.952 175.442 124.961 174.504 122.909 173.691C118.911 172.104 114.658 171.119 110.489 170.169C109.088 169.851 103.238 168.862 102.017 168.137C100.081 166.991 98.2192 168.55 96.9482 169.936C93.5204 173.678 90.6631 177.951 88.6915 182.627C86.75 187.228 84.7734 193.298 86.1545 198.271C86.5498 199.692 89.7674 199.632 90.8583 199.768C94.9917 200.284 94.8114 201.809 98.9598 202.2C110.929 203.327 130.17 203.917 142.16 202.858C150.216 202.129 158.283 201.91 166.364 202.365C174.281 202.81 181.237 203.187 189.743 204.915C200.332 207.066 214.328 205.444 221.464 205.409C222.29 205.405 223.04 204.902 223.35 204.138C223.936 202.699 224.431 201.231 224.697 199.685C225.052 197.626 225.147 195.859 225.172 193.833C225.177 193.286 224.837 192.793 224.321 192.612C217.966 190.375 182.242 186.105 175.617 184.51Z" fill="white"/>
<path d="M218.591 184.149C215.61 185.204 213.145 187.425 210.549 189.293C208.553 190.733 206.337 191.72 204.205 192.89C208.646 194.311 211.769 195.197 212.076 195.078C215.815 193.637 217.332 190.285 221.295 187.963C222.183 187.441 220.338 185.607 218.591 184.149Z" fill="#36191E"/>
<path d="M194.177 205.61C203.993 206.644 215.265 205.437 221.44 205.407C222.271 205.403 223.026 204.897 223.339 204.129C223.928 202.681 224.427 201.204 224.694 199.648C225.051 197.576 225.147 195.799 225.172 193.759C225.177 193.21 224.835 192.714 224.316 192.531C222.075 191.743 216.212 190.705 209.251 189.619C207.01 190.877 204.613 191.825 202.396 193.145C199.782 194.702 197.743 196.806 196.438 199.559L194.177 205.61Z" fill="#36191E"/>
<path d="M96.4777 173.828C96.6969 173.528 98.7041 172.811 98.4302 172.604C95.1926 170.171 90.8743 169.77 87.0639 171.673C85.9233 172.244 84.972 173.396 84.0804 174.272C82.3322 175.982 80.6186 177.72 78.8155 179.367C74.3925 183.401 68.814 187.412 62.7075 188.269C61.5021 188.438 60.2271 188.359 59.0616 188.743C54.7332 190.167 46.206 185.871 52.2129 196.505C54.8278 201.139 59.1013 203.363 64.4109 201.97C69.0531 200.752 74.8658 197.01 78.4719 193.883C83.0145 189.942 87.029 186.819 96.4777 173.828Z" fill="#FCAC86"/>
<path d="M99.3539 167.661C98.9548 167.367 98.535 167.11 98.0996 166.907C97.5502 166.653 97.2808 166.467 96.9283 166.009C96.581 165.556 95.8189 165.052 95.1814 165.013C93.5642 164.913 92.31 165.787 90.8587 166.551C90.8846 166.379 90.9624 166.155 90.8328 166.008C89.4489 164.473 86.339 167.315 85.5615 168.472C85.0898 169.179 84.4367 173.073 82.9646 174.97C82.8506 175.115 84.2708 174.329 84.3797 174.42C84.3797 174.721 84.6855 175.018 85.0017 174.802C85.8258 174.248 87.4171 174.332 88.3242 174.618C88.4486 174.657 88.5574 174.639 88.6455 174.586C88.9876 174.823 89.3245 175.071 89.6459 175.345C90.2938 175.903 90.8536 176.523 91.6155 176.925C91.6674 177.134 92.6625 177.825 92.9372 177.764C95.0935 177.286 97.2237 176.459 99.0222 175.172C99.9293 174.523 100.748 173.752 101.396 172.849C102.22 171.699 102.422 170.895 101.464 169.71C100.868 168.975 100.152 168.246 99.3539 167.661Z" fill="#FCAC86"/>
<path d="M113.942 124.412C113.845 122.878 114.109 118.403 112.022 117.968C111.758 117.913 111.529 117.743 111.463 117.489C111.3 116.895 111.087 116.572 110.183 116.727C109.37 116.868 108.918 117.684 108.73 118.441C108.675 118.676 108.507 118.883 108.263 118.939C107.247 119.171 106.328 120.623 106.135 121.717C105.917 122.976 105.942 124.153 105.292 125.307C105.038 125.757 103.062 128.346 102.265 127.531C101.858 127.114 103.139 125.897 103.367 125.542C103.794 124.868 104.205 124.044 104.281 123.247C104.332 122.702 104.408 121.963 103.773 121.75C102.61 121.359 100.944 123.837 100.32 124.52C99.1058 125.848 97.8918 127.266 97.1756 128.918C96.1395 131.307 96.6169 135.575 98.3438 137.605C99.8675 139.398 104.886 138.35 106.47 137.17C106.546 137.111 106.592 137.043 106.618 136.974C106.623 136.967 106.633 136.965 106.638 136.957C109.528 133.68 114.221 129.069 113.942 124.412Z" fill="#FCAC86"/>
<path d="M63.4541 187.817C62.7781 188.089 62.0591 188.259 61.3022 188.321C61.007 188.346 61.0023 188.731 61.3022 188.706C62.1448 188.636 62.9352 188.452 63.6921 188.149C63.9682 188.04 63.7255 187.708 63.4541 187.817Z" fill="#FEDEDE"/>
<path d="M112.694 120.361C111.704 120.854 111.352 121.952 111.135 123.004C110.806 124.586 111.38 126.923 110.13 128.099C109.177 128.999 107.752 129.178 106.724 129.995C105.817 130.716 105.197 131.682 104.85 132.805C104.757 133.098 105.202 133.224 105.289 132.932C105.729 131.508 106.678 130.418 107.969 129.765C108.885 129.301 109.978 129.036 110.672 128.206C111.306 127.453 111.361 126.468 111.38 125.514C111.407 124.031 111.403 121.532 112.926 120.773C113.189 120.64 112.958 120.228 112.694 120.361Z" fill="#FEDEDE"/>
<path d="M110.859 118.557C108.027 120.513 110.174 124.276 107.651 126.338C107.413 126.533 107.768 126.85 108.006 126.655C110.529 124.591 108.412 120.808 111.113 118.944C111.366 118.77 111.118 118.38 110.859 118.557Z" fill="#FEDEDE"/>
<path d="M108.848 119.531C107.204 121.565 108.527 124.763 105.874 126.273C105.577 126.444 105.863 126.847 106.166 126.674C109.058 125.03 107.606 121.913 109.349 119.765C109.548 119.513 109.052 119.28 108.848 119.531Z" fill="#FEDEDE"/>
<path d="M90.8353 166.869C90.3656 167.211 89.9093 167.58 89.471 167.978C89.0908 168.323 88.6703 168.677 88.4511 169.183C88.3303 169.471 88.7151 169.725 88.8358 169.435C89.0327 168.974 89.4397 168.646 89.7841 168.331C90.1911 167.96 90.6206 167.619 91.0589 167.299C91.3005 167.126 91.0768 166.694 90.8353 166.869Z" fill="#FEDEDE"/>
<path d="M100.241 167.894C100.103 167.677 99.9301 167.484 99.7231 167.315C99.1825 166.839 98.7168 166.597 98.1015 166.58C97.3138 165.938 96.5662 165.238 95.4679 165.058C94.3236 164.87 93.231 165.206 92.219 165.656C91.8912 165.801 92.1788 166.235 92.5065 166.09C93.4036 165.69 94.3695 165.384 95.3931 165.57C96.1866 165.714 96.779 166.174 97.354 166.651C95.9222 166.929 94.5421 167.517 93.3001 168.179C92.9838 168.346 93.2713 168.781 93.5876 168.614C94.4386 168.161 95.3183 167.77 96.2556 167.472C97.4057 167.105 98.3488 166.789 99.3378 167.691C99.5104 167.832 99.6368 167.975 99.7518 168.148C99.9301 168.431 100.419 168.177 100.241 167.894Z" fill="#FEDEDE"/>
<path d="M99.8828 168.668C98.4771 169.048 97.1454 169.507 95.8742 170.056C95.5177 170.21 95.8473 170.594 96.2105 170.438C97.4279 169.91 98.7126 169.461 100.058 169.096C100.448 168.99 100.28 168.561 99.8828 168.668Z" fill="#FEDEDE"/>
<path d="M101.637 169.613C100.564 170.283 99.536 171.015 98.5587 171.806C98.2521 172.055 98.6992 172.469 99.0058 172.221C99.9448 171.463 100.928 170.763 101.957 170.12C102.295 169.911 101.982 169.402 101.637 169.613Z" fill="#FEDEDE"/>
<path d="M151.151 181.888C142.096 180.718 132.986 179.959 123.851 179.618C123.836 179.618 123.831 179.622 123.821 179.623C122.268 178.754 120.6 178.136 118.822 177.774C118.512 177.711 118.377 178.146 118.687 178.209C120.45 178.567 122.088 179.174 123.622 180.039C123.692 180.077 123.756 180.081 123.816 180.062C123.826 180.064 123.836 180.069 123.851 180.069C132.941 180.409 142.011 181.159 151.021 182.323C151.331 182.363 151.466 181.928 151.151 181.888Z" fill="#36191E"/>
<path d="M215.875 191.775C207.252 189.798 198.578 188.169 189.858 186.886C189.536 186.839 189.541 187.433 189.858 187.48C198.532 188.756 207.16 190.38 215.737 192.347C216.059 192.42 216.191 191.849 215.875 191.775Z" fill="#36191E"/>
<path d="M94.3349 182.452C93.0318 185.194 91.9989 188.032 91.2997 190.956C90.9818 192.281 90.7327 193.62 90.5473 194.966C90.3937 196.081 89.9065 197.633 90.664 198.628C90.8547 198.881 91.3101 198.64 91.1194 198.384C90.3301 197.351 91.0454 195.049 91.2308 193.928C91.4374 192.682 91.7022 191.443 92.0254 190.217C92.6981 187.638 93.6304 185.126 94.7852 182.696C94.9176 182.414 94.4673 182.167 94.3349 182.452Z" fill="#36191E"/>
<path d="M88.4075 161.978C86.7639 158.126 84.1755 154.403 79.6394 153.165C79.3139 153.075 79.1698 153.545 79.4954 153.634C83.8447 154.822 86.3262 158.421 87.9006 162.106C88.0233 162.395 88.5356 162.27 88.4075 161.978Z" fill="#36191E"/>
<path d="M58.764 168.773C58.6191 168.494 58.2341 168.745 58.3745 169.024C60.4533 173.1 61.8302 177.517 62.4688 182.146C62.5095 182.461 62.9443 182.327 62.899 182.013C62.2559 177.346 60.8564 172.881 58.764 168.773Z" fill="#36191E"/>
<path d="M46.1973 142.237C45.5949 142.565 45.098 143.066 44.7068 143.701C44.5582 143.943 44.8947 144.176 45.0433 143.937C45.3954 143.367 45.857 142.934 46.3929 142.641C46.6198 142.516 46.4203 142.114 46.1973 142.237Z" fill="#693536"/>
<path d="M46.2453 122.165C43.557 122.009 42.1583 124.407 41.5707 126.627C40.7907 129.592 40.8687 132.701 41.6487 135.655C41.7319 135.966 42.2259 135.834 42.1427 135.521C41.5031 133.086 41.3471 130.564 41.7787 128.079C42.1895 125.738 43.2138 122.49 46.2453 122.666C46.5781 122.685 46.5729 122.185 46.2453 122.165Z" fill="#693536"/>
<path d="M57.3709 125.34C56.6991 124.495 55.9292 123.756 55.0663 123.119C54.8028 122.919 54.5444 123.379 54.8079 123.576C55.6347 124.188 56.3633 124.906 57.0092 125.715C57.2159 125.979 57.5775 125.602 57.3709 125.34Z" fill="#693536"/>
<path d="M40.8943 136.25C37.8467 134.36 36.4667 131.183 37.2653 127.952C37.3475 127.627 36.7839 127.488 36.7017 127.814C35.8503 131.287 37.3299 134.668 40.6007 136.698C40.906 136.889 41.1996 136.44 40.8943 136.25Z" fill="#693536"/>
<path d="M56.9521 153.302C54.3958 151.773 50.479 151.159 49.6947 147.851C49.6269 147.558 49.1669 147.682 49.2347 147.975C49.8109 150.419 52.1541 151.608 54.3231 152.55C55.6739 153.138 57.0926 153.73 58.1287 154.797C59.3149 156.019 59.8087 157.656 59.6634 159.311C59.6392 159.61 60.1185 159.609 60.1427 159.311C60.3605 156.81 59.1308 154.604 56.9521 153.302Z" fill="#693536"/>
<path d="M60.0522 152.653C59.1072 151.955 58.0271 151.51 56.8552 151.334C56.5204 151.283 56.3747 151.784 56.715 151.835C57.8436 152.005 58.8696 152.429 59.7822 153.103C60.0576 153.304 60.3277 152.853 60.0522 152.653Z" fill="#693536"/>
<path d="M45.0351 135.933C44.9882 135.881 44.9307 135.833 44.8472 135.793C43.7099 135.231 41.5814 134.346 40.4754 135.444C39.5364 136.375 40.5851 137.606 41.6963 138.098C42.9014 138.629 44.9672 138.848 46.0314 138.002C47.1009 137.15 46.1202 136.387 45.0351 135.933Z" fill="#FCAC86"/>
<path d="M44.5598 136.44C44.0174 136.232 42.0095 135.248 41.9352 136.336C41.922 136.548 42.3552 136.547 42.3683 136.336C42.3946 135.94 43.2432 136.305 43.4706 136.391C43.7593 136.503 44.0524 136.614 44.3411 136.725C44.5904 136.82 44.8091 136.535 44.5598 136.44Z" fill="#FEDEDE"/>
<path d="M236.609 186.959C235.157 188.49 233.773 190.188 231.955 191.203C230.148 192.212 228.145 192.875 226.25 193.65C225.957 193.767 226.084 194.278 226.376 194.159C228.316 193.367 230.352 192.691 232.199 191.658C234.06 190.62 235.464 188.897 236.95 187.332C237.174 187.096 236.833 186.723 236.609 186.959Z" fill="#36191E"/>
<path d="M39.8586 162.295C34.5759 162.086 29.3773 163.184 24.7431 165.478C24.4479 165.624 24.7115 166.031 25.0067 165.885C29.5671 163.628 34.6655 162.561 39.8586 162.767C40.196 162.78 40.196 162.309 39.8586 162.295Z" fill="#36191E"/>
<path d="M37.0796 166.831C35.5921 167.039 34.5412 168.139 33.5287 169.12C32.3099 170.301 31.187 171.562 30.1313 172.882C29.9441 173.116 30.3567 173.344 30.5438 173.113C31.4844 171.933 32.4874 170.802 33.5622 169.737C34.5843 168.727 35.6831 167.485 37.2043 167.272C37.5066 167.23 37.3772 166.789 37.0796 166.831Z" fill="#36191E"/>
<path d="M23.6165 149.054C20.1509 145.957 18.3293 141.938 17.0105 137.842C16.9062 137.515 16.3173 137.654 16.4216 137.983C17.771 142.165 19.648 146.266 23.1871 149.427C23.457 149.672 23.8864 149.298 23.6165 149.054Z" fill="#7C989B"/>
<path d="M270.513 208.693C240.025 209.76 209.511 209.177 179.028 208.36C148.539 207.542 118.051 206.496 87.5471 206.659C70.3441 206.751 53.1411 207.236 35.9782 208.351C35.4522 204.587 34.8659 200.831 34.2147 197.084C34.1596 196.782 33.6838 196.91 33.7339 197.211C35.1316 205.199 36.2186 213.232 36.9901 221.297C37.0202 221.6 37.5161 221.603 37.486 221.297C37.0852 217.13 36.6044 212.972 36.0383 208.824C66.4366 206.852 96.925 206.875 127.373 207.492C157.877 208.109 188.365 209.31 218.879 209.657C236.092 209.853 253.31 209.772 270.513 209.17C270.834 209.158 270.834 208.681 270.513 208.693Z" fill="#36191E"/>
<path d="M78.7365 65.3971C75.5951 63.6208 72.6675 61.5673 70.0381 58.7699C67.5528 56.04 65.7934 52.6831 62.9254 50.2997C59.0086 47.0444 53.9286 44.9873 48.8289 44.711C38.6542 44.1609 28.7181 49.1237 25.0946 58.9764C23.1163 64.3537 23.3002 70.4316 25.3033 75.8C28.8573 85.3304 37.6055 91.3554 46.1747 96.0874C50.1213 98.2652 54.3561 100.244 57.4677 103.588C60.8278 107.195 62.4033 112.016 62.1846 116.89C62.12 118.342 64.0637 117.206 64.4066 116.659C66.1712 113.847 68.0052 110.966 70.6545 108.888C74.1886 106.117 78.4831 105.486 82.6832 104.331C86.3365 103.327 89.9154 101.348 93.2108 99.4646C96.1733 97.776 98.9766 95.6912 100.94 92.9137C105.93 85.8454 101.099 77.9848 95.0697 73.6212C92.4204 71.7048 89.1995 70.5723 86.247 69.1714C83.6375 67.9369 81.1273 66.7469 78.7365 65.3971Z" fill="#B7CFAE"/>
<path d="M267.421 19.6483C265.582 17.5564 263.362 15.7765 261.218 14.4518C253.827 9.88596 244.357 7.55062 235.87 6.09142C216.579 2.77306 196.497 6.51791 177.016 5.7567C156.874 4.96989 136.727 2.81722 116.555 3.98791C107.466 4.51579 98.317 5.16911 89.5687 7.89384C80.635 10.6743 73.4649 17.0345 71.5609 26.4953C70.153 33.4837 72.062 41.2158 76.7117 46.6477C84.3427 55.5606 97.4802 55.6479 106.74 62.1155C116.47 68.9092 122.407 79.615 135.67 74.1755C143.281 71.0559 150.581 67.2282 158.267 64.2933C169.371 60.0536 180.835 56.5285 192.614 54.7833C209.845 52.2307 227.422 53.6809 244.523 50.2867C250.52 49.096 256.789 47.7627 262.105 44.5964C267.341 41.4803 271.594 35.7975 271.665 29.496C271.705 25.8816 269.911 22.4794 267.421 19.6483Z" fill="#FFE68F"/>
<path d="M71.9312 7.23994C72.1474 6.03689 71.9753 4.79012 71.2726 3.58556C68.6881 -0.855137 61.9416 -0.319248 57.8093 0.725443C51.2594 2.38046 44.7439 6.34356 42.577 13.392C40.4691 20.2624 43.717 26.6728 49.8885 29.5691C52.7483 30.9104 56.1928 31.6927 59.1214 30.1347C60.9247 29.176 62.0597 27.3837 62.3987 25.3215C62.9687 21.9099 63.3176 18.1474 65.6171 15.4587C67.0863 13.7439 68.8994 12.3604 70.3195 10.5932C71.1351 9.57266 71.7199 8.42792 71.9312 7.23994Z" fill="#BBDC9C"/>
<path d="M214.557 88.9089C214.218 88.0789 213.708 87.2897 213.013 86.5651C210.295 83.7283 206.173 82.6305 203.679 79.5427C200.426 75.5137 199.172 70.5186 194.17 68.1589C184.406 63.5509 169.705 65.1591 162.509 73.8021C160.38 76.3576 159.735 79.2525 158.416 82.214C157.102 85.1616 154.589 87.0835 151.875 88.6981C146.563 91.8535 136.889 95.8954 138.818 103.763C140.437 110.346 149.951 111.607 155.568 112.321C161.239 113.042 167.046 113.213 172.753 112.875C180.993 112.386 189.243 110.972 197.183 108.728C202.18 107.316 207.272 104.951 210.95 101.218C213.993 98.1269 216.266 93.0239 214.557 88.9089Z" fill="#DAEFED"/>
<path d="M144.667 79.5357C144.072 77.6993 142.539 76.2562 140.339 76.6386C137.511 77.1314 134.943 78.6286 132.395 79.8706C128.832 81.6038 125.312 83.1616 121.294 83.3671C118.611 83.5042 115.207 82.1043 112.659 83.2106C110.715 84.0547 109.98 86.3054 110.439 88.2751C111.648 93.4357 117.373 96.7776 122.266 97.4817C126.429 98.0811 128.73 94.2366 131.196 91.5924C134.934 87.5939 141.809 88.7466 144.454 83.5018C145.049 82.319 145.092 80.8295 144.667 79.5357Z" fill="#6D9147"/>
<path d="M322.036 54.3404C317.416 46.9842 307.166 46.0719 299.176 46.627C291.241 47.1791 283.36 48.5218 275.704 50.6245C268.097 52.7127 260.769 55.7936 252.973 57.2022C240.03 59.5405 223.189 53.7965 211.714 61.5962C209.683 62.9748 207.846 65.0533 207.851 67.5816C207.851 71.0755 210.848 73.0997 214.019 73.8767C220.028 75.3503 226.295 74.646 232.423 75.1792C243.082 76.1059 253.202 79.5276 263.9 80.5635C274.857 81.624 285.964 81.2115 296.801 79.2988C303.756 78.071 310.889 76.1345 316.604 71.9106C319.487 69.7817 322.001 66.7372 323.091 63.348C324.057 60.3437 323.728 57.0393 322.036 54.3404Z" fill="#B7CFAE"/>
<path d="M287.83 28.9209C285.987 26.5043 282.767 24.3673 279.835 26.2376C278.042 27.379 277.846 29.3135 277.182 31.1599C276.595 32.7899 275.862 34.3567 275.232 35.9663C274.338 38.2301 273.615 40.8547 276.117 42.2991C277.661 43.1883 279.816 42.8201 281.443 42.4111C283.74 41.8329 286.114 40.7174 287.839 39.0387C290.933 36.029 290.214 32.052 287.83 28.9209Z" fill="#6D9147"/>
<path d="M316.809 88.9268C314.249 86.8384 311.22 85.3271 308.021 84.5123C301.838 82.9409 294.511 84.6119 288.359 85.6946C285.568 86.1859 283.018 87.2301 282.059 90.1034C280.268 95.4784 285.459 98.4868 288.901 101.398C292.514 104.45 293.241 108.669 298.747 108.477C305.502 108.242 318.878 104.139 320.757 96.4497C321.371 93.9486 319.812 91.7154 318.088 90.0598C317.676 89.665 317.247 89.2877 316.809 88.9268Z" fill="#EDCAAD"/>
<path d="M329.122 73.204C328.84 73.2919 328.564 73.3933 328.287 73.4971C326.024 74.3595 323.686 75.3843 321.519 76.5738C319.568 77.6454 316.591 79.0102 315.64 81.1321C314.65 83.3318 317.285 85.1925 318.788 86.3316C321.116 88.0919 323.842 87.7722 326.13 86.1513C328.87 84.2062 331.913 81.6709 333.26 78.5193C334.12 76.5043 333.678 73.1371 330.942 72.9393C330.324 72.8949 329.715 73.0182 329.122 73.204Z" fill="#DAEFED"/>
<path d="M288.875 266.195H291.621C292.016 266.195 292.356 265.888 292.411 265.472C292.89 261.936 294.563 248.964 295.358 243.408C295.46 242.696 294.684 242.3 294.271 242.587C294.271 242.587 287.852 244.371 288.698 244.372C288.693 244.395 288.684 244.415 288.684 244.44C288.684 244.44 288.247 261.044 288.075 265.318C288.056 265.797 288.419 266.195 288.875 266.195Z" fill="#4E5A60"/>
<path d="M296.078 172.516C295.525 168.174 292.613 163.994 287.856 164.095C287.557 164.101 287.317 164.193 287.128 164.339C286.679 164.376 286.245 164.636 286.061 165.186C283.059 174.248 279.454 185.76 270.464 190.531C266.196 192.793 261.275 194.031 256.583 195.038C251.342 196.164 245.997 196.775 240.637 196.875C235.566 196.97 230.575 196.493 225.549 195.842C220.877 195.237 210.117 195.002 205.56 196.547C197.318 199.341 194.171 233.681 199.641 241.695C199.945 242.142 247.488 249.044 250.929 248.871C256.772 248.577 254.873 240.668 266.091 238.804C270.539 238.065 275.066 236.846 278.706 234.062C282.177 231.408 284.166 227.547 285.717 223.552C287.771 218.274 289.068 212.727 290.459 207.249C291.895 201.607 293.286 195.948 294.353 190.223C295.4 184.598 296.806 178.25 296.078 172.516Z" fill="#EAA385"/>
<path d="M335.653 257.978L338.441 257.468C338.843 257.394 339.135 257.014 339.125 256.575C339.035 252.84 338.614 239.154 338.513 233.277C338.499 232.524 337.652 232.26 337.279 232.632C337.279 232.632 331.061 235.663 331.913 235.508C331.913 235.532 331.908 235.554 331.913 235.58C331.913 235.58 334.175 252.783 334.701 257.221C334.759 257.719 335.194 258.062 335.653 257.978Z" fill="#36191E"/>
<path d="M218.775 265.284H221.867C222.317 265.284 222.693 264.976 222.756 264.56C223.295 261.025 225.179 248.052 226.073 242.496C226.188 241.785 225.32 241.389 224.849 241.675C224.849 241.675 217.629 243.459 218.576 243.46C218.571 243.483 218.565 243.504 218.56 243.528C218.56 243.528 218.068 260.133 217.88 264.407C217.859 264.885 218.267 265.284 218.775 265.284Z" fill="#203B63"/>
<path d="M367.401 137.166C361.512 134.139 298.874 131.58 290.562 134.159C283.004 136.505 272.765 185.417 268.524 203.366C268.219 203.488 267.969 203.736 267.859 204.146C267.15 206.756 266.341 209.336 265.387 211.867C264.478 214.265 263.598 217.312 261.585 219.058C259.587 220.794 236.076 222.636 232.385 224.777C228.743 226.886 227.205 230.668 227.035 234.712C226.885 238.388 227.025 243.219 229.977 245.659C234.158 249.112 271.311 250.868 290.372 250.685C296.686 250.624 346.012 242.694 347.515 237.934C352.136 223.251 356.202 208.362 360.063 193.467C362.311 184.797 364.169 176.012 366.047 167.256C367.176 161.979 368.285 156.695 369.279 151.392C369.798 148.642 371.552 143.908 370.882 141.107C370.468 139.355 369.189 138.085 367.401 137.166Z" fill="#EAA385"/>
<path d="M236.565 247.992C232.585 250.783 228.686 253.672 224.868 256.66C224.509 256.729 224.185 257.013 224.276 257.439C224.863 260.265 225.405 263.101 225.912 265.947C225.952 266.187 226.524 266.861 226.889 266.849C231.527 266.693 234.039 267.501 238.601 266.849C239.092 266.779 239.806 263.104 239.756 262.715C239.295 259.285 235.867 247.52 236.054 247.224C236.393 246.688 237.229 247.527 236.565 247.992Z" fill="#203B63"/>
<path d="M240.505 261.852C240.391 261.348 239.966 261.022 239.521 261.087C237.79 261.341 234.646 261.991 232.238 261.146C231.917 261.034 231.581 261.1 231.334 260.843C230.716 260.204 230.043 259.639 229.326 259.163C228.694 258.745 226.681 257.859 225.925 258.007C225.5 258.09 225.198 258.612 224.917 258.948C224.521 259.419 224.135 259.897 223.755 260.382C222.993 261.35 222.257 262.344 221.545 263.363C220.971 264.18 213.887 269.11 212.893 269.849C212.152 270.397 211.103 270.899 210.807 271.948C210.49 273.058 210.342 274.763 211.588 275.124C212.829 275.485 216.077 275.252 217.308 275.036C218.994 274.739 226.429 272.835 228.115 272.556C233.746 271.623 240.099 270.652 241.063 270.53C241.473 270.478 241.622 270.078 241.572 269.715C241.444 266.89 241.098 264.497 240.505 261.852Z" fill="#E3E3E3"/>
<path d="M223.839 263.286C225.4 263.207 226.709 262.783 227.81 261.658C228.45 261.004 229.008 260.308 229.73 259.769C229.42 259.523 229.095 259.293 228.76 259.082C228.14 258.692 226.166 257.868 225.424 258.006C225.007 258.083 224.711 258.569 224.435 258.882C224.047 259.32 223.669 259.765 223.296 260.215C222.549 261.116 221.826 262.041 221.128 262.99C221.055 263.088 220.876 263.251 220.614 263.46C221.652 263.317 222.733 263.342 223.839 263.286Z" fill="#203B63"/>
<path d="M206.023 131.848C205.097 130.356 200.797 122.638 200.743 122.59C201.088 120.385 200.728 118.211 199.629 116.208C198.337 113.859 196.38 110.478 194.161 108.934C192.643 107.873 190.971 108.806 190.459 110.485C190.409 110.639 190.37 110.795 190.34 110.952C188.516 111.171 186.505 112.073 186.431 114.12C186.421 114.395 186.441 114.668 186.48 114.939C185.154 115.471 184.172 116.456 184.168 118.17C184.168 118.36 184.187 118.544 184.207 118.725C183.468 119.487 183.044 120.543 183.325 121.636C183.704 123.087 185.306 123.826 186.45 124.554C187.076 124.955 187.466 125.259 187.836 125.915C188.531 127.133 190.049 129.014 191.819 129.26C192.968 129.42 196.478 136.285 197.248 137.444C198.229 138.921 206.245 132.203 206.023 131.848Z" fill="#FCAC86"/>
<path d="M249.065 144.865C247.777 141.69 246.953 130.734 241.861 135.723C241.734 135.715 238.193 133.958 238.076 134.076C235.91 136.243 233.72 138.38 231.506 140.492C230.33 141.617 225.609 146.386 224.589 146.32C224.36 146.305 224.145 146.188 223.945 146.07C221.614 144.702 219.648 142.739 217.663 140.907C214.019 137.549 205.767 127.139 204.952 126.307C204.284 125.623 203.196 125.64 202.547 126.342C199.953 129.137 194.758 134.741 193.299 139.771C193.231 140.001 193.27 140.198 193.368 140.35C193.383 140.5 193.485 140.619 193.577 140.791C195.889 145.264 199.406 149.165 202.762 152.836C205.24 155.549 207.874 158.122 210.61 160.558C214.327 163.867 218.643 166.511 223.672 166.824C226.36 166.991 243.865 162.171 247.963 160.404C250.826 159.17 251.504 158.139 251.606 154.209C251.684 151.132 250.202 147.649 249.065 144.865Z" fill="#A3D9CF"/>
<path d="M266.991 194.72C258.052 192.681 248.93 191.77 239.793 191.151C231.265 190.574 221.869 189.57 213.707 192.729C196.773 199.281 204.57 220.48 208.917 232.984C212.244 242.557 216.531 251.773 221.655 260.526C221.701 260.6 221.752 260.658 221.808 260.708C221.904 260.949 239.534 258.7 239.3 256.811C238.934 253.852 236.959 246.931 236.501 243.985C235.15 235.321 233.617 226.687 231.915 218.084C231.859 217.787 232.083 217.506 232.387 217.496C236.74 217.351 241.012 217.834 245.537 218.354C251.607 219.053 257.122 217.742 262.623 215.212C267.026 213.187 272.893 210.359 274.985 205.678C277.22 200.68 267.26 194.46 266.991 194.72Z" fill="#42597C"/>
<path d="M213.538 256.252C208.031 255.83 202.509 255.546 196.982 255.395C196.626 255.208 196.137 255.222 195.879 255.629C194.177 258.334 192.435 261.019 190.646 263.685C190.496 263.91 190.45 264.847 190.769 265.086C194.786 268.103 200.143 268.994 204.484 271.558C204.948 271.835 205.52 271.533 205.685 271.136C206.453 269.293 206.959 266.591 208.088 264.889C209.506 262.759 213.321 255.394 213.708 255.279C214.409 255.071 214.461 256.322 213.538 256.252Z" fill="#203B63"/>
<path d="M233.851 191.439C233.008 193.128 233.238 194.38 234.955 195.198C237.235 196.285 239.679 196.347 241.724 197.979C245.686 201.138 247.03 206.505 247.71 211.303C248.027 213.532 248.293 215.902 249.366 217.916C249.535 218.233 249.724 218.523 249.929 218.791C254.289 218.58 258.42 217.35 262.545 215.43C266.973 213.365 272.877 210.482 274.983 205.708C277.232 200.612 267.208 194.268 266.937 194.534C257.939 192.455 248.758 191.526 239.561 190.894C237.859 190.778 236.121 190.645 234.367 190.53C234.183 190.825 234.005 191.125 233.851 191.439Z" fill="#36191E"/>
<path d="M233.011 223.588C232.193 223.298 231.39 222.979 230.616 222.567C228.991 221.702 227.486 220.543 225.721 220.001C223.142 219.21 220.782 220.145 218.387 221.003C216.651 221.915 215.968 221.674 214.212 222.616C212.481 223.546 209.496 224.413 207.851 225.977C208.596 228.438 209.375 230.765 210.062 232.852C213.231 242.47 217.313 251.73 222.194 260.525C222.238 260.6 222.286 260.657 222.339 260.708C222.363 260.77 223.466 260.669 225.097 260.454C226.253 258.744 227.685 257.182 229.204 255.662C230.162 254.707 231.11 253.692 231.753 252.471C232.556 250.949 232.793 249.37 233.127 247.698C233.552 245.544 234.776 243.993 236.112 242.452C235.163 236.148 234.128 229.86 233.011 223.588Z" fill="#203B63"/>
<path d="M310.495 194.254C301.942 193.582 297.183 197.487 288.625 198.084C281.674 198.57 274.719 198.917 267.773 199.492C258.359 200.272 248.391 200.879 239.279 203.495C230.765 205.938 223.345 212.427 217.646 219.066C212.976 224.508 208.663 230.268 204.735 236.275C200.035 243.46 195.919 251.008 192.367 258.829C191.729 260.236 213.204 260.043 214.851 258.836C221.154 254.209 227.966 248.443 233.496 242.924C237.76 238.67 242.326 234.387 247.59 231.294C253.467 227.843 259.591 226.897 266.23 226.029C272.181 225.25 299.127 226.762 304.791 222.091C311.895 216.233 311.781 204.062 311.776 198.084C311.771 197.257 311.682 194.348 310.495 194.254Z" fill="#42597C"/>
<path d="M315.411 195.461C315.208 183.454 312.317 171.4 308.461 160.138C302.582 142.982 289.154 125.721 269.7 122.565C254.539 120.107 242.203 129.157 232.57 139.57C231.914 140.281 234.541 145.011 234.998 145.938C236.787 149.574 239.058 152.975 242.208 155.597C243.188 156.412 247.339 158.313 247.731 159.33C250.977 167.718 255.504 175.587 261.144 182.643C262.216 183.984 262.79 185.646 262.754 187.353C262.709 189.689 261.515 192.079 261.875 194.47C262.267 197.048 264.599 198.585 266.555 200.048C269.588 202.317 278.286 204.868 287.686 205.353C290.394 205.868 293.081 206.49 295.734 207.241C301.79 208.958 306.545 212.027 311.423 215.88C312.033 216.36 312.851 215.765 312.739 215.203C312.917 215.128 313.069 214.978 313.13 214.735C314.858 208.412 315.523 201.943 315.411 195.461Z" fill="#A3D9CF"/>
<path d="M314.147 182.333C311.826 182.166 308.367 184.908 307.103 185.871C304.902 187.556 302.975 189.504 300.81 191.222C298.857 192.773 296.775 194.237 294.351 195.103C291.549 196.105 288.389 196.062 285.437 196.361C282.014 196.707 278.605 197.149 275.244 197.85C272.898 198.341 270.629 199.003 268.62 200.263C268.412 200.395 268.215 200.534 268.019 200.674C272.162 202.44 278.797 204.279 286.52 204.654C287.623 204.85 289.342 204.886 290.435 205.116C293.988 204.928 297.065 203.236 300.577 202.673C303.876 202.144 307.284 202.249 310.552 201.587C312.111 201.272 313.898 200.75 315.333 199.864C315.416 198.249 315.442 196.63 315.411 195.011C315.333 190.777 314.882 186.538 314.147 182.333Z" fill="#42597C"/>
<path d="M254.873 127.301C257.15 128.192 260.498 127.077 262.589 126.165C264.465 125.348 266.917 123.948 268.019 122.016C266.488 119.527 261.96 113.017 261.054 109.011C260.883 108.259 259.85 108.379 259.587 108.947C256.657 111.288 251.978 112.366 249.907 115.527C249.683 115.869 249.795 116.197 250.043 116.403C249.902 116.602 249.868 116.861 250.038 117.129C252.149 120.466 253.899 123.325 254.869 127.255C254.869 127.269 254.869 127.287 254.873 127.301Z" fill="#FCAC86"/>
<path d="M255.82 113.042C254.02 114.066 250.967 113.671 249.918 115.332C249.673 115.72 249.796 116.093 250.067 116.326C249.913 116.552 249.876 116.846 250.062 117.15C250.722 118.239 252.336 121.117 252.922 122.158C255.735 121.068 256.779 117.297 255.82 113.042Z" fill="#FEDEDE"/>
<path d="M267.934 103.937C267.232 108.98 262.051 111.036 257.763 112.105C256.514 115.107 255.548 117.373 252.397 118.595C252.358 118.616 251.87 118.774 251.822 118.79C249.212 119.649 244.695 119.7 242.856 118.534C241.558 117.716 241.734 114.755 241.831 113.281C241.841 113.143 241.851 113.01 241.855 112.882L241.963 111.266C241.973 111.143 241.987 111.021 241.997 110.898C242.065 110.223 242.168 109.542 242.343 108.765C241.475 108.657 240.563 108.223 240.68 107.348C240.773 106.652 241.714 106.049 242.217 105.727C242.646 105.456 243.08 105.18 243.509 104.903C244.636 100.397 246.485 96.7252 251.49 95.6046C253.041 95.2467 256.383 94.6224 258.422 94.8631C263.471 95.4667 268.754 98.1164 267.934 103.937Z" fill="#FCAC86"/>
<path d="M266.339 117.689C265.934 118.078 265.753 118.659 265.578 119.176C265.378 119.75 265.127 120.278 264.827 120.807C264.146 121.993 263.314 123.087 262.423 124.118C261.822 124.807 261.196 125.478 260.55 126.127C259.919 126.765 259.158 127.271 258.597 127.974C258.132 128.553 257.776 128.438 258.142 129.052C258.948 130.39 260.095 132.344 261.166 133.495C261.642 134.005 262.348 134.179 262.969 133.818C263.245 133.66 269.218 128.44 270.741 122.933C271.001 122.004 267.2 116.865 266.339 117.689Z" fill="#84B5AC"/>
<path d="M259.937 126.617C258.807 127.398 257.461 127.401 256.231 126.742C254.667 125.902 253.232 122.689 253.143 123.107C252.408 126.538 252.224 130.238 253.143 133.632C253.237 133.994 253.827 134.127 254.133 133.892C254.244 133.808 254.311 133.691 254.378 133.576C254.962 132.587 255.585 131.613 256.242 130.666C256.682 130.026 257.372 128.614 258.217 128.343C258.234 128.327 258.239 128.308 258.251 128.29C258.991 128.247 259.747 128.001 260.493 127.486C261.05 127.1 260.504 126.225 259.937 126.617Z" fill="#84B5AC"/>
<path d="M258.742 103.081C258.302 101.06 257.067 99.207 255.162 99.0918C255.032 98.8985 254.892 98.7094 254.726 98.5279C254.52 98.3021 254.205 98.6584 254.412 98.8853C254.515 98.9959 254.601 99.1142 254.69 99.2335C254.632 99.3844 254.695 99.5929 254.883 99.5878C254.897 99.5873 254.906 99.5903 254.919 99.5898C255.526 100.622 255.71 101.885 255.593 103.151C255.45 104.697 254.762 106.091 254.587 107.608C254.511 108.28 254.901 109.133 255.58 109.355C256.155 109.544 256.168 109.027 256.487 108.582C257.134 107.678 258.095 107.316 258.567 106.23C258.994 105.256 258.967 104.113 258.742 103.081Z" fill="#693536"/>
<path d="M274.983 116.376C274.135 115.179 273.455 113.875 273.087 112.455C272.7 110.952 272.819 109.43 272.611 107.908C272.219 105.115 271.425 102.064 270.095 99.5548C266.814 93.3633 257.554 92.0484 251.4 93.5552C249.077 94.1255 247.454 95.6353 247.057 98.2975C246.918 99.1964 249.166 98.9905 249.683 99.0517C250.918 99.1968 252.298 99.437 253.315 100.186C254.363 100.955 255.127 102.106 255.712 103.247C256.77 105.309 256.536 107.603 257.062 109.784C257.539 111.739 257.598 113.696 258.601 115.437C259.549 117.082 261.43 118.891 263.013 119.983C264.368 120.916 265.941 121.395 267.499 121.864C268.551 122.182 269.469 122.967 270.591 123.062C271.117 123.106 271.589 122.956 272.1 122.891C272.795 122.802 273.499 122.917 274.189 122.973C275.47 123.078 277.018 122.878 277.127 121.324C277.207 120.186 276.666 118.964 276.085 118.013C275.742 117.451 275.36 116.913 274.983 116.376Z" fill="#693536"/>
<path d="M257.746 107.572C257.697 107.572 257.648 107.56 257.603 107.535C255.209 106.138 249.136 105.234 249.076 105.225C248.943 105.205 248.854 105.103 248.879 104.997C248.903 104.891 249.027 104.82 249.165 104.841C249.418 104.878 255.412 105.771 257.89 107.22C257.999 107.283 258.023 107.405 257.944 107.493C257.895 107.545 257.821 107.572 257.746 107.572Z" fill="#36191E"/>
<path d="M259.219 106.953C258.039 106 256.545 107.588 255.826 108.687C255.516 109.159 255.286 109.723 255.258 110.309C255.216 111.317 255.841 112.028 256.653 112.12C257.495 112.217 258.331 111.586 258.904 110.862C259.675 109.881 260.337 107.858 259.219 106.953Z" fill="#FCAC86"/>
<path d="M243.331 107.913C243.116 107.668 242.882 107.55 242.637 107.575C242.445 107.595 242.445 108.209 242.637 108.188C242.831 108.169 243.011 108.247 243.182 108.443C243.349 108.634 243.499 108.104 243.331 107.913Z" fill="#FEDEDE"/>
<path d="M246.846 104.922C246.41 104.526 246.108 105.63 246.142 105.976C246.172 106.295 246.306 106.755 246.639 106.643C247.079 106.495 247.196 105.238 246.846 104.922Z" fill="#2B100D"/>
<path d="M258.723 107.573C257.971 107.66 257.342 108.25 257.09 109.12C257.011 109.395 257.372 109.514 257.451 109.24C257.643 108.574 258.144 108.092 258.723 108.025C258.96 107.998 258.964 107.545 258.723 107.573Z" fill="#FEDEDE"/>
<path d="M244.104 111.389C243.708 111.331 243.227 111.311 242.808 111.282C242.459 111.256 242.052 111.265 241.708 111.219L241.581 112.13C241.656 112.127 241.742 112.119 241.834 112.107C242.361 112.041 242.871 111.957 243.376 111.862C243.72 111.801 244.236 111.709 244.31 111.536C244.339 111.47 244.264 111.412 244.104 111.389Z" fill="white"/>
<path d="M248.86 103.15C248.771 102.854 248.284 102.609 248.04 102.488C247.484 102.21 246.863 102.049 246.237 102.118C245.194 102.233 244.727 103.771 245.989 103.909C246.396 103.954 246.818 103.897 247.226 103.877C247.668 103.855 248.204 103.908 248.612 103.627C248.85 103.462 248.905 103.299 248.86 103.15Z" fill="#693536"/>
<path d="M244.98 110.157C244.715 110.026 244.431 109.922 244.148 109.841C243.575 109.676 242.988 109.499 242.391 109.407C241.764 109.312 240.213 109.789 240.8 110.532C241.006 110.796 241.622 110.833 241.97 110.877C242.851 110.986 243.981 110.823 244.348 111.64C244.519 112.008 246.159 112.291 246.139 112.027C246.115 111.668 246.081 111.29 245.899 110.954C245.718 110.616 245.376 110.355 244.98 110.157Z" fill="#693536"/>
<path d="M256.51 111.986C256.292 111.198 256.355 110.365 256.544 109.578C256.636 109.179 256.762 108.79 256.898 108.406C257.029 108.039 257.237 107.819 256.883 107.608C256.854 107.589 256.82 107.576 256.777 107.574C255.6 107.526 254.757 108.316 254.195 109.389C253.289 111.111 252.848 112.848 251.128 113.863C250.421 114.28 249.646 114.555 248.866 114.743C248.42 114.85 247.868 115.059 247.461 114.731C246.657 114.087 246.976 112.964 246.758 112.086C246.545 111.221 245.964 111.321 245.165 111.852C245.126 111.876 245.102 111.906 245.082 111.938C245.048 111.979 245.024 112.039 245.034 112.119C245.189 113.696 243.793 114.425 242.335 114.152C241.734 114.04 241.73 116.476 241.696 116.757C241.579 117.67 241.386 119.105 242.103 119.819C242.621 120.336 243.44 120.323 244.094 120.333C245.954 120.364 247.785 119.897 249.583 119.469C251.414 119.033 253.405 118.516 255.014 117.456C255.755 116.967 256.399 116.218 256.801 115.398C257.416 114.133 256.85 113.212 256.51 111.986Z" fill="#693536"/>
<path d="M245.162 103.695C244.979 104.321 244.602 105.983 244.999 107.914C245.004 107.953 245.02 107.986 245.035 108.016C245.32 108.524 245.966 108.919 246.459 108.89C246.78 108.874 247.008 108.699 247.151 108.372C247.502 107.541 247.812 106.641 248.072 105.697C248.092 105.624 248.117 105.54 248.143 105.448C248.296 104.946 248.55 104.106 248.174 103.893C247.894 103.739 246.332 103.573 245.36 103.518C245.264 103.518 245.193 103.584 245.162 103.695ZM246.413 109.395C245.732 109.395 244.959 108.919 244.592 108.261C244.552 108.185 244.521 108.105 244.506 108.016C244.099 106.048 244.44 104.376 244.674 103.555C244.775 103.213 245.06 102.996 245.391 103.015C245.411 103.016 247.894 103.16 248.418 103.453C249.155 103.864 248.825 104.947 248.626 105.595C248.601 105.682 248.575 105.761 248.555 105.83C248.296 106.796 247.975 107.718 247.614 108.57C247.395 109.074 246.998 109.367 246.485 109.393C246.464 109.395 246.439 109.395 246.413 109.395Z" fill="#36191E"/>
<path d="M244.959 104.837C244.911 104.837 244.862 104.82 244.819 104.784C244.492 104.51 243.955 104.71 243.772 104.81C243.633 104.886 243.477 104.798 243.424 104.614C243.37 104.43 243.434 104.22 243.568 104.144C243.606 104.124 244.476 103.646 245.098 104.171C245.227 104.275 245.265 104.497 245.189 104.666C245.136 104.777 245.05 104.837 244.959 104.837Z" fill="#36191E"/>
<path d="M256.784 107.582C256.222 107.717 255.728 107.926 255.322 108.213C255.111 108.362 255.454 108.583 255.664 108.434C256.011 108.188 256.432 107.999 256.916 107.884C257.205 107.815 257.078 107.513 256.784 107.582Z" fill="#36191E"/>
<path d="M257.955 106.332C257.354 105.356 256.886 104.309 256.556 103.17C256.477 102.895 256.1 103.013 256.178 103.291C256.52 104.463 256.996 105.555 257.617 106.561C257.762 106.796 258.101 106.57 257.955 106.332Z" fill="#36191E"/>
<path d="M266.089 118.047C261.653 115.049 261.869 108.85 261.188 103.992C260.68 100.362 258.279 96.2361 254.566 95.7234C254.27 95.6821 254.27 96.1754 254.566 96.2157C256.897 96.5379 258.735 98.6231 259.754 100.748C260.868 103.072 260.816 105.63 261.131 108.153C261.62 112.007 262.551 116.241 265.854 118.472C266.103 118.643 266.338 118.217 266.089 118.047Z" fill="#36191E"/>
<path d="M265.28 105.131C265.326 104.836 264.897 104.71 264.852 105.007C264.563 106.958 264.026 109.143 264.689 111.059C264.789 111.34 265.222 111.219 265.123 110.935C264.487 109.105 265.01 106.994 265.28 105.131Z" fill="#36191E"/>
<path d="M273.396 111.767C272.838 111.386 272.51 110.943 272.384 110.457C272.309 110.194 271.603 110.306 271.67 110.568C271.818 111.126 272.242 111.625 272.875 112.06C273.18 112.266 273.701 111.971 273.396 111.767Z" fill="#36191E"/>
<path d="M277.113 192.885C275.185 188.204 273.34 183.488 271.524 178.762C270.161 175.23 268.827 171.69 267.513 168.14C264.538 160.097 261.428 152.097 259.87 143.606C258.974 138.716 258.521 133.754 258.473 128.779C258.473 128.46 257.991 128.459 257.991 128.779C258.073 137.316 259.383 145.82 261.934 153.948C264.636 162.542 268 170.969 271.227 179.365C271.85 180.979 272.454 182.606 273.101 184.207C274.309 187.179 275.477 190.167 276.699 193.135C276.816 193.428 277.235 193.175 277.113 192.885Z" fill="#456772"/>
<path d="M270.122 192.099C269.821 190.233 269.188 188.185 266.859 188.556C263.1 189.155 261.66 188.617 259.214 188C257.166 187.485 255.072 186.607 252.917 186.969C250.987 187.293 249.674 189.229 247.841 189.885C243.541 191.42 238.792 190.356 234.369 191.193C232.668 191.513 233.47 192.727 234.43 193.383C235.436 194.07 244.869 198.038 250.88 198.543C257.391 199.091 263.866 198.302 270.373 198.189C271.236 198.174 270.373 193.95 270.301 193.423C270.25 193.02 270.194 192.565 270.122 192.099Z" fill="#FCAC86"/>
<path d="M250.405 192.763C248.452 193.299 245.532 194.144 243.748 192.411C243.493 192.164 243.262 192.781 243.512 193.027C245.466 194.921 248.391 194.037 250.528 193.451C250.825 193.369 250.698 192.682 250.405 192.763Z" fill="#36191E"/>
<path d="M208.328 191.984L232.615 184.229C232.766 184.156 232.933 184.133 233.095 184.16L254.339 187.695C255.505 187.889 255.578 188.973 254.447 189.371C245.027 192.684 233.051 197.766 230.788 198.629C230.533 198.726 230.273 198.756 230.009 198.721C227.78 198.418 212.659 194.672 209.112 193.736C208.069 193.46 207.319 192.455 208.328 191.984Z" fill="#183F4F"/>
<path d="M209.223 190.583L232.573 183.312C232.719 183.244 232.88 183.222 233.036 183.248L253.466 186.562C254.583 186.743 254.654 187.759 253.566 188.133C244.507 191.239 232.996 196.003 230.816 196.812C230.569 196.903 230.322 196.931 230.07 196.898C227.925 196.614 213.382 193.103 209.973 192.225C208.971 191.967 208.251 191.025 209.223 190.583Z" fill="#F5EBE1"/>
<path d="M310.727 161.947C307.349 153.236 303.324 143.593 296.934 136.666C293.912 133.391 289.987 130.826 286.133 128.543C285.923 128.415 284.284 132.033 284.249 132.211C279.898 133.771 278.37 136.78 277.889 141.525C277.307 147.263 281.186 153.105 283.803 157.934C286.795 163.456 289.987 168.976 291.716 175.06C292.173 176.671 292.824 178.566 292.669 180.255C292.473 182.425 290.669 183.335 288.84 183.985C282.419 186.272 265.91 186.393 262.346 186.451C261.925 186.458 261.605 186.819 261.64 187.239C262.056 192.354 263.539 200.801 266.962 201.735C267.073 201.937 293.671 204.407 307.359 198.125C313.584 195.268 315.403 191.146 315.423 184.566C315.448 176.791 313.498 169.094 310.727 161.947Z" fill="#A3D9CF"/>
<path d="M261.195 188.301C260.645 187.916 260.355 187.246 259.83 186.834C258.695 185.942 257.516 185.03 256.146 184.547C252.708 183.332 249.304 185.268 245.866 185.457C245.315 185.487 245.124 186.065 245.281 186.46C245.536 187.745 246.676 188.326 247.845 188.104C250.91 187.521 253.862 187.578 253.037 189.854C255.92 191.504 255.699 191.165 255.286 192.865C254.972 194.161 260.503 191.941 261.637 191.392C261.401 190.318 261.112 189.328 261.195 188.301Z" fill="#FCAC86"/>
<path d="M225.172 195.792C225.172 195.2 215.645 193.179 215.341 193.268C214.704 193.454 212.315 194.325 212.412 195.293C212.412 195.545 213.918 195.868 214.735 196.05C214.935 196.094 215.043 196.291 215.013 196.493C214.9 197.195 215.604 197.582 216.297 197.763C217.12 197.978 218.43 197.585 219.072 197.13C219.093 197.114 219.113 197.095 219.134 197.079C219.838 197.243 220.912 197.523 221.616 197.678C222.099 197.783 225.172 196.184 225.172 195.792Z" fill="#C9A17F"/>
<path d="M195.885 116.348C195.433 116.917 194.766 117.289 194.121 117.322C193.627 117.106 193.244 116.773 192.976 116.322C192.692 115.929 192.451 115.503 192.236 115.074C191.658 113.934 191.306 112.724 191.138 111.462C191.096 111.14 190.576 111.135 190.618 111.462C190.886 113.44 191.59 115.896 193.133 117.307C193.322 117.481 193.511 117.604 193.706 117.694C192.257 121.843 188.167 117.378 187.19 115.287C187.054 114.988 186.602 115.249 186.744 115.546C187.542 117.258 189.757 119.677 191.663 119.889C191.679 119.908 191.69 119.927 191.711 119.943C192.493 120.525 192.808 121.481 192.12 122.217C191.816 122.54 191.291 122.644 190.865 122.722C189.899 122.897 188.839 122.703 187.957 122.295C186.534 121.637 185.489 120.441 184.638 119.17C184.46 118.895 184.008 119.152 184.192 119.429C185.51 121.405 187.489 123.259 189.994 123.295C190.009 123.329 190.036 123.362 190.072 123.389C190.487 123.683 190.86 124.099 190.561 124.637C190.377 124.971 189.994 125.213 189.626 125.274C189.19 125.347 188.224 125.295 187.857 125.052C187.579 124.869 187.321 125.312 187.594 125.495C188.025 125.781 188.76 125.77 189.259 125.8C189.794 125.834 190.246 125.673 190.645 125.318C191.385 124.657 191.27 123.862 190.692 123.257C192.813 122.993 193.874 121.325 192.383 119.853C193.118 119.685 193.769 119.086 194.204 117.843C194.693 118.107 195.407 117.868 196 117.17C195.963 116.895 195.916 116.622 195.885 116.348Z" fill="#FEDEDE"/>
<path d="M195.992 116.692C195.404 110.2 194.685 103.722 193.842 97.2592C193.708 96.2461 192.228 96.5452 192.362 97.5579C193.206 104.021 193.924 110.498 194.512 116.99C194.556 117.498 195.166 118.583 195.538 118.508C195.905 118.433 196.035 117.197 195.992 116.692Z" fill="#36191E"/>
<path d="M202.136 119.396C202.101 119.279 202.066 119.162 202.026 119.047C201.511 117.501 197.297 109.057 195.823 109.406C194.833 109.641 194.698 111.339 194.718 112.09C194.748 113.728 195.777 114.79 196.307 116.267C197.242 118.845 194.538 120.399 193.673 122.642C193.263 123.699 193.133 124.673 193.418 125.713C193.333 126.051 193.493 126.476 193.953 126.596C196.457 127.244 201.891 125.095 202.061 124.269C202.366 122.773 202.561 120.865 202.136 119.396Z" fill="#FCAC86"/>
<path d="M196.2 115.807C196.122 115.658 196.083 116.088 196.063 116.351C196.063 116.383 196.073 116.415 196.088 116.443C196.583 117.248 196.333 118.29 195.867 119.066C194.674 121.055 192.209 123.231 193.765 125.693C193.927 125.952 194.35 125.714 194.183 125.454C193.279 124.021 194.026 122.502 194.89 121.251C195.518 120.34 196.603 119.321 196.863 118.226C197.065 117.367 196.598 116.539 196.2 115.807Z" fill="#FEDEDE"/>
<path d="M270.278 123.2C268.695 126.213 266.653 128.916 264.461 131.493C263.95 132.093 263.424 132.788 262.752 133.212C261.575 133.954 260.898 132.829 260.304 131.977C259.315 130.569 258.393 129.136 257.659 127.574C257.659 127.565 257.648 127.561 257.643 127.553C257.638 127.47 257.643 127.399 257.664 127.31C257.737 126.983 257.242 126.843 257.164 127.171C257.133 127.315 257.117 127.453 257.133 127.6C257.138 127.662 257.159 127.708 257.19 127.746C257.195 127.776 257.2 127.806 257.216 127.838C257.273 127.968 257.341 128.099 257.404 128.23C257.388 128.247 257.367 128.261 257.357 128.286C256.794 129.248 256.232 130.21 255.669 131.172C255.435 131.57 254.919 132.818 254.518 133.003C253.664 133.399 253.643 132.412 253.524 131.881C252.972 129.493 252.914 127.047 253.227 124.622C253.268 124.29 252.753 124.293 252.711 124.622C252.477 126.439 252.451 128.259 252.68 130.078C252.805 131.05 252.867 132.863 253.649 133.593C254.274 134.176 254.716 133.611 255.143 133.037C256.112 131.732 256.862 130.192 257.674 128.773C258.482 130.36 259.471 131.966 260.601 133.279C261.45 134.266 262.356 134.198 263.362 133.402C264.835 132.241 266.054 130.435 267.184 128.948C268.507 127.214 269.705 125.4 270.721 123.464C270.877 123.167 270.434 122.903 270.278 123.2Z" fill="#456772"/>
<path d="M247.896 159.142C245.938 157.122 244.269 154.854 242.906 152.354C242.764 152.096 242.382 152.329 242.524 152.587C243.909 155.12 245.601 157.42 247.585 159.468C247.79 159.676 248.1 159.35 247.896 159.142Z" fill="#456772"/>
<path d="M229.613 150.03C228.23 149.321 226.899 148.556 225.613 147.731C225.365 147.569 225.005 147.86 225.259 148.023C226.575 148.869 227.942 149.658 229.36 150.386C229.633 150.527 229.886 150.17 229.613 150.03Z" fill="#456772"/>
<path d="M263.222 199.652C258.309 199.595 253.41 200.008 248.568 200.778C243.922 201.516 239.226 202.457 234.883 204.269C226.9 207.599 220.8 213.9 215.21 220.189C214.997 220.425 215.351 220.772 215.563 220.534C221.027 214.388 226.965 208.216 234.716 204.868C238.989 203.024 243.629 202.078 248.219 201.327C253.178 200.515 258.192 200.082 263.222 200.14C263.54 200.144 263.54 199.656 263.222 199.652Z" fill="#203B63"/>
<path d="M246.581 227.105C245.215 229.248 243.573 231.211 241.653 232.991C241.427 233.2 241.787 233.518 242.012 233.308C243.963 231.501 245.631 229.507 247.017 227.332C247.176 227.08 246.74 226.853 246.581 227.105Z" fill="#36191E"/>
<path d="M292.046 175.77C291.026 173.571 289.985 171.38 288.925 169.198C286.768 164.764 284.53 160.369 282.217 156.011C282.07 155.733 281.636 155.977 281.782 156.254C283.878 160.198 285.909 164.171 287.874 168.177C288.839 170.144 289.788 172.119 290.718 174.101C291.688 176.158 293.471 178.769 292.965 181.103C292.395 183.274 288.617 183.775 286.748 184.239C284.146 184.884 281.494 185.343 278.832 185.665C273.816 186.272 268.75 186.397 263.699 186.4C263.381 186.4 263.381 186.884 263.699 186.884C269.392 186.88 275.105 186.716 280.742 185.895C283.57 185.484 286.374 184.907 289.111 184.1C290.778 183.612 293.036 183.074 293.471 181.181C293.481 181.148 293.476 181.118 293.476 181.089C293.814 179.192 292.829 177.462 292.046 175.77Z" fill="#456772"/>
<path d="M306.06 177.768C301.665 177.863 297.429 178.961 293.667 180.988C293.384 181.138 293.641 181.532 293.924 181.38C297.614 179.393 301.747 178.316 306.06 178.222C306.389 178.215 306.389 177.761 306.06 177.768Z" fill="#456772"/>
<path d="M230.472 194.469C225.232 192.47 219.913 190.853 214.536 189.624C214.232 189.554 214.1 190.159 214.409 190.23C219.786 191.459 225.104 193.075 230.339 195.074C230.643 195.188 230.771 194.582 230.472 194.469Z" fill="#EDCAAD"/>
<path d="M233.207 193.557C227.967 191.559 222.649 189.942 217.272 188.713C216.964 188.642 216.836 189.248 217.145 189.318C222.522 190.548 227.84 192.165 233.074 194.162C233.378 194.277 233.506 193.672 233.207 193.557Z" fill="#EDCAAD"/>
<path d="M235.03 192.645C229.791 190.647 224.473 189.031 219.097 187.801C218.788 187.731 218.66 188.336 218.964 188.407C224.346 189.636 229.663 191.253 234.897 193.251C235.201 193.366 235.329 192.759 235.03 192.645Z" fill="#EDCAAD"/>
<path d="M208.436 266.731C208.37 266.207 207.901 265.817 207.351 265.817C205.215 265.819 200.038 265.69 197.235 264.486C196.863 264.327 196.445 264.344 196.18 264.049C195.522 263.315 194.783 262.648 193.983 262.064C193.275 261.551 192.23 260.689 191.293 260.727C190.763 260.748 190.324 261.229 189.932 261.527C189.392 261.944 188.852 262.368 188.322 262.8C187.262 263.663 186.222 264.556 185.218 265.478C184.408 266.218 175.112 270.145 173.803 270.743C172.824 271.187 171.484 271.539 170.974 272.551C170.434 273.623 170.016 275.319 171.474 275.864C172.926 276.408 176.397 276.183 177.92 276.145C180.01 276.093 184.984 275.804 187.068 275.77C194.029 275.655 206.704 275.533 207.891 275.55C208.39 275.558 208.635 275.177 208.62 274.803C208.869 271.941 208.783 269.48 208.436 266.731Z" fill="#E3E3E3"/>
<path d="M229.288 262.713C228.841 264.43 227.495 265.593 226.172 266.687C225.95 266.867 226.19 267.241 226.411 267.058C227.834 265.884 229.243 264.651 229.722 262.811C229.794 262.535 229.361 262.437 229.288 262.713Z" fill="#36191E"/>
<path d="M357.182 176.09C356.699 171.786 354.161 167.641 350.01 167.741C349.751 167.747 349.542 167.839 349.378 167.983C348.985 168.02 348.607 168.278 348.447 168.823C345.824 177.807 342.405 191.925 334.561 196.655C330.843 198.899 289.743 192.825 277.668 201.435C271.402 205.902 268.306 236.731 273.074 244.675C273.343 245.118 283.208 248.127 286.209 247.956C291.305 247.664 296.382 246.758 301.444 246.046C311.289 244.661 321.243 243.657 331.028 241.809C334.91 241.076 338.862 239.867 342.032 237.107C345.058 234.476 346.795 230.648 348.149 226.688C349.936 221.454 351.065 215.955 352.285 210.524C353.534 204.931 354.743 199.321 355.679 193.645C356.59 188.068 357.819 181.774 357.182 176.09Z" fill="#EAA385"/>
<path d="M270.822 228.144C270.498 233.76 270.174 239.375 269.842 244.991C269.825 245.307 270.668 245.307 270.685 244.991C271.018 239.375 271.341 233.76 271.665 228.144C271.682 227.828 270.839 227.828 270.822 228.144Z" fill="#36191E"/>
<path d="M321.627 238.361C319.382 240.853 317.688 243.854 316.335 247.051C319.717 246.381 323.16 245.652 326.437 244.895C326.952 242.943 327.38 240.874 327.251 238.874C326.971 234.411 323.574 236.202 321.627 238.361Z" fill="#D68A6A"/>
<path d="M288.855 209.499C288.682 207.788 288.43 205.918 287.347 204.527C285.082 201.614 281.056 202.035 278.168 203.616C277.891 203.768 278.138 204.196 278.415 204.044C280.265 203.032 282.406 202.46 284.468 203.13C286.615 203.827 287.708 205.604 288.118 207.755C288.925 211.909 288.341 216.253 287.99 220.424L285.843 245.901C285.814 246.22 286.303 246.218 286.333 245.901C287.154 236.128 288.059 226.358 288.796 216.578C288.974 214.224 289.088 211.853 288.855 209.499Z" fill="#36191E"/>
<path d="M349.581 158.795L345.336 172.187C343.945 176.574 342.775 181.167 340.716 185.293C338.834 189.064 335.979 192.393 331.915 193.749C327.66 195.17 322.825 195.111 318.392 195.506C318.083 195.534 318.078 196.027 318.392 195.999C320.888 195.776 323.385 195.565 325.876 195.33C328.024 195.126 330.2 194.876 332.25 194.157C335.896 192.878 338.643 190.032 340.53 186.691C342.8 182.672 343.979 178.082 345.365 173.704C346.928 168.778 348.49 163.852 350.053 158.925C350.146 158.623 349.675 158.493 349.581 158.795Z" fill="#36191E"/>
<path d="M356.119 267.192C355.292 265.385 353.201 264.535 351.176 264.091C343.927 262.5 335.674 261.635 328.538 264.046C327.227 264.489 325.895 265.097 325.176 266.155C322.988 269.365 326.946 271.928 329.456 272.66C333.475 273.832 339.53 273.491 343.739 273.246C347.085 273.05 352.349 273.008 355.134 271.147C356.522 270.217 356.736 268.545 356.119 267.192Z" fill="#8C3747"/>
<path d="M356.329 225.879C350.46 222.632 332.622 222.773 327.954 224.816C326.545 225.433 325.506 226.538 325.065 227.858C323.554 232.415 320.315 244.506 320.016 251.021C319.879 254.044 320.087 257.27 321.699 260.013C323.428 262.945 326.565 264.506 329.87 265.847C330.97 267.584 334.686 267.744 336.637 267.87C341.361 268.175 344.646 268.009 349.319 267.397C350.211 267.281 350.576 266.111 350.703 266.001C356.081 264.214 360.815 260.71 361.778 255.674C362.518 251.81 360.222 228.034 356.329 225.879Z" fill="#7B91B1"/>
<path d="M358.215 252.858C351.344 259.099 341.386 261.896 332.461 262.865C329.215 263.218 325.958 263.284 322.716 263.11C324.515 265.143 327.049 266.42 329.694 267.548C330.8 269.383 334.536 269.551 336.498 269.684C341.248 270.007 344.551 269.831 349.25 269.185C350.147 269.062 350.514 267.825 350.641 267.709C356.049 265.821 360.809 262.119 361.777 256.797C361.997 255.599 361.951 252.587 361.68 248.874C360.697 250.323 359.535 251.659 358.215 252.858Z" fill="#EDCAAD"/>
<path d="M322.208 245.017C330.002 245.431 337.678 245.344 345.359 243.755C350.283 242.737 355.412 241.415 359.181 238.192C358.243 232.229 356.864 226.859 355.172 225.886C349.51 222.63 332.305 222.772 327.802 224.82C326.442 225.439 325.44 226.547 325.015 227.871C323.944 231.224 321.978 238.645 320.893 244.94C321.333 244.968 321.773 244.994 322.208 245.017Z" fill="#EDCAAD"/>
<path d="M368.175 181.891C370.093 178.647 371.356 175.006 371.885 171.243C372.16 169.251 372.18 167.19 372.739 165.25C373.434 162.842 374.892 160.971 376.585 159.219C379.431 156.277 382.278 153.452 384.735 150.135C386.987 147.089 389.139 143.783 390.662 140.273C391.741 137.793 392.62 134.653 391.431 132.04C388.2 124.926 379.686 130.244 376.27 134.049C371.106 139.805 370.432 147.22 367.136 153.963C365.214 157.905 362.138 159.883 358.837 162.335C355.851 164.556 353.468 167.566 352.055 171.079C348.595 179.694 350.242 189.156 349.503 198.208C348.984 204.571 346.577 212.484 343.046 218.378C342.477 219.331 341.064 218.639 341.393 217.571C342.108 215.252 343.671 212.875 344.435 211.051C345.264 209.082 345.918 207.013 345.693 204.838C345.428 202.276 343.92 200.093 343.501 197.575C342.607 192.188 347.646 188.136 348.225 182.956C348.495 180.53 347.915 178.131 347.366 175.792C346.467 171.996 345.998 168.497 346.941 164.642C347.651 161.749 349.164 159.188 349.978 156.358C350.452 154.718 350.552 152.817 349.418 151.418C346.527 147.846 341.888 152.649 340.065 155.014C333.209 163.914 332.165 175.777 333.029 186.726C333.338 190.657 334.047 194.337 332.609 198.128C331.69 200.551 330.637 202.745 330.991 205.422C331.201 206.997 331.7 208.509 332.235 209.993C332.724 211.356 333.493 212.53 334.047 213.87C334.856 215.817 335.311 217.921 335.376 220.038C335.471 223.039 334.772 225.875 335.461 228.857C338.297 229.29 341.094 229.559 343.96 229.708C346.812 229.855 349.393 229.251 352.175 228.813C352.18 228.807 352.19 228.803 352.2 228.797C354.207 227.337 355.646 223.667 357.738 222.242C359.591 220.983 361.653 220.346 363.771 219.765C366.987 218.883 370.113 217.721 371.601 214.374C373.558 209.981 369.983 205.217 372.869 201.142C375.541 197.378 380.21 194.61 384.09 192.358C386.797 190.787 390.343 189.033 390.627 185.375C391.212 177.862 379.661 178.782 375.546 180.374C371.661 181.878 368.385 184.615 365.863 187.996C363.91 190.618 362.677 193.506 361.498 196.452C361.114 197.41 359.721 197.137 359.721 196.101C359.721 194.253 360.02 192.454 361.029 190.782C363.002 187.514 366.198 185.231 368.175 181.891Z" fill="#6D9147"/>
<path d="M354.253 227.243C352.404 228.398 350.299 228.724 348.179 228.938C346.054 229.152 343.919 229.244 341.784 229.219C339.649 229.194 337.52 229.049 335.4 228.786C334.167 228.632 332.939 228.438 331.716 228.202C330.493 227.965 329.005 227.739 328.674 226.265C328.599 225.947 328.123 226.082 328.193 226.4C328.639 228.389 330.874 228.574 332.518 228.863C335.109 229.318 337.735 229.595 340.361 229.691C343.047 229.79 345.743 229.701 348.415 229.421C350.545 229.197 352.649 228.837 354.504 227.681C354.779 227.512 354.529 227.072 354.253 227.243Z" fill="#36191E"/>
<path d="M359.057 198.058C359.026 197.747 358.524 197.743 358.554 198.058C359.27 205.389 356.88 212.773 351.954 218.364C351.741 218.602 352.096 218.95 352.309 218.71C357.322 213.024 359.782 205.521 359.057 198.058Z" fill="#36191E"/>
<path d="M341.494 219.903C341.122 221.511 340.942 223.166 340.949 224.885C340.953 225.267 341.317 225.268 341.314 224.885C341.306 223.217 341.483 221.619 341.847 220.06C341.932 219.703 341.579 219.549 341.494 219.903Z" fill="#36191E"/>
<path d="M67.2201 84.4097C66.5697 83.4278 65.2574 83.8976 64.8898 84.9192C64.59 85.7365 64.6467 87.1069 65.5177 87.4443C66.875 87.9658 67.961 85.5196 67.2201 84.4097Z" fill="#36191E"/>
<path d="M188.498 88.7245C188.074 88.1592 187.34 88.2107 186.852 88.5933C179.993 81.7128 174.017 74.0393 168.131 66.3405C161.762 58.0107 155.527 49.5814 149.272 41.1664C145.78 36.4736 142.293 31.7803 138.807 27.088C139.096 26.6832 139.161 26.1709 138.841 25.8477C138.268 25.2621 137.111 25.5418 136.786 26.1521C136.527 26.6396 136.572 27.4573 137.345 27.6588C137.759 27.7681 138.148 27.6568 138.452 27.4405C144.737 35.8975 151.012 44.3605 157.312 52.8071C163.458 61.0523 169.593 69.3321 176.092 77.309C179.389 81.3544 182.831 85.2835 186.522 88.9804C186.492 89.0284 186.457 89.0729 186.437 89.1249C186.403 89.2175 186.373 89.3209 186.348 89.4278C155.162 87.3559 123.917 86.1893 92.6669 85.9547C83.7383 85.8873 74.8097 85.8967 65.881 85.9789C65.5568 85.9819 65.5567 86.4768 65.876 86.4739C97.625 86.1823 129.379 86.8322 161.083 88.4374C169.493 88.8631 177.898 89.3591 186.298 89.9174C186.303 90.4287 186.497 90.936 186.996 91.1063C188.188 91.5156 189.146 89.5961 188.498 88.7245Z" fill="#36191E"/>
<path d="M270.434 67.0885C269.56 66.1071 267.819 66.5763 267.322 67.5987C266.93 68.4161 266.998 69.7859 268.166 70.1233C269.967 70.6449 271.421 68.1991 270.434 67.0885Z" fill="#36191E"/>
<path d="M302.502 93.3908C302.065 92.6548 301.194 93.0067 300.945 93.773C300.749 94.3865 300.783 95.4139 301.367 95.6669C302.268 96.0581 302.992 94.2238 302.502 93.3908Z" fill="#36191E"/>
<path d="M281.533 32.3119C281.099 31.5755 280.223 31.9279 279.978 32.6941C279.781 33.3071 279.815 34.3348 280.4 34.5879C281.302 34.979 282.027 33.1443 281.533 32.3119Z" fill="#36191E"/>
<path d="M301.736 94.4991C296.849 78.6254 291.632 62.8518 286.085 47.1942C284.514 42.7541 282.912 38.3231 281.289 33.9017C281.178 33.5994 280.686 33.7301 280.798 34.0359C286.527 49.6279 291.936 65.3365 297.011 81.1526C298.451 85.6381 299.86 90.1317 301.25 94.6328C301.346 94.9427 301.833 94.8105 301.736 94.4991Z" fill="#36191E"/>
<path d="M267.843 67.8781C250.425 62.494 233.006 57.1094 215.588 51.7247C207.015 49.0746 198.408 46.51 189.911 43.6101C181.732 40.8176 173.703 37.6054 165.628 34.5296C156.558 31.0771 147.408 27.8119 137.969 25.5336C137.655 25.4581 137.521 25.9398 137.834 26.0152C154.62 30.0663 170.385 37.2366 186.613 42.9905C195.031 45.9764 203.598 48.541 212.131 51.1786C220.838 53.8707 229.549 56.5633 238.256 59.2553C248.079 62.2901 257.896 65.3249 267.714 68.3598C268.018 68.4547 268.152 67.9731 267.843 67.8781Z" fill="#36191E"/>
</svg>
