<svg width="32" height="32" viewBox="0 0 32 32" fill="none" xmlns="http://www.w3.org/2000/svg">
<circle cx="16" cy="16" r="16" fill="#ECF5E4"/>
<path fill-rule="evenodd" clip-rule="evenodd" d="M16 8C11.5667 8 8 11.5667 8 16C8 20.4333 11.5667 24 16 24C20.4333 24 24 20.4333 24 16C24 11.5667 20.4333 8 16 8ZM16 22.6667C12.3333 22.6667 9.33333 19.6667 9.33333 16C9.33333 12.3333 12.3333 9.33333 16 9.33333C19.6667 9.33333 22.6667 12.3333 22.6667 16C22.6667 19.6667 19.6667 22.6667 16 22.6667ZM18.6667 15.3333H16.6667V12C16.6667 11.6333 16.3667 11.3333 16 11.3333C15.6333 11.3333 15.3333 11.6333 15.3333 12V16C15.3333 16.3667 15.6333 16.6667 16 16.6667H18.6667C19.0333 16.6667 19.3333 16.3667 19.3333 16C19.3333 15.6333 19.0333 15.3333 18.6667 15.3333Z" fill="#6D9147"/>
</svg>
